<?xml version="1.0" encoding="UTF-8" standalone="no" ?>
<COLLADA version="1.4.1" xmlns="http://www.collada.org/2005/11/COLLADASchema">

  <asset>
    <contributor>
      <authoring_tool>ONSHAPE BY PTC INC, 1.198</authoring_tool>
    </contributor>
    <created>2025-06-01T09:42:54</created>
    <modified>2025-06-01T09:42:54</modified>
    <unit meter="1" name="meters"/>
    <up_axis>Z_UP</up_axis>
  </asset>

  <library_materials>
    <material id="ID9" name="ID9">
      <instance_effect url="#ID9-fx"/>
    </material>
    <material id="ID16" name="ID16">
      <instance_effect url="#ID16-fx"/>
    </material>
    <material id="ID23" name="ID23">
      <instance_effect url="#ID23-fx"/>
    </material>
  </library_materials>

  <library_effects>
    <effect id="ID9-fx" name="ID9">
      <profile_COMMON>
        <technique sid="COMMON">
          <lambert>
            <diffuse>
              <color sid="diffuse">0.231373 0.376471 0.705882 1</color>
            </diffuse>
            <transparent opaque="A_ONE">
              <color sid="transparent">1 1 1 1</color>
            </transparent>
            <transparency>
              <float sid="transparency">1</float>
            </transparency>
          </lambert>
        </technique>
        <extra>
          <technique profile="OTHER">
            <double_sided>1</double_sided>
          </technique>
        </extra>
      </profile_COMMON>
    </effect>
    <effect id="ID16-fx" name="ID16">
      <profile_COMMON>
        <technique sid="COMMON">
          <lambert>
            <diffuse>
              <color sid="diffuse">0.615686 0.811765 0.92549 1</color>
            </diffuse>
            <transparent opaque="A_ONE">
              <color sid="transparent">1 1 1 1</color>
            </transparent>
            <transparency>
              <float sid="transparency">1</float>
            </transparency>
          </lambert>
        </technique>
        <extra>
          <technique profile="OTHER">
            <double_sided>1</double_sided>
          </technique>
        </extra>
      </profile_COMMON>
    </effect>
    <effect id="ID23-fx" name="ID23">
      <profile_COMMON>
        <technique sid="COMMON">
          <lambert>
            <diffuse>
              <color sid="diffuse">0.647059 0.647059 0.647059 1</color>
            </diffuse>
            <transparent opaque="A_ONE">
              <color sid="transparent">1 1 1 1</color>
            </transparent>
            <transparency>
              <float sid="transparency">1</float>
            </transparency>
          </lambert>
        </technique>
        <extra>
          <technique profile="OTHER">
            <double_sided>1</double_sided>
          </technique>
        </extra>
      </profile_COMMON>
    </effect>
  </library_effects>

  <library_geometries>
    <geometry id="ID3">
      <mesh>
        <source id="ID4">
          <float_array count="72" id="ID5">0.04928 0.0066906 -8.88178e-19 0.04928 0.0066906 0.002032 0.0491997 -1.33227e-18 0.002032 0.0491997 -1.33227e-18 -8.88178e-19 0.0382813 0.00682254 -8.88178e-19 0.0382813 0.00682254 0.002032 0.04928 0.0066906 0.002032 0.04928 0.0066906 -8.88178e-19 0.0382813 0.00682254 -8.88178e-19 0.0382813 -7.10543e-18 0 0.0382813 -7.10543e-18 0.002032 0.0382813 0.00682254 0.002032 0.0382813 -7.10543e-18 0 0.0491997 -1.33227e-18 -8.88178e-19 0.0491997 -1.33227e-18 0.002032 0.0382813 -7.10543e-18 0.002032 0.0491997 -1.33227e-18 0.002032 0.04928 0.0066906 0.002032 0.0382813 0.00682254 0.002032 0.0382813 -7.10543e-18 0.002032 0.0382813 0.00682254 -8.88178e-19 0.0491997 -1.33227e-18 -8.88178e-19 0.0382813 -7.10543e-18 0 0.04928 0.0066906 -8.88178e-19</float_array>
          <technique_common>
            <accessor count="24" source="#ID5" stride="3">
              <param name="X" type="float"/>
              <param name="Y" type="float"/>
              <param name="Z" type="float"/>
            </accessor>
          </technique_common>
        </source>
        <source id="ID6">
          <float_array count="72" id="ID7">0.999928 -0.0119956 0 0.999928 -0.0119956 0 0.999928 -0.0119956 0 0.999928 -0.0119956 0 0.0119956 0.999928 0 0.0119956 0.999928 0 0.0119956 0.999928 0 0.0119956 0.999928 0 -1 -0 -0 -1 -0 -0 -1 -0 -0 -1 -0 -0 -3.17761e-16 -1 -0 -3.17761e-16 -1 -0 -3.17761e-16 -1 -0 -3.17761e-16 -1 -0 0 0 1 0 0 1 0 0 1 0 0 1 -0 -0 -1 -0 -0 -1 -0 -0 -1 -0 -0 -1</float_array>
          <technique_common>
            <accessor count="24" source="#ID7" stride="3">
              <param name="X" type="float"/>
              <param name="Y" type="float"/>
              <param name="Z" type="float"/>
            </accessor>
          </technique_common>
        </source>
        <vertices id="ID8">
          <input semantic="POSITION" source="#ID4"/>
          <input semantic="NORMAL" source="#ID6"/>
        </vertices>
        <triangles count="12" material="ID9">
          <input offset="0" semantic="VERTEX" source="#ID8"/>
          <p>0 1 2 0 2 3 4 5 6 4 6 7 8 9 10 10 11 8 12 13 14 14 15 12 16 17 18 16 18 19 20 21 22 20 23 21</p>
        </triangles>
      </mesh>
    </geometry>
    <geometry id="ID10">
      <mesh>
        <source id="ID11">
          <float_array count="120" id="ID12">0.0198332 0.0531212 0 0.0198332 0.0531212 0.00254 0.049837 0.0531212 0.00254 0.049837 0.0531212 0 0.0224705 0.0328639 0.00254 0.0262644 0.0233424 0 0.0262644 0.0233424 0.00254 0.0315837 0.0145812 0.00254 0.0315837 0.0145812 0 0.0382813 0.00682254 0 0.0382813 0.00682254 0.00254 0.0224705 0.0328639 0 0.0203068 0.0428825 0.00254 0.0203068 0.0428825 0 0.0198332 0.0531212 0.00254 0.0198332 0.0531212 0 0.0382813 0.00682254 0 0.04928 0.0066906 -8.88178e-19 0.04928 0.0066906 0.00254 0.0382813 0.00682254 0.00254 0.049837 0.0531212 0 0.049837 0.0531212 0.00254 0.04928 0.0066906 0.00254 0.04928 0.0066906 -8.88178e-19 0.049837 0.0531212 0.00254 0.0198332 0.0531212 0.00254 0.0203068 0.0428825 0.00254 0.0224705 0.0328639 0.00254 0.0262644 0.0233424 0.00254 0.0315837 0.0145812 0.00254 0.0382813 0.00682254 0.00254 0.04928 0.0066906 0.00254 0.0203068 0.0428825 0 0.049837 0.0531212 0 0.0224705 0.0328639 0 0.04928 0.0066906 -8.88178e-19 0.0315837 0.0145812 0 0.0262644 0.0233424 0 0.0382813 0.00682254 0 0.0198332 0.0531212 0</float_array>
          <technique_common>
            <accessor count="40" source="#ID12" stride="3">
              <param name="X" type="float"/>
              <param name="Y" type="float"/>
              <param name="Z" type="float"/>
            </accessor>
          </technique_common>
        </source>
        <source id="ID13">
          <float_array count="120" id="ID14">0 1 0 0 1 0 0 1 0 0 1 0 -0.956529 -0.291637 -0 -0.894978 -0.446111 0 -0.894978 -0.446111 0 -0.808679 -0.58825 0 -0.808679 -0.58825 0 -0.70002 -0.714123 0 -0.70002 -0.714123 0 -0.956529 -0.291637 -0 -0.991632 -0.129099 -0 -0.991632 -0.129099 -0 -0.999315 0.0370085 0 -0.999315 0.0370085 0 -0.0119956 -0.999928 -0 -0.0119956 -0.999928 -0 -0.0119956 -0.999928 -0 -0.0119956 -0.999928 -0 0.999928 -0.0119956 0 0.999928 -0.0119956 0 0.999928 -0.0119956 0 0.999928 -0.0119956 0 0 0 1 0 0 1 0 0 1 0 0 1 0 0 1 0 0 1 0 0 1 0 0 1 -0 -0 -1 -0 -0 -1 -0 -0 -1 -0 -0 -1 -0 -0 -1 -0 -0 -1 -0 -0 -1 -0 -0 -1</float_array>
          <technique_common>
            <accessor count="40" source="#ID14" stride="3">
              <param name="X" type="float"/>
              <param name="Y" type="float"/>
              <param name="Z" type="float"/>
            </accessor>
          </technique_common>
        </source>
        <vertices id="ID15">
          <input semantic="POSITION" source="#ID11"/>
          <input semantic="NORMAL" source="#ID13"/>
        </vertices>
        <triangles count="28" material="ID16">
          <input offset="0" semantic="VERTEX" source="#ID15"/>
          <p>0 1 2 0 2 3 4 5 6 7 6 8 5 8 6 9 10 7 7 8 9 5 4 11 11 12 13 12 11 4 12 14 13 13 14 15 16 17 18 18 19 16 20 21 22 20 22 23 24 25 26 26 27 24 24 28 29 27 28 24 29 30 31 29 31 24 32 33 34 35 36 33 37 33 36 35 38 36 33 37 34 39 33 32</p>
        </triangles>
      </mesh>
    </geometry>
    <geometry id="ID17">
      <mesh>
        <source id="ID18">
          <float_array count="120" id="ID19">0.0382813 -3.74709e-33 0 0.0382813 -3.74709e-33 0.00254 0.0491997 -3.46945e-18 0.00254 0.0491997 -3.46945e-18 0 0.0305132 -0.025033 0.00254 0.0293336 -0.0381177 0 0.0293336 -0.0381177 0.00254 0.03 -0.0512385 0.00254 0.03 -0.0512385 0 0.0324993 -0.0641363 0 0.0324993 -0.0641363 0.00254 0.0305132 -0.025033 0 0.0335156 -0.0122429 0.00254 0.0335156 -0.0122429 0 0.0382813 -3.74709e-33 0.00254 0.0382813 -3.74709e-33 0 0.0491997 -0.0641363 0 0.0491997 -0.0641363 0.00254 0.0324993 -0.0641363 0.00254 0.0324993 -0.0641363 0 0.0491997 -3.46945e-18 0 0.0491997 -3.46945e-18 0.00254 0.0491997 -0.0641363 0.00254 0.0491997 -0.0641363 0 0.0382813 -3.74709e-33 0.00254 0.0335156 -0.0122429 0.00254 0.0491997 -0.0641363 0.00254 0.03 -0.0512385 0.00254 0.0305132 -0.025033 0.00254 0.0293336 -0.0381177 0.00254 0.0324993 -0.0641363 0.00254 0.0491997 -3.46945e-18 0.00254 0.0305132 -0.025033 0 0.03 -0.0512385 0 0.0293336 -0.0381177 0 0.0382813 -3.74709e-33 0 0.0491997 -3.46945e-18 0 0.0491997 -0.0641363 0 0.0324993 -0.0641363 0 0.0335156 -0.0122429 0</float_array>
          <technique_common>
            <accessor count="40" source="#ID19" stride="3">
              <param name="X" type="float"/>
              <param name="Y" type="float"/>
              <param name="Z" type="float"/>
            </accessor>
          </technique_common>
        </source>
        <source id="ID20">
          <float_array count="120" id="ID21">3.17761e-16 1 0 3.17761e-16 1 0 3.17761e-16 1 0 3.17761e-16 1 0 -0.98719 0.159551 0 -0.999808 0.0195802 0 -0.999808 0.0195802 0 -0.99268 -0.120778 -0 -0.99268 -0.120778 -0 -0.965944 -0.25875 -0 -0.965944 -0.25875 -0 -0.98719 0.159551 0 -0.955073 0.296371 0 -0.955073 0.296371 0 -0.904092 0.427338 0 -0.904092 0.427338 0 0 -1 0 0 -1 0 0 -1 0 0 -1 0 1 0 0 1 0 0 1 0 0 1 0 0 0 0 1 0 0 1 0 0 1 0 0 1 0 0 1 0 0 1 0 0 1 0 0 1 -0 -0 -1 -0 -0 -1 -0 -0 -1 -0 -0 -1 -0 -0 -1 -0 -0 -1 -0 -0 -1 -0 -0 -1</float_array>
          <technique_common>
            <accessor count="40" source="#ID21" stride="3">
              <param name="X" type="float"/>
              <param name="Y" type="float"/>
              <param name="Z" type="float"/>
            </accessor>
          </technique_common>
        </source>
        <vertices id="ID22">
          <input semantic="POSITION" source="#ID18"/>
          <input semantic="NORMAL" source="#ID20"/>
        </vertices>
        <triangles count="28" material="ID23">
          <input offset="0" semantic="VERTEX" source="#ID22"/>
          <p>0 1 2 0 2 3 4 5 6 7 6 8 5 8 6 9 10 7 7 8 9 5 4 11 11 12 13 12 11 4 12 14 13 13 14 15 16 17 18 16 18 19 20 21 22 20 22 23 24 25 26 27 28 29 28 27 30 30 26 25 25 28 30 26 31 24 32 33 34 35 36 37 32 38 33 38 39 37 39 38 32 39 35 37</p>
        </triangles>
      </mesh>
    </geometry>
  </library_geometries>

  <library_visual_scenes>
    <visual_scene id="ID1">
      <node id="ID2" name="683c209ee829063e4b1267d7">
        <instance_geometry url="#ID3">
          <bind_material>
            <technique_common>
              <instance_material symbol="ID9" target="#ID9"/>
            </technique_common>
          </bind_material>
        </instance_geometry>
        <instance_geometry url="#ID10">
          <bind_material>
            <technique_common>
              <instance_material symbol="ID16" target="#ID16"/>
            </technique_common>
          </bind_material>
        </instance_geometry>
        <instance_geometry url="#ID17">
          <bind_material>
            <technique_common>
              <instance_material symbol="ID23" target="#ID23"/>
            </technique_common>
          </bind_material>
        </instance_geometry>
      </node>
    </visual_scene>
  </library_visual_scenes>

  <scene>
    <instance_visual_scene url="#ID1"/>
  </scene>

  <library_nodes/>

</COLLADA>
