<?xml version="1.0" encoding="UTF-8" standalone="no" ?>
<COLLADA version="1.4.1" xmlns="http://www.collada.org/2005/11/COLLADASchema">

  <asset>
    <contributor>
      <authoring_tool>ONSHAPE BY PTC INC, 1.198</authoring_tool>
    </contributor>
    <created>2025-06-02T00:02:33</created>
    <modified>2025-06-02T00:02:33</modified>
    <unit meter="1" name="meters"/>
    <up_axis>Z_UP</up_axis>
  </asset>

  <library_materials>
    <material id="ID9" name="ID9">
      <instance_effect url="#ID9-fx"/>
    </material>
    <material id="ID16" name="ID16">
      <instance_effect url="#ID16-fx"/>
    </material>
    <material id="ID47" name="ID47">
      <instance_effect url="#ID47-fx"/>
    </material>
  </library_materials>

  <library_effects>
    <effect id="ID9-fx" name="ID9">
      <profile_COMMON>
        <technique sid="COMMON">
          <lambert>
            <diffuse>
              <color sid="diffuse">0.647059 0.647059 0.647059 1</color>
            </diffuse>
            <transparent opaque="A_ONE">
              <color sid="transparent">1 1 1 1</color>
            </transparent>
            <transparency>
              <float sid="transparency">1</float>
            </transparency>
          </lambert>
        </technique>
        <extra>
          <technique profile="OTHER">
            <double_sided>1</double_sided>
          </technique>
        </extra>
      </profile_COMMON>
    </effect>
    <effect id="ID16-fx" name="ID16">
      <profile_COMMON>
        <technique sid="COMMON">
          <lambert>
            <diffuse>
              <color sid="diffuse">0.231373 0.376471 0.705882 1</color>
            </diffuse>
            <transparent opaque="A_ONE">
              <color sid="transparent">1 1 1 1</color>
            </transparent>
            <transparency>
              <float sid="transparency">1</float>
            </transparency>
          </lambert>
        </technique>
        <extra>
          <technique profile="OTHER">
            <double_sided>1</double_sided>
          </technique>
        </extra>
      </profile_COMMON>
    </effect>
    <effect id="ID47-fx" name="ID47">
      <profile_COMMON>
        <technique sid="COMMON">
          <lambert>
            <diffuse>
              <color sid="diffuse">0.615686 0.811765 0.92549 1</color>
            </diffuse>
            <transparent opaque="A_ONE">
              <color sid="transparent">1 1 1 1</color>
            </transparent>
            <transparency>
              <float sid="transparency">1</float>
            </transparency>
          </lambert>
        </technique>
        <extra>
          <technique profile="OTHER">
            <double_sided>1</double_sided>
          </technique>
        </extra>
      </profile_COMMON>
    </effect>
  </library_effects>

  <library_geometries>
    <geometry id="ID3">
      <mesh>
        <source id="ID4">
          <float_array count="216" id="ID5">0 0.0265446 -0.0340059 0 0.0265446 -0.036136 0.00127 0.0265446 -0.036136 0.00127 0.0265446 -0.0340059 0 0.0265446 -0.036136 0.00127 0.0290134 -0.036136 0.00127 0.0265446 -0.036136 0 0.0290134 -0.036136 0 0.0290134 -0.036136 0.00127 0.0305303 -0.0353375 0.00127 0.0290134 -0.036136 0 0.0305303 -0.0353375 0 0.0305303 -0.0353375 0.00127 0.033 -0.0353375 0.00127 0.0305303 -0.0353375 0 0.033 -0.0353375 0 0.033 -0.0353375 0.00127 0.0334837 -0.0357776 0.00127 0.033 -0.0353375 -6.66134e-19 0.0334837 -0.0357776 -6.66134e-19 0.0334837 -0.0357776 0.00127 0.034318 -0.0357776 0.00127 0.0334837 -0.0357776 0 0.034318 -0.0357776 0.00127 0.034318 -0.0357776 0 0.034318 -0.0340713 0.00127 0.034318 -0.0340713 0 0.034318 -0.0357776 0 0.034318 -0.0340713 0.00127 0.0334837 -0.0340713 0.00127 0.034318 -0.0340713 0 0.0334837 -0.0340713 0 0.0334837 -0.0340713 0.00127 0.033 -0.0346029 0.00127 0.0334837 -0.0340713 2.22045e-19 0.033 -0.0346029 2.22045e-19 0.033 -0.0346029 0.00127 0.030449 -0.0346029 0.00127 0.033 -0.0346029 0 0.030449 -0.0346029 0 0.030449 -0.0346029 0.00127 0.029793 -0.0340059 0.00127 0.030449 -0.0346029 2.22045e-19 0.029793 -0.0340059 2.22045e-19 0.029793 -0.0340059 0.00127 0.0265446 -0.0340059 0.00127 0.029793 -0.0340059 0 0.0265446 -0.0340059 0.00127 0.0305303 -0.0353375 0.00127 0.0265446 -0.036136 0.00127 0.0290134 -0.036136 0.00127 0.034318 -0.0340713 0.00127 0.0334837 -0.0340713 0.00127 0.033 -0.0346029 0.00127 0.034318 -0.0357776 0.00127 0.0265446 -0.0340059 0.00127 0.033 -0.0353375 0.00127 0.0334837 -0.0357776 0.00127 0.030449 -0.0346029 0.00127 0.029793 -0.0340059 0 0.030449 -0.0346029 0 0.0265446 -0.0340059 2.22045e-19 0.029793 -0.0340059 0 0.034318 -0.0340713 2.22045e-19 0.033 -0.0346029 0 0.0334837 -0.0340713 0 0.0265446 -0.036136 0 0.0305303 -0.0353375 0 0.0290134 -0.036136 0 0.033 -0.0353375 0 0.034318 -0.0357776 -6.66134e-19 0.0334837 -0.0357776</float_array>
          <technique_common>
            <accessor count="72" source="#ID5" stride="3">
              <param name="X" type="float"/>
              <param name="Y" type="float"/>
              <param name="Z" type="float"/>
            </accessor>
          </technique_common>
        </source>
        <source id="ID6">
          <float_array count="216" id="ID7">0 -1 0 0 -1 0 0 -1 0 0 -1 0 -0 -0 -1 -0 -0 -1 -0 -0 -1 -0 -0 -1 0 0.465779 -0.884901 0 0.465779 -0.884901 0 0.465779 -0.884901 0 0.465779 -0.884901 -0 -1.4048e-15 -1 -0 -1.4048e-15 -1 -0 -1.4048e-15 -1 -0 -1.4048e-15 -1 -0 -0.673024 -0.739621 -0 -0.673024 -0.739621 -0 -0.673024 -0.739621 -0 -0.673024 -0.739621 -0 -0 -1 -0 -0 -1 -0 -0 -1 -0 -0 -1 0 1 0 0 1 0 0 1 0 0 1 0 0 0 1 0 0 1 0 0 1 0 0 1 0 -0.739621 0.673024 0 -0.739621 0.673024 0 -0.739621 0.673024 0 -0.739621 0.673024 0 1.35999e-15 1 0 1.35999e-15 1 0 1.35999e-15 1 0 1.35999e-15 1 0 0.673024 0.739621 0 0.673024 0.739621 0 0.673024 0.739621 0 0.673024 0.739621 0 1.06805e-15 1 0 1.06805e-15 1 0 1.06805e-15 1 0 1.06805e-15 1 1 0 0 1 0 0 1 0 0 1 0 0 1 0 0 1 0 0 1 0 0 1 0 0 1 0 0 1 0 0 1 0 0 1 0 0 -1 -0 -0 -1 -0 -0 -1 -0 -0 -1 -0 -0 -1 -0 -0 -1 -0 -0 -1 -0 -0 -1 -0 -0 -1 -0 -0 -1 -0 -0 -1 -0 -0 -1 -0 -0</float_array>
          <technique_common>
            <accessor count="72" source="#ID7" stride="3">
              <param name="X" type="float"/>
              <param name="Y" type="float"/>
              <param name="Z" type="float"/>
            </accessor>
          </technique_common>
        </source>
        <vertices id="ID8">
          <input semantic="POSITION" source="#ID4"/>
          <input semantic="NORMAL" source="#ID6"/>
        </vertices>
        <triangles count="44" material="ID9">
          <input offset="0" semantic="VERTEX" source="#ID8"/>
          <p>0 1 2 0 2 3 4 5 6 4 7 5 8 9 10 8 11 9 12 13 14 12 15 13 16 17 18 16 19 17 20 21 22 20 23 21 24 25 26 24 27 25 28 29 30 28 31 29 32 33 34 32 35 33 36 37 38 36 39 37 40 41 42 40 43 41 44 45 46 44 47 45 48 49 50 51 52 53 53 54 51 49 48 55 56 57 54 53 56 54 48 56 53 55 48 58 48 53 58 59 55 58 60 61 62 63 64 65 66 67 68 69 64 70 70 64 63 69 70 71 60 64 67 67 64 69 67 66 61 60 67 61</p>
        </triangles>
      </mesh>
    </geometry>
    <geometry id="ID10">
      <mesh>
        <source id="ID11">
          <float_array count="540" id="ID12">0.0254 0.0321592 -0.0552109 0.0254 0.0321592 -0.0513425 0 0.0321592 -0.0513425 0 0.0321592 -0.0552109 0 0.0321592 -0.0513425 0.0254 0.0321592 -0.0513425 0.0254 2.4869e-17 -0.022079 3.55271e-18 2.4869e-17 -0.022079 0.0254 2.4869e-17 -0.022079 0.0254 0 -0.011919 0 0 -0.011919 3.55271e-18 2.4869e-17 -0.022079 0 0 -0.011919 0.0254 0 -0.011919 0.0254 -0.0465629 -0.011919 0 -0.0465629 -0.011919 0 -0.0465629 -0.011919 0.0254 -0.0465629 -0.011919 0.0254 -0.0470192 -0.0552109 1.06581e-17 -0.0470192 -0.0552109 0.0254 -0.0470192 -0.0552109 0.0254 0.0321592 -0.0552109 0 0.0321592 -0.0552109 1.06581e-17 -0.0470192 -0.0552109 0.0254 0.0321592 -0.0513425 0.0254 -0.0470192 -0.0552109 0.0254 2.4869e-17 -0.022079 0.0254 -0.0465629 -0.011919 0.0254 0 -0.011919 0.0254 0.0321592 -0.0552109 0 -0.0175755 -0.032239 0 -0.0188455 -0.032239 0 -0.0188455 -0.0517354 0 0.0321592 -0.0552109 0 0.00248447 -0.0517354 0 0 -0.0517354 0 0 -0.011919 0 -0.0465629 -0.011919 3.55271e-18 2.4869e-17 -0.022079 0 -0.00127 -0.0517354 0 -0.00878631 -0.0517354 1.06581e-17 -0.0470192 -0.0552109 0 -0.0232815 -0.032239 0 -0.0100563 -0.0517354 0 0 -0.032239 0 -0.00127 -0.032239 0 -0.00878631 -0.032239 1.77636e-18 0.0067048 -0.0482287 1.77636e-18 0.0055026 -0.0496302 0 0.0321592 -0.0513425 1.77636e-18 0.00469799 -0.0332739 1.77636e-18 0.00603194 -0.0345506 0 0.00316885 -0.032239 1.77636e-18 0.00713291 -0.0360329 1.77636e-18 0.00851871 -0.0394418 1.77636e-18 0.00796973 -0.0376788 1.77636e-18 0.00869951 -0.0431171 1.77636e-18 0.00876428 -0.0412718 1.77636e-18 0.00765498 -0.0466455 1.77636e-18 0.00832621 -0.0449254 1.77636e-18 0.00408241 -0.0508102 0 -0.0175755 -0.0517354 0 -0.0100563 -0.032239 0 -0.0232815 -0.0517354 0 -0.00878631 -0.032239 0.0127 -0.00878631 -0.032239 0.0127 -0.00127 -0.032239 0 -0.00127 -0.032239 0 -0.00878631 -0.0517354 0.0127 -0.00878631 -0.0517354 0.0127 -0.00878631 -0.032239 0 -0.00878631 -0.032239 0.0127 -0.00127 -0.0517354 0.0127 -0.00878631 -0.0517354 0 -0.00878631 -0.0517354 0 -0.00127 -0.0517354 0 -0.00127 -0.032239 0.0127 -0.00127 -0.032239 0.0127 -0.00127 -0.0517354 0 -0.00127 -0.0517354 0.0127 -0.00127 -0.032239 0.0127 -0.00878631 -0.0517354 0.0127 -0.00127 -0.0517354 0.0127 -0.00878631 -0.032239 0 0 -0.032239 0.0127 0 -0.032239 0.0127 0.00316885 -0.032239 0 0.00316885 -0.032239 0.0127 0 -0.0517354 0.0127 0 -0.032239 0 0 -0.032239 0 0 -0.0517354 0.0127 0.00248447 -0.0517354 0.0127 0 -0.0517354 0 0 -0.0517354 0 0.00248447 -0.0517354 0.0127 0.00469799 -0.0332739 0 0.00316885 -0.032239 0.0127 0.00316885 -0.032239 0.0127 0.00796973 -0.0376788 1.77636e-18 0.00713291 -0.0360329 0.0127 0.00713291 -0.0360329 0.0127 0.00603194 -0.0345506 1.77636e-18 0.00603194 -0.0345506 1.77636e-18 0.00469799 -0.0332739 1.77636e-18 0.00876428 -0.0412718 0.0127 0.00876428 -0.0412718 0.0127 0.00869951 -0.0431171 1.77636e-18 0.00796973 -0.0376788 0.0127 0.00851871 -0.0394418 1.77636e-18 0.00851871 -0.0394418 0.0127 0.00765498 -0.0466455 0.0127 0.0067048 -0.0482287 1.77636e-18 0.00765498 -0.0466455 0.0127 0.00832621 -0.0449254 1.77636e-18 0.00832621 -0.0449254 1.77636e-18 0.00869951 -0.0431171 1.77636e-18 0.0067048 -0.0482287 0.0127 0.0055026 -0.0496302 1.77636e-18 0.0055026 -0.0496302 1.77636e-18 0.00408241 -0.0508102 0.0127 0.00408241 -0.0508102 0.0127 0.00248447 -0.0517354 0 0.00248447 -0.0517354 0.0127 0.00248447 -0.0517354 0.0127 0 -0.032239 0.0127 0 -0.0517354 0.0127 0.00851871 -0.0394418 0.0127 0.00832621 -0.0449254 0.0127 0.00869951 -0.0431171 0.0127 0.00408241 -0.0508102 0.0127 0.00469799 -0.0332739 0.0127 0.00316885 -0.032239 0.0127 0.00765498 -0.0466455 0.0127 0.00796973 -0.0376788 0.0127 0.00713291 -0.0360329 0.0127 0.0067048 -0.0482287 0.0127 0.00603194 -0.0345506 0.0127 0.0055026 -0.0496302 0.0127 0.00876428 -0.0412718 0 -0.0175755 -0.032239 0.0127 -0.0175755 -0.032239 0.0127 -0.0100563 -0.032239 0 -0.0100563 -0.032239 0.0127 -0.0175755 -0.0517354 0.0127 -0.0175755 -0.032239 0 -0.0175755 -0.032239 0 -0.0175755 -0.0517354 0.0127 -0.0100563 -0.0517354 0.0127 -0.0175755 -0.0517354 0 -0.0175755 -0.0517354 0 -0.0100563 -0.0517354 0 -0.0100563 -0.0517354 0.0127 -0.0100563 -0.032239 0.0127 -0.0100563 -0.0517354 0 -0.0100563 -0.032239 0.0127 -0.0100563 -0.032239 0.0127 -0.0175755 -0.0517354 0.0127 -0.0100563 -0.0517354 0.0127 -0.0175755 -0.032239 0.0127 -0.0232815 -0.0517354 0.0127 -0.0232815 -0.032239 0 -0.0232815 -0.032239 0 -0.0232815 -0.0517354 0.0127 -0.0188455 -0.0517354 0.0127 -0.0232815 -0.0517354 0 -0.0232815 -0.0517354 0 -0.0188455 -0.0517354 0 -0.0188455 -0.0517354 0.0127 -0.0188455 -0.032239 0.0127 -0.0188455 -0.0517354 0 -0.0188455 -0.032239 0 -0.0232815 -0.032239 0.0127 -0.0232815 -0.032239 0.0127 -0.0188455 -0.032239 0 -0.0188455 -0.032239 0.0127 -0.0232815 -0.0517354 0.0127 -0.0188455 -0.0517354 0.0127 -0.0188455 -0.032239 0.0127 -0.0232815 -0.032239</float_array>
          <technique_common>
            <accessor count="180" source="#ID12" stride="3">
              <param name="X" type="float"/>
              <param name="Y" type="float"/>
              <param name="Z" type="float"/>
            </accessor>
          </technique_common>
        </source>
        <source id="ID13">
          <float_array count="540" id="ID14">0 1 0 0 1 0 0 1 0 0 1 0 0 0.673024 0.739621 0 0.673024 0.739621 0 0.673024 0.739621 0 0.673024 0.739621 0 1 0 0 1 0 0 1 0 0 1 0 0 0 1 0 0 1 0 0 1 0 0 1 0 -0.999944 0.0105384 0 -0.999944 0.0105384 0 -0.999944 0.0105384 0 -0.999944 0.0105384 0 0 -1 0 0 -1 0 0 -1 0 0 -1 1 0 0 1 0 0 1 0 0 1 0 0 1 0 0 1 0 0 -1 -0 -0 -1 -0 -0 -1 -0 -0 -1 -0 -0 -1 -0 -0 -1 -0 -0 -1 -0 -0 -1 -0 -0 -1 -0 -0 -1 -0 -0 -1 -0 -0 -1 -0 -0 -1 -0 -0 -1 -0 -0 -1 -0 -0 -1 -0 -0 -1 -0 -0 -1 -0 -0 -1 -0 -0 -1 -0 -0 -1 -0 -0 -1 -0 -0 -1 -0 -0 -1 -0 -0 -1 -0 -0 -1 -0 -0 -1 -0 -0 -1 -0 -0 -1 -0 -0 -1 -0 -0 -1 -0 -0 -1 -0 -0 -1 -0 -0 -1 -0 -0 -0 -0 -1 -0 -0 -1 -0 -0 -1 -0 -0 -1 0 1 1.77954e-16 0 1 1.77954e-16 0 1 1.77954e-16 0 1 1.77954e-16 0 0 1 0 0 1 0 0 1 0 0 1 -0 -1 -2.44686e-16 -0 -1 -2.44686e-16 -0 -1 -2.44686e-16 -0 -1 -2.44686e-16 -1 -0 -0 -1 -0 -0 -1 -0 -0 -1 -0 -0 -0 -0 -1 -0 -0 -1 -0 -0 -1 -0 -0 -1 0 1 0 0 1 0 0 1 0 0 1 0 0 0 1 0 0 1 0 0 1 0 0 1 -0 -0.628192 -0.778059 -0 -0.488826 -0.872381 -0 -0.488826 -0.872381 -0 -0.926377 -0.376597 -0 -0.85011 -0.526606 -0 -0.85011 -0.526606 -0 -0.749767 -0.661702 -0 -0.749767 -0.661702 -0 -0.628192 -0.778059 -0 -0.998792 -0.0491333 -0 -0.998792 -0.0491333 0 -0.992889 0.119047 -0 -0.926377 -0.376597 -0 -0.976411 -0.215922 -0 -0.976411 -0.215922 0 -0.89769 0.440627 0 -0.811092 0.584919 0 -0.89769 0.440627 0 -0.958867 0.283857 0 -0.958867 0.283857 0 -0.992889 0.119047 0 -0.811092 0.584919 0 -0.701523 0.712647 0 -0.701523 0.712647 0 -0.572088 0.820192 0 -0.572088 0.820192 0 -0.426451 0.90451 0 -0.426451 0.90451 -1 -0 -0 -1 -0 -0 -1 -0 -0 -1 -0 -0 -1 -0 -0 -1 -0 -0 -1 -0 -0 -1 -0 -0 -1 -0 -0 -1 -0 -0 -1 -0 -0 -1 -0 -0 -1 -0 -0 -1 -0 -0 -1 -0 -0 -1 -0 -0 -0 -0 -1 -0 -0 -1 -0 -0 -1 -0 -0 -1 0 1 0 0 1 0 0 1 0 0 1 0 0 0 1 0 0 1 0 0 1 0 0 1 0 -1 0 0 -1 0 0 -1 0 0 -1 0 -1 -0 -0 -1 -0 -0 -1 -0 -0 -1 -0 -0 0 1 0 0 1 0 0 1 0 0 1 0 0 0 1 0 0 1 0 0 1 0 0 1 0 -1 0 0 -1 0 0 -1 0 0 -1 0 -0 -0 -1 -0 -0 -1 -0 -0 -1 -0 -0 -1 -1 -0 -0 -1 -0 -0 -1 -0 -0 -1 -0 -0</float_array>
          <technique_common>
            <accessor count="180" source="#ID14" stride="3">
              <param name="X" type="float"/>
              <param name="Y" type="float"/>
              <param name="Z" type="float"/>
            </accessor>
          </technique_common>
        </source>
        <vertices id="ID15">
          <input semantic="POSITION" source="#ID11"/>
          <input semantic="NORMAL" source="#ID13"/>
        </vertices>
        <triangles count="132" material="ID16">
          <input offset="0" semantic="VERTEX" source="#ID15"/>
          <p>0 2 1 0 3 2 4 6 5 4 7 6 8 10 9 8 11 10 12 14 13 12 15 14 16 18 17 16 19 18 20 22 21 22 20 23 24 26 25 26 28 27 25 26 27 29 24 25 30 32 31 33 35 34 36 38 37 39 33 40 41 40 33 35 33 39 37 38 42 41 43 40 39 45 44 38 45 46 47 49 48 50 38 51 39 44 35 38 44 45 38 50 52 38 52 44 53 51 49 38 49 51 54 55 49 49 55 53 56 57 49 49 57 54 58 59 49 49 59 56 49 33 48 49 47 58 34 60 33 33 60 48 40 43 46 61 43 41 46 43 62 30 38 62 41 32 61 38 46 62 38 30 31 41 42 63 30 61 32 63 32 41 38 31 42 37 42 41 64 66 65 64 67 66 68 70 69 68 71 70 72 74 73 74 72 75 76 78 77 76 79 78 80 82 81 81 83 80 84 86 85 84 87 86 88 90 89 88 91 90 92 94 93 94 92 95 96 98 97 99 101 100 102 104 103 105 107 106 108 110 109 111 113 112 114 116 115 117 119 118 118 112 117 120 121 119 118 119 121 122 120 123 120 122 121 113 111 115 112 113 117 107 116 114 114 115 111 110 105 106 105 116 107 108 109 99 110 106 109 100 101 103 108 99 100 102 96 104 101 102 103 97 104 96 124 126 125 127 129 128 130 132 131 133 135 134 136 138 137 139 129 127 133 134 128 134 127 128 137 135 136 135 133 136 138 131 137 132 130 124 131 138 130 124 125 132 140 142 141 140 143 142 144 146 145 144 147 146 148 150 149 150 148 151 152 154 153 153 155 152 156 158 157 157 159 156 160 162 161 160 163 162 164 166 165 166 164 167 168 170 169 169 171 168 172 174 173 172 175 174 176 178 177 176 179 178</p>
        </triangles>
      </mesh>
    </geometry>
    <geometry id="ID17">
      <mesh>
        <source id="ID18">
          <float_array count="216" id="ID19">0 0.0434523 -0.0493913 0 0.0434523 -0.0515213 0.00127 0.0434523 -0.0515213 0.00127 0.0434523 -0.0493913 0 0.0434523 -0.0515213 0.00127 0.0459211 -0.0515213 0.00127 0.0434523 -0.0515213 0 0.0459211 -0.0515213 0 0.0459211 -0.0515213 0.00127 0.0474381 -0.0507228 0.00127 0.0459211 -0.0515213 0 0.0474381 -0.0507228 0 0.0474381 -0.0507228 0.00127 0.0499078 -0.0507228 0.00127 0.0474381 -0.0507228 0 0.0499078 -0.0507228 0 0.0499078 -0.0507228 0.00127 0.0503914 -0.0511629 0.00127 0.0499078 -0.0507228 -6.66134e-19 0.0503914 -0.0511629 -6.66134e-19 0.0503914 -0.0511629 0.00127 0.0512257 -0.0511629 0.00127 0.0503914 -0.0511629 0 0.0512257 -0.0511629 0.00127 0.0512257 -0.0511629 0 0.0512257 -0.0494566 0.00127 0.0512257 -0.0494566 0 0.0512257 -0.0511629 0 0.0512257 -0.0494566 0.00127 0.0503914 -0.0494566 0.00127 0.0512257 -0.0494566 0 0.0503914 -0.0494566 0 0.0503914 -0.0494566 0.00127 0.0499078 -0.0499882 0.00127 0.0503914 -0.0494566 2.22045e-19 0.0499078 -0.0499882 2.22045e-19 0.0499078 -0.0499882 0.00127 0.0473567 -0.0499882 0.00127 0.0499078 -0.0499882 0 0.0473567 -0.0499882 0 0.0473567 -0.0499882 0.00127 0.0467007 -0.0493913 0.00127 0.0473567 -0.0499882 2.22045e-19 0.0467007 -0.0493913 2.22045e-19 0.0467007 -0.0493913 0.00127 0.0434523 -0.0493913 0.00127 0.0467007 -0.0493913 0 0.0434523 -0.0493913 0.00127 0.0474381 -0.0507228 0.00127 0.0434523 -0.0515213 0.00127 0.0459211 -0.0515213 0.00127 0.0512257 -0.0494566 0.00127 0.0503914 -0.0494566 0.00127 0.0499078 -0.0499882 0.00127 0.0512257 -0.0511629 0.00127 0.0434523 -0.0493913 0.00127 0.0499078 -0.0507228 0.00127 0.0503914 -0.0511629 0.00127 0.0473567 -0.0499882 0.00127 0.0467007 -0.0493913 0 0.0473567 -0.0499882 0 0.0434523 -0.0493913 2.22045e-19 0.0467007 -0.0493913 0 0.0512257 -0.0494566 2.22045e-19 0.0499078 -0.0499882 0 0.0503914 -0.0494566 0 0.0434523 -0.0515213 0 0.0474381 -0.0507228 0 0.0459211 -0.0515213 0 0.0499078 -0.0507228 0 0.0512257 -0.0511629 -6.66134e-19 0.0503914 -0.0511629</float_array>
          <technique_common>
            <accessor count="72" source="#ID19" stride="3">
              <param name="X" type="float"/>
              <param name="Y" type="float"/>
              <param name="Z" type="float"/>
            </accessor>
          </technique_common>
        </source>
        <source id="ID20">
          <float_array count="216" id="ID21">0 -1 0 0 -1 0 0 -1 0 0 -1 0 -0 -0 -1 -0 -0 -1 -0 -0 -1 -0 -0 -1 0 0.465779 -0.884901 0 0.465779 -0.884901 0 0.465779 -0.884901 0 0.465779 -0.884901 -0 -1.4048e-15 -1 -0 -1.4048e-15 -1 -0 -1.4048e-15 -1 -0 -1.4048e-15 -1 -0 -0.673024 -0.739621 -0 -0.673024 -0.739621 -0 -0.673024 -0.739621 -0 -0.673024 -0.739621 -0 -0 -1 -0 -0 -1 -0 -0 -1 -0 -0 -1 0 1 0 0 1 0 0 1 0 0 1 0 0 0 1 0 0 1 0 0 1 0 0 1 0 -0.739621 0.673024 0 -0.739621 0.673024 0 -0.739621 0.673024 0 -0.739621 0.673024 0 1.35999e-15 1 0 1.35999e-15 1 0 1.35999e-15 1 0 1.35999e-15 1 0 0.673024 0.739621 0 0.673024 0.739621 0 0.673024 0.739621 0 0.673024 0.739621 0 1.06805e-15 1 0 1.06805e-15 1 0 1.06805e-15 1 0 1.06805e-15 1 1 0 0 1 0 0 1 0 0 1 0 0 1 0 0 1 0 0 1 0 0 1 0 0 1 0 0 1 0 0 1 0 0 1 0 0 -1 -0 -0 -1 -0 -0 -1 -0 -0 -1 -0 -0 -1 -0 -0 -1 -0 -0 -1 -0 -0 -1 -0 -0 -1 -0 -0 -1 -0 -0 -1 -0 -0 -1 -0 -0</float_array>
          <technique_common>
            <accessor count="72" source="#ID21" stride="3">
              <param name="X" type="float"/>
              <param name="Y" type="float"/>
              <param name="Z" type="float"/>
            </accessor>
          </technique_common>
        </source>
        <vertices id="ID22">
          <input semantic="POSITION" source="#ID18"/>
          <input semantic="NORMAL" source="#ID20"/>
        </vertices>
        <triangles count="44" material="ID9">
          <input offset="0" semantic="VERTEX" source="#ID22"/>
          <p>0 1 2 0 2 3 4 5 6 4 7 5 8 9 10 8 11 9 12 13 14 12 15 13 16 17 18 16 19 17 20 21 22 20 23 21 24 25 26 24 27 25 28 29 30 28 31 29 32 33 34 32 35 33 36 37 38 36 39 37 40 41 42 40 43 41 44 45 46 44 47 45 48 49 50 51 52 53 53 54 51 49 48 55 56 57 54 53 56 54 48 56 53 55 48 58 48 53 58 59 55 58 60 61 62 63 64 65 66 67 68 69 64 70 70 64 63 69 70 71 60 64 67 67 64 69 67 66 61 60 67 61</p>
        </triangles>
      </mesh>
    </geometry>
    <geometry id="ID23">
      <mesh>
        <source id="ID24">
          <float_array count="216" id="ID25">0 0.00400094 -0.0134922 0 0.00400094 -0.0156222 0.00127 0.00400094 -0.0156222 0.00127 0.00400094 -0.0134922 0 0.00400094 -0.0156222 0.00127 0.00646973 -0.0156222 0.00127 0.00400094 -0.0156222 0 0.00646973 -0.0156222 0 0.00646973 -0.0156222 0.00127 0.00798668 -0.0148237 0.00127 0.00646973 -0.0156222 0 0.00798668 -0.0148237 0 0.00798668 -0.0148237 0.00127 0.0104564 -0.0148237 0.00127 0.00798668 -0.0148237 0 0.0104564 -0.0148237 0 0.0104564 -0.0148237 0.00127 0.0109401 -0.0152639 0.00127 0.0104564 -0.0148237 -6.66134e-19 0.0109401 -0.0152639 -6.66134e-19 0.0109401 -0.0152639 0.00127 0.0117743 -0.0152639 0.00127 0.0109401 -0.0152639 0 0.0117743 -0.0152639 0.00127 0.0117743 -0.0152639 0 0.0117743 -0.0135576 0.00127 0.0117743 -0.0135576 0 0.0117743 -0.0152639 0 0.0117743 -0.0135576 0.00127 0.0109401 -0.0135576 0.00127 0.0117743 -0.0135576 0 0.0109401 -0.0135576 0 0.0109401 -0.0135576 0.00127 0.0104564 -0.0140891 0.00127 0.0109401 -0.0135576 2.22045e-19 0.0104564 -0.0140891 2.22045e-19 0.0104564 -0.0140891 0.00127 0.00790532 -0.0140891 0.00127 0.0104564 -0.0140891 0 0.00790532 -0.0140891 0 0.00790532 -0.0140891 0.00127 0.00724933 -0.0134922 0.00127 0.00790532 -0.0140891 2.22045e-19 0.00724933 -0.0134922 2.22045e-19 0.00724933 -0.0134922 0.00127 0.00400094 -0.0134922 0.00127 0.00724933 -0.0134922 0 0.00400094 -0.0134922 0.00127 0.00798668 -0.0148237 0.00127 0.00400094 -0.0156222 0.00127 0.00646973 -0.0156222 0.00127 0.0117743 -0.0135576 0.00127 0.0109401 -0.0135576 0.00127 0.0104564 -0.0140891 0.00127 0.0117743 -0.0152639 0.00127 0.00400094 -0.0134922 0.00127 0.0104564 -0.0148237 0.00127 0.0109401 -0.0152639 0.00127 0.00790532 -0.0140891 0.00127 0.00724933 -0.0134922 0 0.00790532 -0.0140891 0 0.00400094 -0.0134922 2.22045e-19 0.00724933 -0.0134922 0 0.0117743 -0.0135576 2.22045e-19 0.0104564 -0.0140891 0 0.0109401 -0.0135576 0 0.00400094 -0.0156222 0 0.00798668 -0.0148237 0 0.00646973 -0.0156222 0 0.0104564 -0.0148237 0 0.0117743 -0.0152639 -6.66134e-19 0.0109401 -0.0152639</float_array>
          <technique_common>
            <accessor count="72" source="#ID25" stride="3">
              <param name="X" type="float"/>
              <param name="Y" type="float"/>
              <param name="Z" type="float"/>
            </accessor>
          </technique_common>
        </source>
        <source id="ID26">
          <float_array count="216" id="ID27">0 -1 0 0 -1 0 0 -1 0 0 -1 0 -0 -0 -1 -0 -0 -1 -0 -0 -1 -0 -0 -1 0 0.465779 -0.884901 0 0.465779 -0.884901 0 0.465779 -0.884901 0 0.465779 -0.884901 -0 -1.4048e-15 -1 -0 -1.4048e-15 -1 -0 -1.4048e-15 -1 -0 -1.4048e-15 -1 -0 -0.673024 -0.739621 -0 -0.673024 -0.739621 -0 -0.673024 -0.739621 -0 -0.673024 -0.739621 -0 -0 -1 -0 -0 -1 -0 -0 -1 -0 -0 -1 0 1 0 0 1 0 0 1 0 0 1 0 0 0 1 0 0 1 0 0 1 0 0 1 0 -0.739621 0.673024 0 -0.739621 0.673024 0 -0.739621 0.673024 0 -0.739621 0.673024 0 1.35999e-15 1 0 1.35999e-15 1 0 1.35999e-15 1 0 1.35999e-15 1 0 0.673024 0.739621 0 0.673024 0.739621 0 0.673024 0.739621 0 0.673024 0.739621 0 1.06805e-15 1 0 1.06805e-15 1 0 1.06805e-15 1 0 1.06805e-15 1 1 0 0 1 0 0 1 0 0 1 0 0 1 0 0 1 0 0 1 0 0 1 0 0 1 0 0 1 0 0 1 0 0 1 0 0 -1 -0 -0 -1 -0 -0 -1 -0 -0 -1 -0 -0 -1 -0 -0 -1 -0 -0 -1 -0 -0 -1 -0 -0 -1 -0 -0 -1 -0 -0 -1 -0 -0 -1 -0 -0</float_array>
          <technique_common>
            <accessor count="72" source="#ID27" stride="3">
              <param name="X" type="float"/>
              <param name="Y" type="float"/>
              <param name="Z" type="float"/>
            </accessor>
          </technique_common>
        </source>
        <vertices id="ID28">
          <input semantic="POSITION" source="#ID24"/>
          <input semantic="NORMAL" source="#ID26"/>
        </vertices>
        <triangles count="44" material="ID9">
          <input offset="0" semantic="VERTEX" source="#ID28"/>
          <p>0 1 2 0 2 3 4 5 6 4 7 5 8 9 10 8 11 9 12 13 14 12 15 13 16 17 18 16 19 17 20 21 22 20 23 21 24 25 26 24 27 25 28 29 30 28 31 29 32 33 34 32 35 33 36 37 38 36 39 37 40 41 42 40 43 41 44 45 46 44 47 45 48 49 50 51 52 53 53 54 51 49 48 55 56 57 54 53 56 54 48 56 53 55 48 58 48 53 58 59 55 58 60 61 62 63 64 65 66 67 68 69 64 70 70 64 63 69 70 71 60 64 67 67 64 69 67 66 61 60 67 61</p>
        </triangles>
      </mesh>
    </geometry>
    <geometry id="ID29">
      <mesh>
        <source id="ID30">
          <float_array count="216" id="ID31">0 0.00963685 -0.0186206 0 0.00963685 -0.0207506 0.00127 0.00963685 -0.0207506 0.00127 0.00963685 -0.0186206 0 0.00963685 -0.0207506 0.00127 0.0121056 -0.0207506 0.00127 0.00963685 -0.0207506 0 0.0121056 -0.0207506 0 0.0121056 -0.0207506 0.00127 0.0136226 -0.0199522 0.00127 0.0121056 -0.0207506 0 0.0136226 -0.0199522 0 0.0136226 -0.0199522 0.00127 0.0160923 -0.0199522 0.00127 0.0136226 -0.0199522 0 0.0160923 -0.0199522 0 0.0160923 -0.0199522 0.00127 0.016576 -0.0203923 0.00127 0.0160923 -0.0199522 -6.66134e-19 0.016576 -0.0203923 -6.66134e-19 0.016576 -0.0203923 0.00127 0.0174102 -0.0203923 0.00127 0.016576 -0.0203923 0 0.0174102 -0.0203923 0.00127 0.0174102 -0.0203923 0 0.0174102 -0.018686 0.00127 0.0174102 -0.018686 0 0.0174102 -0.0203923 0 0.0174102 -0.018686 0.00127 0.016576 -0.018686 0.00127 0.0174102 -0.018686 0 0.016576 -0.018686 0 0.016576 -0.018686 0.00127 0.0160923 -0.0192175 0.00127 0.016576 -0.018686 2.22045e-19 0.0160923 -0.0192175 2.22045e-19 0.0160923 -0.0192175 0.00127 0.0135412 -0.0192175 0.00127 0.0160923 -0.0192175 0 0.0135412 -0.0192175 0 0.0135412 -0.0192175 0.00127 0.0128852 -0.0186206 0.00127 0.0135412 -0.0192175 2.22045e-19 0.0128852 -0.0186206 2.22045e-19 0.0128852 -0.0186206 0.00127 0.00963685 -0.0186206 0.00127 0.0128852 -0.0186206 0 0.00963685 -0.0186206 0.00127 0.0136226 -0.0199522 0.00127 0.00963685 -0.0207506 0.00127 0.0121056 -0.0207506 0.00127 0.0174102 -0.018686 0.00127 0.016576 -0.018686 0.00127 0.0160923 -0.0192175 0.00127 0.0174102 -0.0203923 0.00127 0.00963685 -0.0186206 0.00127 0.0160923 -0.0199522 0.00127 0.016576 -0.0203923 0.00127 0.0135412 -0.0192175 0.00127 0.0128852 -0.0186206 0 0.0135412 -0.0192175 0 0.00963685 -0.0186206 2.22045e-19 0.0128852 -0.0186206 0 0.0174102 -0.018686 2.22045e-19 0.0160923 -0.0192175 0 0.016576 -0.018686 0 0.00963685 -0.0207506 0 0.0136226 -0.0199522 0 0.0121056 -0.0207506 0 0.0160923 -0.0199522 0 0.0174102 -0.0203923 -6.66134e-19 0.016576 -0.0203923</float_array>
          <technique_common>
            <accessor count="72" source="#ID31" stride="3">
              <param name="X" type="float"/>
              <param name="Y" type="float"/>
              <param name="Z" type="float"/>
            </accessor>
          </technique_common>
        </source>
        <source id="ID32">
          <float_array count="216" id="ID33">0 -1 0 0 -1 0 0 -1 0 0 -1 0 -0 -0 -1 -0 -0 -1 -0 -0 -1 -0 -0 -1 0 0.465779 -0.884901 0 0.465779 -0.884901 0 0.465779 -0.884901 0 0.465779 -0.884901 -0 -1.4048e-15 -1 -0 -1.4048e-15 -1 -0 -1.4048e-15 -1 -0 -1.4048e-15 -1 -0 -0.673024 -0.739621 -0 -0.673024 -0.739621 -0 -0.673024 -0.739621 -0 -0.673024 -0.739621 -0 -0 -1 -0 -0 -1 -0 -0 -1 -0 -0 -1 0 1 0 0 1 0 0 1 0 0 1 0 0 0 1 0 0 1 0 0 1 0 0 1 0 -0.739621 0.673024 0 -0.739621 0.673024 0 -0.739621 0.673024 0 -0.739621 0.673024 0 1.35999e-15 1 0 1.35999e-15 1 0 1.35999e-15 1 0 1.35999e-15 1 0 0.673024 0.739621 0 0.673024 0.739621 0 0.673024 0.739621 0 0.673024 0.739621 0 1.06805e-15 1 0 1.06805e-15 1 0 1.06805e-15 1 0 1.06805e-15 1 1 0 0 1 0 0 1 0 0 1 0 0 1 0 0 1 0 0 1 0 0 1 0 0 1 0 0 1 0 0 1 0 0 1 0 0 -1 -0 -0 -1 -0 -0 -1 -0 -0 -1 -0 -0 -1 -0 -0 -1 -0 -0 -1 -0 -0 -1 -0 -0 -1 -0 -0 -1 -0 -0 -1 -0 -0 -1 -0 -0</float_array>
          <technique_common>
            <accessor count="72" source="#ID33" stride="3">
              <param name="X" type="float"/>
              <param name="Y" type="float"/>
              <param name="Z" type="float"/>
            </accessor>
          </technique_common>
        </source>
        <vertices id="ID34">
          <input semantic="POSITION" source="#ID30"/>
          <input semantic="NORMAL" source="#ID32"/>
        </vertices>
        <triangles count="44" material="ID9">
          <input offset="0" semantic="VERTEX" source="#ID34"/>
          <p>0 1 2 0 2 3 4 5 6 4 7 5 8 9 10 8 11 9 12 13 14 12 15 13 16 17 18 16 19 17 20 21 22 20 23 21 24 25 26 24 27 25 28 29 30 28 31 29 32 33 34 32 35 33 36 37 38 36 39 37 40 41 42 40 43 41 44 45 46 44 47 45 48 49 50 51 52 53 53 54 51 49 48 55 56 57 54 53 56 54 48 56 53 55 48 58 48 53 58 59 55 58 60 61 62 63 64 65 66 67 68 69 64 70 70 64 63 69 70 71 60 64 67 67 64 69 67 66 61 60 67 61</p>
        </triangles>
      </mesh>
    </geometry>
    <geometry id="ID35">
      <mesh>
        <source id="ID36">
          <float_array count="216" id="ID37">0 0.0321805 -0.0391344 0 0.0321805 -0.0412644 0.00127 0.0321805 -0.0412644 0.00127 0.0321805 -0.0391344 0 0.0321805 -0.0412644 0.00127 0.0346493 -0.0412644 0.00127 0.0321805 -0.0412644 0 0.0346493 -0.0412644 0 0.0346493 -0.0412644 0.00127 0.0361662 -0.0404659 0.00127 0.0346493 -0.0412644 0 0.0361662 -0.0404659 0 0.0361662 -0.0404659 0.00127 0.038636 -0.0404659 0.00127 0.0361662 -0.0404659 0 0.038636 -0.0404659 0 0.038636 -0.0404659 0.00127 0.0391196 -0.0409061 0.00127 0.038636 -0.0404659 -6.66134e-19 0.0391196 -0.0409061 -6.66134e-19 0.0391196 -0.0409061 0.00127 0.0399539 -0.0409061 0.00127 0.0391196 -0.0409061 0 0.0399539 -0.0409061 0.00127 0.0399539 -0.0409061 0 0.0399539 -0.0391998 0.00127 0.0399539 -0.0391998 0 0.0399539 -0.0409061 0 0.0399539 -0.0391998 0.00127 0.0391196 -0.0391998 0.00127 0.0399539 -0.0391998 0 0.0391196 -0.0391998 0 0.0391196 -0.0391998 0.00127 0.038636 -0.0397313 0.00127 0.0391196 -0.0391998 2.22045e-19 0.038636 -0.0397313 2.22045e-19 0.038636 -0.0397313 0.00127 0.0360849 -0.0397313 0.00127 0.038636 -0.0397313 0 0.0360849 -0.0397313 0 0.0360849 -0.0397313 0.00127 0.0354289 -0.0391344 0.00127 0.0360849 -0.0397313 2.22045e-19 0.0354289 -0.0391344 2.22045e-19 0.0354289 -0.0391344 0.00127 0.0321805 -0.0391344 0.00127 0.0354289 -0.0391344 0 0.0321805 -0.0391344 0.00127 0.0361662 -0.0404659 0.00127 0.0321805 -0.0412644 0.00127 0.0346493 -0.0412644 0.00127 0.0399539 -0.0391998 0.00127 0.0391196 -0.0391998 0.00127 0.038636 -0.0397313 0.00127 0.0399539 -0.0409061 0.00127 0.0321805 -0.0391344 0.00127 0.038636 -0.0404659 0.00127 0.0391196 -0.0409061 0.00127 0.0360849 -0.0397313 0.00127 0.0354289 -0.0391344 0 0.0360849 -0.0397313 0 0.0321805 -0.0391344 2.22045e-19 0.0354289 -0.0391344 0 0.0399539 -0.0391998 2.22045e-19 0.038636 -0.0397313 0 0.0391196 -0.0391998 0 0.0321805 -0.0412644 0 0.0361662 -0.0404659 0 0.0346493 -0.0412644 0 0.038636 -0.0404659 0 0.0399539 -0.0409061 -6.66134e-19 0.0391196 -0.0409061</float_array>
          <technique_common>
            <accessor count="72" source="#ID37" stride="3">
              <param name="X" type="float"/>
              <param name="Y" type="float"/>
              <param name="Z" type="float"/>
            </accessor>
          </technique_common>
        </source>
        <source id="ID38">
          <float_array count="216" id="ID39">0 -1 0 0 -1 0 0 -1 0 0 -1 0 -0 -0 -1 -0 -0 -1 -0 -0 -1 -0 -0 -1 0 0.465779 -0.884901 0 0.465779 -0.884901 0 0.465779 -0.884901 0 0.465779 -0.884901 -0 -1.4048e-15 -1 -0 -1.4048e-15 -1 -0 -1.4048e-15 -1 -0 -1.4048e-15 -1 -0 -0.673024 -0.739621 -0 -0.673024 -0.739621 -0 -0.673024 -0.739621 -0 -0.673024 -0.739621 -0 -0 -1 -0 -0 -1 -0 -0 -1 -0 -0 -1 0 1 0 0 1 0 0 1 0 0 1 0 0 0 1 0 0 1 0 0 1 0 0 1 0 -0.739621 0.673024 0 -0.739621 0.673024 0 -0.739621 0.673024 0 -0.739621 0.673024 0 1.35999e-15 1 0 1.35999e-15 1 0 1.35999e-15 1 0 1.35999e-15 1 0 0.673024 0.739621 0 0.673024 0.739621 0 0.673024 0.739621 0 0.673024 0.739621 0 1.06805e-15 1 0 1.06805e-15 1 0 1.06805e-15 1 0 1.06805e-15 1 1 0 0 1 0 0 1 0 0 1 0 0 1 0 0 1 0 0 1 0 0 1 0 0 1 0 0 1 0 0 1 0 0 1 0 0 -1 -0 -0 -1 -0 -0 -1 -0 -0 -1 -0 -0 -1 -0 -0 -1 -0 -0 -1 -0 -0 -1 -0 -0 -1 -0 -0 -1 -0 -0 -1 -0 -0 -1 -0 -0</float_array>
          <technique_common>
            <accessor count="72" source="#ID39" stride="3">
              <param name="X" type="float"/>
              <param name="Y" type="float"/>
              <param name="Z" type="float"/>
            </accessor>
          </technique_common>
        </source>
        <vertices id="ID40">
          <input semantic="POSITION" source="#ID36"/>
          <input semantic="NORMAL" source="#ID38"/>
        </vertices>
        <triangles count="44" material="ID9">
          <input offset="0" semantic="VERTEX" source="#ID40"/>
          <p>0 1 2 0 2 3 4 5 6 4 7 5 8 9 10 8 11 9 12 13 14 12 15 13 16 17 18 16 19 17 20 21 22 20 23 21 24 25 26 24 27 25 28 29 30 28 31 29 32 33 34 32 35 33 36 37 38 36 39 37 40 41 42 40 43 41 44 45 46 44 47 45 48 49 50 51 52 53 53 54 51 49 48 55 56 57 54 53 56 54 48 56 53 55 48 58 48 53 58 59 55 58 60 61 62 63 64 65 66 67 68 69 64 70 70 64 63 69 70 71 60 64 67 67 64 69 67 66 61 60 67 61</p>
        </triangles>
      </mesh>
    </geometry>
    <geometry id="ID41">
      <mesh>
        <source id="ID42">
          <float_array count="360" id="ID43">0.0254 2.4869e-17 -0.022079 3.55271e-18 0.0321592 -0.0513425 0.0254 0.0321592 -0.0513425 3.55271e-18 2.4869e-17 -0.022079 3.55271e-18 0.0321592 -0.0513425 0 0.0321592 -0.0552109 0.0254 0.0321592 -0.0552109 0.0254 0.0321592 -0.0513425 0.0254 0.0321592 -0.0552109 0 0.0364104 -0.0552109 0.0254 0.0364104 -0.0552109 0 0.0321592 -0.0552109 0 0.0364104 -0.0552109 0.0254 0.0364104 -0.047479 0.0254 0.0364104 -0.0552109 0 0.0364104 -0.047479 0 0.0364104 -0.047479 0.0254 0.0327192 -0.047479 0.0254 0.0364104 -0.047479 0 0.0327192 -0.047479 0.0254 0.0327192 -0.047479 0 0.0327192 -0.042399 0.0254 0.0327192 -0.042399 0 0.0327192 -0.047479 0 0.0327192 -0.042399 0.0254 0.0287629 -0.042399 0.0254 0.0327192 -0.042399 0 0.0287629 -0.042399 0.0254 0.0287629 -0.042399 0 0.0287629 -0.037319 0.0254 0.0287629 -0.037319 0 0.0287629 -0.042399 0 0.0287629 -0.037319 0.0254 0.023817 -0.037319 0.0254 0.0287629 -0.037319 0 0.023817 -0.037319 0.0254 0.023817 -0.037319 0 0.023817 -0.032239 0.0254 0.023817 -0.032239 0 0.023817 -0.037319 0 0.023817 -0.032239 0.0254 0.0193585 -0.032239 0.0254 0.023817 -0.032239 0 0.0193585 -0.032239 0.0254 0.0193585 -0.032239 0 0.0193585 -0.027159 0.0254 0.0193585 -0.027159 0 0.0193585 -0.032239 0 0.0193585 -0.027159 0.0254 0.0139635 -0.027159 0.0254 0.0193585 -0.027159 0 0.0139635 -0.027159 0.0254 0.0139635 -0.027159 0 0.0139635 -0.022079 0.0254 0.0139635 -0.022079 0 0.0139635 -0.027159 0 0.0139635 -0.022079 0.0254 0.00893853 -0.022079 0.0254 0.0139635 -0.022079 0 0.00893853 -0.022079 0.0254 0.00893853 -0.022079 0 0.00893853 -0.016999 0.0254 0.00893853 -0.016999 0 0.00893853 -0.022079 0 0.00893853 -0.016999 0.0254 0.00400094 -0.016999 0.0254 0.00893853 -0.016999 0 0.00400094 -0.016999 0.0254 0.00400094 -0.016999 0 0.00400094 -0.011919 0.0254 0.00400094 -0.011919 0 0.00400094 -0.016999 0 0.00400094 -0.011919 0.0254 0 -0.011919 0.0254 0.00400094 -0.011919 0 0 -0.011919 0 0 -0.011919 3.55271e-18 2.4869e-17 -0.022079 0.0254 2.4869e-17 -0.022079 0.0254 0 -0.011919 0.0254 0.00400094 -0.016999 0.0254 0 -0.011919 0.0254 2.4869e-17 -0.022079 0.0254 0.0321592 -0.0513425 0.0254 0.0364104 -0.0552109 0.0254 0.0364104 -0.047479 0.0254 0.0321592 -0.0552109 0.0254 0.0327192 -0.047479 0.0254 0.0327192 -0.042399 0.0254 0.0287629 -0.042399 0.0254 0.023817 -0.037319 0.0254 0.0287629 -0.037319 0.0254 0.0193585 -0.032239 0.0254 0.023817 -0.032239 0.0254 0.0139635 -0.027159 0.0254 0.0193585 -0.027159 0.0254 0.00893853 -0.022079 0.0254 0.0139635 -0.022079 0.0254 0.00893853 -0.016999 0.0254 0.00400094 -0.011919 3.55271e-18 2.4869e-17 -0.022079 0 0.0193585 -0.032239 0 0.023817 -0.037319 0 0.0364104 -0.0552109 0 0.0321592 -0.0552109 3.55271e-18 0.0321592 -0.0513425 0 0.0364104 -0.047479 0 0.0287629 -0.042399 0 0.023817 -0.032239 0 0.0327192 -0.047479 0 0.0327192 -0.042399 0 0.0287629 -0.037319 0 0.0193585 -0.027159 0 0.0139635 -0.027159 0 0.0139635 -0.022079 0 0.00893853 -0.022079 0 0.00893853 -0.016999 0 0.00400094 -0.016999 0 0.00400094 -0.011919 0 0 -0.011919</float_array>
          <technique_common>
            <accessor count="120" source="#ID43" stride="3">
              <param name="X" type="float"/>
              <param name="Y" type="float"/>
              <param name="Z" type="float"/>
            </accessor>
          </technique_common>
        </source>
        <source id="ID44">
          <float_array count="360" id="ID45">0 -0.673024 -0.739621 0 -0.673024 -0.739621 0 -0.673024 -0.739621 0 -0.673024 -0.739621 0 -1 0 0 -1 0 0 -1 0 0 -1 0 0 0 -1 0 0 -1 0 0 -1 0 0 -1 0 1 0 0 1 0 0 1 0 0 1 0 0 0 1 0 0 1 0 0 1 0 0 1 0 1 0 0 1 0 0 1 0 0 1 0 0 0 1 0 0 1 0 0 1 0 0 1 0 1 0 0 1 0 0 1 0 0 1 0 0 0 1 0 0 1 0 0 1 0 0 1 0 1 0 0 1 0 0 1 0 0 1 0 0 0 1 0 0 1 0 0 1 0 0 1 0 1 0 0 1 0 0 1 0 0 1 0 0 0 1 0 0 1 0 0 1 0 0 1 0 1 0 0 1 0 0 1 0 0 1 0 0 0 1 0 0 1 0 0 1 0 0 1 0 1 0 0 1 0 0 1 0 0 1 0 0 0 1 0 0 1 0 0 1 0 0 1 0 1 0 0 1 0 0 1 0 0 1 0 0 0 1 0 0 1 0 0 1 0 0 1 0 -1 0 0 -1 0 0 -1 0 0 -1 0 1 0 0 1 0 0 1 0 0 1 0 0 1 0 0 1 0 0 1 0 0 1 0 0 1 0 0 1 0 0 1 0 0 1 0 0 1 0 0 1 0 0 1 0 0 1 0 0 1 0 0 1 0 0 1 0 0 1 0 0 -1 -0 -0 -1 -0 -0 -1 -0 -0 -1 -0 -0 -1 -0 -0 -1 -0 -0 -1 -0 -0 -1 -0 -0 -1 -0 -0 -1 -0 -0 -1 -0 -0 -1 -0 -0 -1 -0 -0 -1 -0 -0 -1 -0 -0 -1 -0 -0 -1 -0 -0 -1 -0 -0 -1 -0 -0 -1 -0 -0</float_array>
          <technique_common>
            <accessor count="120" source="#ID45" stride="3">
              <param name="X" type="float"/>
              <param name="Y" type="float"/>
              <param name="Z" type="float"/>
            </accessor>
          </technique_common>
        </source>
        <vertices id="ID46">
          <input semantic="POSITION" source="#ID42"/>
          <input semantic="NORMAL" source="#ID44"/>
        </vertices>
        <triangles count="76" material="ID47">
          <input offset="0" semantic="VERTEX" source="#ID46"/>
          <p>0 1 2 1 0 3 4 5 6 4 6 7 8 9 10 9 8 11 12 13 14 13 12 15 16 17 18 16 19 17 20 21 22 20 23 21 24 25 26 24 27 25 28 29 30 28 31 29 32 33 34 32 35 33 36 37 38 36 39 37 40 41 42 40 43 41 44 45 46 44 47 45 48 49 50 48 51 49 52 53 54 52 55 53 56 57 58 56 59 57 60 61 62 60 63 61 64 65 66 64 67 65 68 69 70 68 71 69 72 73 74 72 75 73 76 77 78 76 78 79 80 81 82 83 84 85 84 83 86 87 88 89 83 85 87 83 89 90 87 89 83 83 90 82 89 91 90 82 90 92 90 93 92 82 92 94 92 95 94 82 94 96 94 97 96 98 80 96 80 99 81 96 80 82 100 101 102 103 104 105 105 106 103 105 102 107 108 102 101 109 107 110 105 109 106 102 111 107 109 105 107 102 105 100 112 101 113 100 113 101 114 113 115 100 115 113 116 115 117 100 117 115 118 117 119 100 119 117</p>
        </triangles>
      </mesh>
    </geometry>
    <geometry id="ID48">
      <mesh>
        <source id="ID49">
          <float_array count="216" id="ID50">0 0.0152728 -0.0237491 0 0.0152728 -0.0258791 0.00127 0.0152728 -0.0258791 0.00127 0.0152728 -0.0237491 0 0.0152728 -0.0258791 0.00127 0.0177416 -0.0258791 0.00127 0.0152728 -0.0258791 0 0.0177416 -0.0258791 0 0.0177416 -0.0258791 0.00127 0.0192585 -0.0250806 0.00127 0.0177416 -0.0258791 0 0.0192585 -0.0250806 0 0.0192585 -0.0250806 0.00127 0.0217282 -0.0250806 0.00127 0.0192585 -0.0250806 0 0.0217282 -0.0250806 0 0.0217282 -0.0250806 0.00127 0.0222119 -0.0255207 0.00127 0.0217282 -0.0250806 -6.66134e-19 0.0222119 -0.0255207 -6.66134e-19 0.0222119 -0.0255207 0.00127 0.0230462 -0.0255207 0.00127 0.0222119 -0.0255207 0 0.0230462 -0.0255207 0.00127 0.0230462 -0.0255207 0 0.0230462 -0.0238144 0.00127 0.0230462 -0.0238144 0 0.0230462 -0.0255207 0 0.0230462 -0.0238144 0.00127 0.0222119 -0.0238144 0.00127 0.0230462 -0.0238144 0 0.0222119 -0.0238144 0 0.0222119 -0.0238144 0.00127 0.0217282 -0.024346 0.00127 0.0222119 -0.0238144 2.22045e-19 0.0217282 -0.024346 2.22045e-19 0.0217282 -0.024346 0.00127 0.0191771 -0.024346 0.00127 0.0217282 -0.024346 0 0.0191771 -0.024346 0 0.0191771 -0.024346 0.00127 0.0185212 -0.0237491 0.00127 0.0191771 -0.024346 2.22045e-19 0.0185212 -0.0237491 2.22045e-19 0.0185212 -0.0237491 0.00127 0.0152728 -0.0237491 0.00127 0.0185212 -0.0237491 0 0.0152728 -0.0237491 0.00127 0.0192585 -0.0250806 0.00127 0.0152728 -0.0258791 0.00127 0.0177416 -0.0258791 0.00127 0.0230462 -0.0238144 0.00127 0.0222119 -0.0238144 0.00127 0.0217282 -0.024346 0.00127 0.0230462 -0.0255207 0.00127 0.0152728 -0.0237491 0.00127 0.0217282 -0.0250806 0.00127 0.0222119 -0.0255207 0.00127 0.0191771 -0.024346 0.00127 0.0185212 -0.0237491 0 0.0191771 -0.024346 0 0.0152728 -0.0237491 2.22045e-19 0.0185212 -0.0237491 0 0.0230462 -0.0238144 2.22045e-19 0.0217282 -0.024346 0 0.0222119 -0.0238144 0 0.0152728 -0.0258791 0 0.0192585 -0.0250806 0 0.0177416 -0.0258791 0 0.0217282 -0.0250806 0 0.0230462 -0.0255207 -6.66134e-19 0.0222119 -0.0255207</float_array>
          <technique_common>
            <accessor count="72" source="#ID50" stride="3">
              <param name="X" type="float"/>
              <param name="Y" type="float"/>
              <param name="Z" type="float"/>
            </accessor>
          </technique_common>
        </source>
        <source id="ID51">
          <float_array count="216" id="ID52">0 -1 0 0 -1 0 0 -1 0 0 -1 0 -0 -0 -1 -0 -0 -1 -0 -0 -1 -0 -0 -1 0 0.465779 -0.884901 0 0.465779 -0.884901 0 0.465779 -0.884901 0 0.465779 -0.884901 -0 -1.4048e-15 -1 -0 -1.4048e-15 -1 -0 -1.4048e-15 -1 -0 -1.4048e-15 -1 -0 -0.673024 -0.739621 -0 -0.673024 -0.739621 -0 -0.673024 -0.739621 -0 -0.673024 -0.739621 -0 -0 -1 -0 -0 -1 -0 -0 -1 -0 -0 -1 0 1 0 0 1 0 0 1 0 0 1 0 0 0 1 0 0 1 0 0 1 0 0 1 0 -0.739621 0.673024 0 -0.739621 0.673024 0 -0.739621 0.673024 0 -0.739621 0.673024 0 1.35999e-15 1 0 1.35999e-15 1 0 1.35999e-15 1 0 1.35999e-15 1 0 0.673024 0.739621 0 0.673024 0.739621 0 0.673024 0.739621 0 0.673024 0.739621 0 1.06805e-15 1 0 1.06805e-15 1 0 1.06805e-15 1 0 1.06805e-15 1 1 0 0 1 0 0 1 0 0 1 0 0 1 0 0 1 0 0 1 0 0 1 0 0 1 0 0 1 0 0 1 0 0 1 0 0 -1 -0 -0 -1 -0 -0 -1 -0 -0 -1 -0 -0 -1 -0 -0 -1 -0 -0 -1 -0 -0 -1 -0 -0 -1 -0 -0 -1 -0 -0 -1 -0 -0 -1 -0 -0</float_array>
          <technique_common>
            <accessor count="72" source="#ID52" stride="3">
              <param name="X" type="float"/>
              <param name="Y" type="float"/>
              <param name="Z" type="float"/>
            </accessor>
          </technique_common>
        </source>
        <vertices id="ID53">
          <input semantic="POSITION" source="#ID49"/>
          <input semantic="NORMAL" source="#ID51"/>
        </vertices>
        <triangles count="44" material="ID9">
          <input offset="0" semantic="VERTEX" source="#ID53"/>
          <p>0 1 2 0 2 3 4 5 6 4 7 5 8 9 10 8 11 9 12 13 14 12 15 13 16 17 18 16 19 17 20 21 22 20 23 21 24 25 26 24 27 25 28 29 30 28 31 29 32 33 34 32 35 33 36 37 38 36 39 37 40 41 42 40 43 41 44 45 46 44 47 45 48 49 50 51 52 53 53 54 51 49 48 55 56 57 54 53 56 54 48 56 53 55 48 58 48 53 58 59 55 58 60 61 62 63 64 65 66 67 68 69 64 70 70 64 63 69 70 71 60 64 67 67 64 69 67 66 61 60 67 61</p>
        </triangles>
      </mesh>
    </geometry>
    <geometry id="ID54">
      <mesh>
        <source id="ID55">
          <float_array count="216" id="ID56">0 0.0378164 -0.0442628 0 0.0378164 -0.0463929 0.00127 0.0378164 -0.0463929 0.00127 0.0378164 -0.0442628 0 0.0378164 -0.0463929 0.00127 0.0402852 -0.0463929 0.00127 0.0378164 -0.0463929 0 0.0402852 -0.0463929 0 0.0402852 -0.0463929 0.00127 0.0418021 -0.0455944 0.00127 0.0402852 -0.0463929 0 0.0418021 -0.0455944 0 0.0418021 -0.0455944 0.00127 0.0442719 -0.0455944 0.00127 0.0418021 -0.0455944 0 0.0442719 -0.0455944 0 0.0442719 -0.0455944 0.00127 0.0447555 -0.0460345 0.00127 0.0442719 -0.0455944 -6.66134e-19 0.0447555 -0.0460345 -6.66134e-19 0.0447555 -0.0460345 0.00127 0.0455898 -0.0460345 0.00127 0.0447555 -0.0460345 0 0.0455898 -0.0460345 0.00127 0.0455898 -0.0460345 0 0.0455898 -0.0443282 0.00127 0.0455898 -0.0443282 0 0.0455898 -0.0460345 0 0.0455898 -0.0443282 0.00127 0.0447555 -0.0443282 0.00127 0.0455898 -0.0443282 0 0.0447555 -0.0443282 0 0.0447555 -0.0443282 0.00127 0.0442719 -0.0448597 0.00127 0.0447555 -0.0443282 2.22045e-19 0.0442719 -0.0448597 2.22045e-19 0.0442719 -0.0448597 0.00127 0.0417208 -0.0448597 0.00127 0.0442719 -0.0448597 0 0.0417208 -0.0448597 0 0.0417208 -0.0448597 0.00127 0.0410648 -0.0442628 0.00127 0.0417208 -0.0448597 2.22045e-19 0.0410648 -0.0442628 2.22045e-19 0.0410648 -0.0442628 0.00127 0.0378164 -0.0442628 0.00127 0.0410648 -0.0442628 0 0.0378164 -0.0442628 0.00127 0.0418021 -0.0455944 0.00127 0.0378164 -0.0463929 0.00127 0.0402852 -0.0463929 0.00127 0.0455898 -0.0443282 0.00127 0.0447555 -0.0443282 0.00127 0.0442719 -0.0448597 0.00127 0.0455898 -0.0460345 0.00127 0.0378164 -0.0442628 0.00127 0.0442719 -0.0455944 0.00127 0.0447555 -0.0460345 0.00127 0.0417208 -0.0448597 0.00127 0.0410648 -0.0442628 0 0.0417208 -0.0448597 0 0.0378164 -0.0442628 2.22045e-19 0.0410648 -0.0442628 0 0.0455898 -0.0443282 2.22045e-19 0.0442719 -0.0448597 0 0.0447555 -0.0443282 0 0.0378164 -0.0463929 0 0.0418021 -0.0455944 0 0.0402852 -0.0463929 0 0.0442719 -0.0455944 0 0.0455898 -0.0460345 -6.66134e-19 0.0447555 -0.0460345</float_array>
          <technique_common>
            <accessor count="72" source="#ID56" stride="3">
              <param name="X" type="float"/>
              <param name="Y" type="float"/>
              <param name="Z" type="float"/>
            </accessor>
          </technique_common>
        </source>
        <source id="ID57">
          <float_array count="216" id="ID58">0 -1 0 0 -1 0 0 -1 0 0 -1 0 -0 -0 -1 -0 -0 -1 -0 -0 -1 -0 -0 -1 0 0.465779 -0.884901 0 0.465779 -0.884901 0 0.465779 -0.884901 0 0.465779 -0.884901 -0 -1.4048e-15 -1 -0 -1.4048e-15 -1 -0 -1.4048e-15 -1 -0 -1.4048e-15 -1 -0 -0.673024 -0.739621 -0 -0.673024 -0.739621 -0 -0.673024 -0.739621 -0 -0.673024 -0.739621 -0 -0 -1 -0 -0 -1 -0 -0 -1 -0 -0 -1 0 1 0 0 1 0 0 1 0 0 1 0 0 0 1 0 0 1 0 0 1 0 0 1 0 -0.739621 0.673024 0 -0.739621 0.673024 0 -0.739621 0.673024 0 -0.739621 0.673024 0 1.35999e-15 1 0 1.35999e-15 1 0 1.35999e-15 1 0 1.35999e-15 1 0 0.673024 0.739621 0 0.673024 0.739621 0 0.673024 0.739621 0 0.673024 0.739621 0 1.06805e-15 1 0 1.06805e-15 1 0 1.06805e-15 1 0 1.06805e-15 1 1 0 0 1 0 0 1 0 0 1 0 0 1 0 0 1 0 0 1 0 0 1 0 0 1 0 0 1 0 0 1 0 0 1 0 0 -1 -0 -0 -1 -0 -0 -1 -0 -0 -1 -0 -0 -1 -0 -0 -1 -0 -0 -1 -0 -0 -1 -0 -0 -1 -0 -0 -1 -0 -0 -1 -0 -0 -1 -0 -0</float_array>
          <technique_common>
            <accessor count="72" source="#ID58" stride="3">
              <param name="X" type="float"/>
              <param name="Y" type="float"/>
              <param name="Z" type="float"/>
            </accessor>
          </technique_common>
        </source>
        <vertices id="ID59">
          <input semantic="POSITION" source="#ID55"/>
          <input semantic="NORMAL" source="#ID57"/>
        </vertices>
        <triangles count="44" material="ID9">
          <input offset="0" semantic="VERTEX" source="#ID59"/>
          <p>0 1 2 0 2 3 4 5 6 4 7 5 8 9 10 8 11 9 12 13 14 12 15 13 16 17 18 16 19 17 20 21 22 20 23 21 24 25 26 24 27 25 28 29 30 28 31 29 32 33 34 32 35 33 36 37 38 36 39 37 40 41 42 40 43 41 44 45 46 44 47 45 48 49 50 51 52 53 53 54 51 49 48 55 56 57 54 53 56 54 48 56 53 55 48 58 48 53 58 59 55 58 60 61 62 63 64 65 66 67 68 69 64 70 70 64 63 69 70 71 60 64 67 67 64 69 67 66 61 60 67 61</p>
        </triangles>
      </mesh>
    </geometry>
    <geometry id="ID60">
      <mesh>
        <source id="ID61">
          <float_array count="216" id="ID62">0 0.0209087 -0.0288775 0 0.0209087 -0.0310075 0.00127 0.0209087 -0.0310075 0.00127 0.0209087 -0.0288775 0 0.0209087 -0.0310075 0.00127 0.0233775 -0.0310075 0.00127 0.0209087 -0.0310075 0 0.0233775 -0.0310075 0 0.0233775 -0.0310075 0.00127 0.0248944 -0.0302091 0.00127 0.0233775 -0.0310075 0 0.0248944 -0.0302091 0 0.0248944 -0.0302091 0.00127 0.0273641 -0.0302091 0.00127 0.0248944 -0.0302091 0 0.0273641 -0.0302091 0 0.0273641 -0.0302091 0.00127 0.0278478 -0.0306492 0.00127 0.0273641 -0.0302091 -6.66134e-19 0.0278478 -0.0306492 -6.66134e-19 0.0278478 -0.0306492 0.00127 0.0286821 -0.0306492 0.00127 0.0278478 -0.0306492 0 0.0286821 -0.0306492 0.00127 0.0286821 -0.0306492 0 0.0286821 -0.0289429 0.00127 0.0286821 -0.0289429 0 0.0286821 -0.0306492 0 0.0286821 -0.0289429 0.00127 0.0278478 -0.0289429 0.00127 0.0286821 -0.0289429 0 0.0278478 -0.0289429 0 0.0278478 -0.0289429 0.00127 0.0273641 -0.0294744 0.00127 0.0278478 -0.0289429 2.22045e-19 0.0273641 -0.0294744 2.22045e-19 0.0273641 -0.0294744 0.00127 0.0248131 -0.0294744 0.00127 0.0273641 -0.0294744 0 0.0248131 -0.0294744 0 0.0248131 -0.0294744 0.00127 0.0241571 -0.0288775 0.00127 0.0248131 -0.0294744 2.22045e-19 0.0241571 -0.0288775 2.22045e-19 0.0241571 -0.0288775 0.00127 0.0209087 -0.0288775 0.00127 0.0241571 -0.0288775 0 0.0209087 -0.0288775 0.00127 0.0248944 -0.0302091 0.00127 0.0209087 -0.0310075 0.00127 0.0233775 -0.0310075 0.00127 0.0286821 -0.0289429 0.00127 0.0278478 -0.0289429 0.00127 0.0273641 -0.0294744 0.00127 0.0286821 -0.0306492 0.00127 0.0209087 -0.0288775 0.00127 0.0273641 -0.0302091 0.00127 0.0278478 -0.0306492 0.00127 0.0248131 -0.0294744 0.00127 0.0241571 -0.0288775 0 0.0248131 -0.0294744 0 0.0209087 -0.0288775 2.22045e-19 0.0241571 -0.0288775 0 0.0286821 -0.0289429 2.22045e-19 0.0273641 -0.0294744 0 0.0278478 -0.0289429 0 0.0209087 -0.0310075 0 0.0248944 -0.0302091 0 0.0233775 -0.0310075 0 0.0273641 -0.0302091 0 0.0286821 -0.0306492 -6.66134e-19 0.0278478 -0.0306492</float_array>
          <technique_common>
            <accessor count="72" source="#ID62" stride="3">
              <param name="X" type="float"/>
              <param name="Y" type="float"/>
              <param name="Z" type="float"/>
            </accessor>
          </technique_common>
        </source>
        <source id="ID63">
          <float_array count="216" id="ID64">0 -1 0 0 -1 0 0 -1 0 0 -1 0 -0 -0 -1 -0 -0 -1 -0 -0 -1 -0 -0 -1 0 0.465779 -0.884901 0 0.465779 -0.884901 0 0.465779 -0.884901 0 0.465779 -0.884901 -0 -1.4048e-15 -1 -0 -1.4048e-15 -1 -0 -1.4048e-15 -1 -0 -1.4048e-15 -1 -0 -0.673024 -0.739621 -0 -0.673024 -0.739621 -0 -0.673024 -0.739621 -0 -0.673024 -0.739621 -0 -0 -1 -0 -0 -1 -0 -0 -1 -0 -0 -1 0 1 0 0 1 0 0 1 0 0 1 0 0 0 1 0 0 1 0 0 1 0 0 1 0 -0.739621 0.673024 0 -0.739621 0.673024 0 -0.739621 0.673024 0 -0.739621 0.673024 0 1.35999e-15 1 0 1.35999e-15 1 0 1.35999e-15 1 0 1.35999e-15 1 0 0.673024 0.739621 0 0.673024 0.739621 0 0.673024 0.739621 0 0.673024 0.739621 0 1.06805e-15 1 0 1.06805e-15 1 0 1.06805e-15 1 0 1.06805e-15 1 1 0 0 1 0 0 1 0 0 1 0 0 1 0 0 1 0 0 1 0 0 1 0 0 1 0 0 1 0 0 1 0 0 1 0 0 -1 -0 -0 -1 -0 -0 -1 -0 -0 -1 -0 -0 -1 -0 -0 -1 -0 -0 -1 -0 -0 -1 -0 -0 -1 -0 -0 -1 -0 -0 -1 -0 -0 -1 -0 -0</float_array>
          <technique_common>
            <accessor count="72" source="#ID64" stride="3">
              <param name="X" type="float"/>
              <param name="Y" type="float"/>
              <param name="Z" type="float"/>
            </accessor>
          </technique_common>
        </source>
        <vertices id="ID65">
          <input semantic="POSITION" source="#ID61"/>
          <input semantic="NORMAL" source="#ID63"/>
        </vertices>
        <triangles count="44" material="ID9">
          <input offset="0" semantic="VERTEX" source="#ID65"/>
          <p>0 1 2 0 2 3 4 5 6 4 7 5 8 9 10 8 11 9 12 13 14 12 15 13 16 17 18 16 19 17 20 21 22 20 23 21 24 25 26 24 27 25 28 29 30 28 31 29 32 33 34 32 35 33 36 37 38 36 39 37 40 41 42 40 43 41 44 45 46 44 47 45 48 49 50 51 52 53 53 54 51 49 48 55 56 57 54 53 56 54 48 56 53 55 48 58 48 53 58 59 55 58 60 61 62 63 64 65 66 67 68 69 64 70 70 64 63 69 70 71 60 64 67 67 64 69 67 66 61 60 67 61</p>
        </triangles>
      </mesh>
    </geometry>
  </library_geometries>

  <library_visual_scenes>
    <visual_scene id="ID1">
      <node id="ID2" name="683cea19acba11596aeaaa51">
        <instance_geometry url="#ID3">
          <bind_material>
            <technique_common>
              <instance_material symbol="ID9" target="#ID9"/>
            </technique_common>
          </bind_material>
        </instance_geometry>
        <instance_geometry url="#ID10">
          <bind_material>
            <technique_common>
              <instance_material symbol="ID16" target="#ID16"/>
            </technique_common>
          </bind_material>
        </instance_geometry>
        <instance_geometry url="#ID17">
          <bind_material>
            <technique_common>
              <instance_material symbol="ID9" target="#ID9"/>
            </technique_common>
          </bind_material>
        </instance_geometry>
        <instance_geometry url="#ID23">
          <bind_material>
            <technique_common>
              <instance_material symbol="ID9" target="#ID9"/>
            </technique_common>
          </bind_material>
        </instance_geometry>
        <instance_geometry url="#ID29">
          <bind_material>
            <technique_common>
              <instance_material symbol="ID9" target="#ID9"/>
            </technique_common>
          </bind_material>
        </instance_geometry>
        <instance_geometry url="#ID35">
          <bind_material>
            <technique_common>
              <instance_material symbol="ID9" target="#ID9"/>
            </technique_common>
          </bind_material>
        </instance_geometry>
        <instance_geometry url="#ID41">
          <bind_material>
            <technique_common>
              <instance_material symbol="ID47" target="#ID47"/>
            </technique_common>
          </bind_material>
        </instance_geometry>
        <instance_geometry url="#ID48">
          <bind_material>
            <technique_common>
              <instance_material symbol="ID9" target="#ID9"/>
            </technique_common>
          </bind_material>
        </instance_geometry>
        <instance_geometry url="#ID54">
          <bind_material>
            <technique_common>
              <instance_material symbol="ID9" target="#ID9"/>
            </technique_common>
          </bind_material>
        </instance_geometry>
        <instance_geometry url="#ID60">
          <bind_material>
            <technique_common>
              <instance_material symbol="ID9" target="#ID9"/>
            </technique_common>
          </bind_material>
        </instance_geometry>
      </node>
    </visual_scene>
  </library_visual_scenes>

  <scene>
    <instance_visual_scene url="#ID1"/>
  </scene>

  <library_nodes/>

</COLLADA>
