<?xml version="1.0" encoding="UTF-8" standalone="no" ?>
<COLLADA version="1.4.1" xmlns="http://www.collada.org/2005/11/COLLADASchema">

  <asset>
    <contributor>
      <authoring_tool>ONSHAPE BY PTC INC, 1.198</authoring_tool>
    </contributor>
    <created>2025-06-01T22:45:30</created>
    <modified>2025-06-01T22:45:30</modified>
    <unit meter="1" name="meters"/>
    <up_axis>Z_UP</up_axis>
  </asset>

  <library_materials>
    <material id="ID9" name="ID9">
      <instance_effect url="#ID9-fx"/>
    </material>
    <material id="ID28" name="ID28">
      <instance_effect url="#ID28-fx"/>
    </material>
    <material id="ID41" name="ID41">
      <instance_effect url="#ID41-fx"/>
    </material>
    <material id="ID78" name="ID78">
      <instance_effect url="#ID78-fx"/>
    </material>
    <material id="ID85" name="ID85">
      <instance_effect url="#ID85-fx"/>
    </material>
    <material id="ID92" name="ID92">
      <instance_effect url="#ID92-fx"/>
    </material>
  </library_materials>

  <library_effects>
    <effect id="ID9-fx" name="ID9">
      <profile_COMMON>
        <technique sid="COMMON">
          <lambert>
            <diffuse>
              <color sid="diffuse">0.647059 0.647059 0.647059 1</color>
            </diffuse>
            <transparent opaque="A_ONE">
              <color sid="transparent">1 1 1 1</color>
            </transparent>
            <transparency>
              <float sid="transparency">1</float>
            </transparency>
          </lambert>
        </technique>
        <extra>
          <technique profile="OTHER">
            <double_sided>1</double_sided>
          </technique>
        </extra>
      </profile_COMMON>
    </effect>
    <effect id="ID28-fx" name="ID28">
      <profile_COMMON>
        <technique sid="COMMON">
          <lambert>
            <diffuse>
              <color sid="diffuse">0.764706 0.886275 0.94902 1</color>
            </diffuse>
            <transparent opaque="A_ONE">
              <color sid="transparent">1 1 1 1</color>
            </transparent>
            <transparency>
              <float sid="transparency">1</float>
            </transparency>
          </lambert>
        </technique>
        <extra>
          <technique profile="OTHER">
            <double_sided>1</double_sided>
          </technique>
        </extra>
      </profile_COMMON>
    </effect>
    <effect id="ID41-fx" name="ID41">
      <profile_COMMON>
        <technique sid="COMMON">
          <lambert>
            <diffuse>
              <color sid="diffuse">0.615686 0.811765 0.92549 1</color>
            </diffuse>
            <transparent opaque="A_ONE">
              <color sid="transparent">1 1 1 1</color>
            </transparent>
            <transparency>
              <float sid="transparency">1</float>
            </transparency>
          </lambert>
        </technique>
        <extra>
          <technique profile="OTHER">
            <double_sided>1</double_sided>
          </technique>
        </extra>
      </profile_COMMON>
    </effect>
    <effect id="ID78-fx" name="ID78">
      <profile_COMMON>
        <technique sid="COMMON">
          <lambert>
            <diffuse>
              <color sid="diffuse">0.968627 0.52549 0.00392157 1</color>
            </diffuse>
            <transparent opaque="A_ONE">
              <color sid="transparent">1 1 1 1</color>
            </transparent>
            <transparency>
              <float sid="transparency">1</float>
            </transparency>
          </lambert>
        </technique>
        <extra>
          <technique profile="OTHER">
            <double_sided>1</double_sided>
          </technique>
        </extra>
      </profile_COMMON>
    </effect>
    <effect id="ID85-fx" name="ID85">
      <profile_COMMON>
        <technique sid="COMMON">
          <lambert>
            <diffuse>
              <color sid="diffuse">0.231373 0.376471 0.705882 1</color>
            </diffuse>
            <transparent opaque="A_ONE">
              <color sid="transparent">1 1 1 1</color>
            </transparent>
            <transparency>
              <float sid="transparency">1</float>
            </transparency>
          </lambert>
        </technique>
        <extra>
          <technique profile="OTHER">
            <double_sided>1</double_sided>
          </technique>
        </extra>
      </profile_COMMON>
    </effect>
    <effect id="ID92-fx" name="ID92">
      <profile_COMMON>
        <technique sid="COMMON">
          <lambert>
            <diffuse>
              <color sid="diffuse">0.913725 0.913725 0.913725 1</color>
            </diffuse>
            <transparent opaque="A_ONE">
              <color sid="transparent">1 1 1 1</color>
            </transparent>
            <transparency>
              <float sid="transparency">1</float>
            </transparency>
          </lambert>
        </technique>
        <extra>
          <technique profile="OTHER">
            <double_sided>1</double_sided>
          </technique>
        </extra>
      </profile_COMMON>
    </effect>
  </library_effects>

  <library_geometries>
    <geometry id="ID3">
      <mesh>
        <source id="ID4">
          <float_array count="216" id="ID5">0.0302534 0.00254 0.0125314 0.0312254 0.00254 0.0101847 0.0343415 0.00254 0.0114754 0.0333694 0.00254 0.0138221 0.0302534 0.00254 0.0125314 0.0302534 0.00837702 0.0125314 0.0312254 0.00837702 0.0101847 0.0312254 0.00254 0.0101847 0.0302534 0.00837702 0.0125314 0.0313368 0.0124963 0.0129801 0.0323088 0.0124963 0.0106335 0.0312254 0.00837702 0.0101847 0.0313368 0.0124963 0.0129801 0.0313368 0.0202396 0.0129801 0.0323088 0.0202396 0.0106335 0.0323088 0.0124963 0.0106335 0.0313368 0.0202396 0.0129801 0.0307309 0.0216784 0.0127291 0.0317029 0.0216784 0.0103825 0.0323088 0.0202396 0.0106335 0.0307309 0.0216784 0.0127291 0.0307309 0.0236155 0.0127291 0.0317029 0.0236155 0.0103825 0.0317029 0.0216784 0.0103825 0.0327385 0.0236155 0.0135607 0.0337106 0.0236155 0.0112141 0.0317029 0.0236155 0.0103825 0.0307309 0.0236155 0.0127291 0.0327385 0.0236155 0.0135607 0.0327385 0.0216784 0.0135607 0.0337106 0.0216784 0.0112141 0.0337106 0.0236155 0.0112141 0.0327385 0.0216784 0.0135607 0.0321536 0.0202396 0.0133184 0.0331256 0.0202396 0.0109718 0.0337106 0.0216784 0.0112141 0.0321536 0.0202396 0.0133184 0.0321536 0.0124963 0.0133184 0.0331256 0.0124963 0.0109718 0.0331256 0.0202396 0.0109718 0.0321536 0.0124963 0.0133184 0.0333694 0.00837702 0.0138221 0.0343415 0.00837702 0.0114754 0.0331256 0.0124963 0.0109718 0.0333694 0.00837702 0.0138221 0.0333694 0.00254 0.0138221 0.0343415 0.00254 0.0114754 0.0343415 0.00837702 0.0114754 0.0323088 0.0124963 0.0106335 0.0312254 0.00254 0.0101847 0.0312254 0.00837702 0.0101847 0.0323088 0.0202396 0.0106335 0.0317029 0.0216784 0.0103825 0.0317029 0.0236155 0.0103825 0.0337106 0.0236155 0.0112141 0.0337106 0.0216784 0.0112141 0.0331256 0.0202396 0.0109718 0.0331256 0.0124963 0.0109718 0.0343415 0.00254 0.0114754 0.0343415 0.00837702 0.0114754 0.0321536 0.0124963 0.0133184 0.0333694 0.00254 0.0138221 0.0333694 0.00837702 0.0138221 0.0327385 0.0236155 0.0135607 0.0321536 0.0202396 0.0133184 0.0327385 0.0216784 0.0135607 0.0302534 0.00254 0.0125314 0.0313368 0.0124963 0.0129801 0.0302534 0.00837702 0.0125314 0.0313368 0.0202396 0.0129801 0.0307309 0.0236155 0.0127291 0.0307309 0.0216784 0.0127291</float_array>
          <technique_common>
            <accessor count="72" source="#ID5" stride="3">
              <param name="X" type="float"/>
              <param name="Y" type="float"/>
              <param name="Z" type="float"/>
            </accessor>
          </technique_common>
        </source>
        <source id="ID6">
          <float_array count="216" id="ID7">-1.18794e-16 -1 -4.92062e-17 -1.18794e-16 -1 -4.92062e-17 -1.18794e-16 -1 -4.92062e-17 -1.18794e-16 -1 -4.92062e-17 -0.92388 0 -0.382683 -0.92388 0 -0.382683 -0.92388 0 -0.382683 -0.92388 0 -0.382683 -0.888573 0.273807 -0.368059 -0.888573 0.273807 -0.368059 -0.888573 0.273807 -0.368059 -0.888573 0.273807 -0.368059 -0.92388 0 -0.382683 -0.92388 0 -0.382683 -0.92388 0 -0.382683 -0.92388 0 -0.382683 -0.840653 -0.414791 -0.34821 -0.840653 -0.414791 -0.34821 -0.840653 -0.414791 -0.34821 -0.840653 -0.414791 -0.34821 -0.92388 0 -0.382683 -0.92388 0 -0.382683 -0.92388 0 -0.382683 -0.92388 0 -0.382683 0 1 0 0 1 0 0 1 0 0 1 0 0.92388 0 0.382683 0.92388 0 0.382683 0.92388 0 0.382683 0.92388 0 0.382683 0.845613 -0.402808 0.350264 0.845613 -0.402808 0.350264 0.845613 -0.402808 0.350264 0.845613 -0.402808 0.350264 0.92388 0 0.382683 0.92388 0 0.382683 0.92388 0 0.382683 0.92388 0 0.382683 0.880055 0.304335 0.364531 0.880055 0.304335 0.364531 0.880055 0.304335 0.364531 0.880055 0.304335 0.364531 0.92388 0 0.382683 0.92388 0 0.382683 0.92388 0 0.382683 0.92388 0 0.382683 0.382683 0 -0.92388 0.382683 0 -0.92388 0.382683 0 -0.92388 0.382683 0 -0.92388 0.382683 0 -0.92388 0.382683 0 -0.92388 0.382683 0 -0.92388 0.382683 0 -0.92388 0.382683 0 -0.92388 0.382683 0 -0.92388 0.382683 0 -0.92388 0.382683 0 -0.92388 -0.382683 0 0.92388 -0.382683 0 0.92388 -0.382683 0 0.92388 -0.382683 0 0.92388 -0.382683 0 0.92388 -0.382683 0 0.92388 -0.382683 0 0.92388 -0.382683 0 0.92388 -0.382683 0 0.92388 -0.382683 0 0.92388 -0.382683 0 0.92388 -0.382683 0 0.92388</float_array>
          <technique_common>
            <accessor count="72" source="#ID7" stride="3">
              <param name="X" type="float"/>
              <param name="Y" type="float"/>
              <param name="Z" type="float"/>
            </accessor>
          </technique_common>
        </source>
        <vertices id="ID8">
          <input semantic="POSITION" source="#ID4"/>
          <input semantic="NORMAL" source="#ID6"/>
        </vertices>
        <triangles count="44" material="ID9">
          <input offset="0" semantic="VERTEX" source="#ID8"/>
          <p>0 1 2 0 2 3 4 5 6 6 7 4 8 9 10 10 11 8 12 13 14 14 15 12 16 17 18 18 19 16 20 21 22 22 23 20 24 25 26 24 26 27 28 29 30 30 31 28 32 33 34 34 35 32 36 37 38 38 39 36 40 41 42 42 43 40 44 45 46 46 47 44 48 49 50 51 52 53 54 55 56 48 57 49 54 51 53 54 56 51 48 51 56 49 57 58 48 56 57 59 58 57 60 61 62 63 64 65 66 67 68 64 63 69 69 63 70 69 70 71 60 64 67 67 64 69 66 61 60 67 66 60</p>
        </triangles>
      </mesh>
    </geometry>
    <geometry id="ID10">
      <mesh>
        <source id="ID11">
          <float_array count="216" id="ID12">-0.032746 0.00254 0 -0.032746 0.00254 0.00254 -0.0361188 0.00254 0.00254 -0.0361188 0.00254 0 -0.032746 0.00254 0 -0.032746 0.00837702 0 -0.032746 0.00837702 0.00254 -0.032746 0.00254 0.00254 -0.032746 0.00837702 0 -0.0339187 0.0124963 -8.88178e-19 -0.0339187 0.0124963 0.00254 -0.032746 0.00837702 0.00254 -0.0339187 0.0124963 -8.88178e-19 -0.0339187 0.0202396 0 -0.0339187 0.0202396 0.00254 -0.0339187 0.0124963 0.00254 -0.0339187 0.0202396 0 -0.0332629 0.0216784 -4.44089e-19 -0.0332629 0.0216784 0.00254 -0.0339187 0.0202396 0.00254 -0.0332629 0.0216784 -4.44089e-19 -0.0332629 0.0236155 0 -0.0332629 0.0236155 0.00254 -0.0332629 0.0216784 0.00254 -0.0354359 0.0236155 0 -0.0354359 0.0236155 0.00254 -0.0332629 0.0236155 0.00254 -0.0332629 0.0236155 0 -0.0354359 0.0236155 0 -0.0354359 0.0216784 0 -0.0354359 0.0216784 0.00254 -0.0354359 0.0236155 0.00254 -0.0354359 0.0216784 0 -0.0348028 0.0202396 0 -0.0348028 0.0202396 0.00254 -0.0354359 0.0216784 0.00254 -0.0348028 0.0202396 0 -0.0348028 0.0124963 0 -0.0348028 0.0124963 0.00254 -0.0348028 0.0202396 0.00254 -0.0348028 0.0124963 0 -0.0361188 0.00837702 1.33227e-18 -0.0361188 0.00837702 0.00254 -0.0348028 0.0124963 0.00254 -0.0361188 0.00837702 1.33227e-18 -0.0361188 0.00254 0 -0.0361188 0.00254 0.00254 -0.0361188 0.00837702 0.00254 -0.0339187 0.0124963 0.00254 -0.032746 0.00254 0.00254 -0.032746 0.00837702 0.00254 -0.0339187 0.0202396 0.00254 -0.0332629 0.0216784 0.00254 -0.0332629 0.0236155 0.00254 -0.0354359 0.0236155 0.00254 -0.0354359 0.0216784 0.00254 -0.0348028 0.0202396 0.00254 -0.0348028 0.0124963 0.00254 -0.0361188 0.00254 0.00254 -0.0361188 0.00837702 0.00254 -0.0348028 0.0124963 0 -0.0361188 0.00254 0 -0.0361188 0.00837702 1.33227e-18 -0.0354359 0.0236155 0 -0.0348028 0.0202396 0 -0.0354359 0.0216784 0 -0.032746 0.00254 0 -0.0339187 0.0124963 -8.88178e-19 -0.032746 0.00837702 0 -0.0339187 0.0202396 0 -0.0332629 0.0236155 0 -0.0332629 0.0216784 -4.44089e-19</float_array>
          <technique_common>
            <accessor count="72" source="#ID12" stride="3">
              <param name="X" type="float"/>
              <param name="Y" type="float"/>
              <param name="Z" type="float"/>
            </accessor>
          </technique_common>
        </source>
        <source id="ID13">
          <float_array count="216" id="ID14">1.28582e-16 -1 0 1.28582e-16 -1 0 1.28582e-16 -1 0 1.28582e-16 -1 0 1 0 0 1 0 0 1 0 0 1 0 0 0.961785 0.273807 0 0.961785 0.273807 0 0.961785 0.273807 0 0.961785 0.273807 0 1 0 0 1 0 0 1 0 0 1 0 0 0.909917 -0.414791 0 0.909917 -0.414791 0 0.909917 -0.414791 0 0.909917 -0.414791 0 1 0 0 1 0 0 1 0 0 1 0 0 0 1 0 0 1 0 0 1 0 0 1 0 -1 -0 -0 -1 -0 -0 -1 -0 -0 -1 -0 -0 -0.915285 -0.402808 -0 -0.915285 -0.402808 -0 -0.915285 -0.402808 -0 -0.915285 -0.402808 -0 -1 -0 -0 -1 -0 -0 -1 -0 -0 -1 -0 -0 -0.952565 0.304335 0 -0.952565 0.304335 0 -0.952565 0.304335 0 -0.952565 0.304335 0 -1 -0 -0 -1 -0 -0 -1 -0 -0 -1 -0 -0 0 0 1 0 0 1 0 0 1 0 0 1 0 0 1 0 0 1 0 0 1 0 0 1 0 0 1 0 0 1 0 0 1 0 0 1 -0 -0 -1 -0 -0 -1 -0 -0 -1 -0 -0 -1 -0 -0 -1 -0 -0 -1 -0 -0 -1 -0 -0 -1 -0 -0 -1 -0 -0 -1 -0 -0 -1 -0 -0 -1</float_array>
          <technique_common>
            <accessor count="72" source="#ID14" stride="3">
              <param name="X" type="float"/>
              <param name="Y" type="float"/>
              <param name="Z" type="float"/>
            </accessor>
          </technique_common>
        </source>
        <vertices id="ID15">
          <input semantic="POSITION" source="#ID11"/>
          <input semantic="NORMAL" source="#ID13"/>
        </vertices>
        <triangles count="44" material="ID9">
          <input offset="0" semantic="VERTEX" source="#ID15"/>
          <p>0 1 2 0 2 3 4 5 6 6 7 4 8 9 10 10 11 8 12 13 14 14 15 12 16 17 18 18 19 16 20 21 22 22 23 20 24 25 26 24 26 27 28 29 30 30 31 28 32 33 34 34 35 32 36 37 38 38 39 36 40 41 42 42 43 40 44 45 46 46 47 44 48 49 50 51 52 53 54 55 56 48 57 49 54 51 53 54 56 51 48 51 56 49 57 58 48 56 57 59 58 57 60 61 62 63 64 65 66 67 68 64 63 69 69 63 70 69 70 71 60 64 67 67 64 69 66 61 60 67 66 60</p>
        </triangles>
      </mesh>
    </geometry>
    <geometry id="ID16">
      <mesh>
        <source id="ID17">
          <float_array count="216" id="ID18">-0.0302534 0.00254 0.0125314 -0.0292814 0.00254 0.014878 -0.0323974 0.00254 0.0161687 -0.0333694 0.00254 0.0138221 -0.0302534 0.00254 0.0125314 -0.0302534 0.00837702 0.0125314 -0.0292814 0.00837702 0.014878 -0.0292814 0.00254 0.014878 -0.0302534 0.00837702 0.0125314 -0.0313368 0.0124963 0.0129801 -0.0303648 0.0124963 0.0153268 -0.0292814 0.00837702 0.014878 -0.0313368 0.0124963 0.0129801 -0.0313368 0.0202396 0.0129801 -0.0303648 0.0202396 0.0153268 -0.0303648 0.0124963 0.0153268 -0.0313368 0.0202396 0.0129801 -0.0307309 0.0216784 0.0127291 -0.0297589 0.0216784 0.0150758 -0.0303648 0.0202396 0.0153268 -0.0307309 0.0216784 0.0127291 -0.0307309 0.0236155 0.0127291 -0.0297589 0.0236155 0.0150758 -0.0297589 0.0216784 0.0150758 -0.0327385 0.0236155 0.0135607 -0.0317665 0.0236155 0.0159074 -0.0297589 0.0236155 0.0150758 -0.0307309 0.0236155 0.0127291 -0.0327385 0.0236155 0.0135607 -0.0327385 0.0216784 0.0135607 -0.0317665 0.0216784 0.0159074 -0.0317665 0.0236155 0.0159074 -0.0327385 0.0216784 0.0135607 -0.0321536 0.0202396 0.0133184 -0.0311815 0.0202396 0.0156651 -0.0317665 0.0216784 0.0159074 -0.0321536 0.0202396 0.0133184 -0.0321536 0.0124963 0.0133184 -0.0311815 0.0124963 0.0156651 -0.0311815 0.0202396 0.0156651 -0.0321536 0.0124963 0.0133184 -0.0333694 0.00837702 0.0138221 -0.0323974 0.00837702 0.0161687 -0.0311815 0.0124963 0.0156651 -0.0333694 0.00837702 0.0138221 -0.0333694 0.00254 0.0138221 -0.0323974 0.00254 0.0161687 -0.0323974 0.00837702 0.0161687 -0.0303648 0.0124963 0.0153268 -0.0292814 0.00254 0.014878 -0.0292814 0.00837702 0.014878 -0.0303648 0.0202396 0.0153268 -0.0297589 0.0216784 0.0150758 -0.0297589 0.0236155 0.0150758 -0.0317665 0.0236155 0.0159074 -0.0317665 0.0216784 0.0159074 -0.0311815 0.0202396 0.0156651 -0.0311815 0.0124963 0.0156651 -0.0323974 0.00254 0.0161687 -0.0323974 0.00837702 0.0161687 -0.0321536 0.0124963 0.0133184 -0.0333694 0.00254 0.0138221 -0.0333694 0.00837702 0.0138221 -0.0327385 0.0236155 0.0135607 -0.0321536 0.0202396 0.0133184 -0.0327385 0.0216784 0.0135607 -0.0302534 0.00254 0.0125314 -0.0313368 0.0124963 0.0129801 -0.0302534 0.00837702 0.0125314 -0.0313368 0.0202396 0.0129801 -0.0307309 0.0236155 0.0127291 -0.0307309 0.0216784 0.0127291</float_array>
          <technique_common>
            <accessor count="72" source="#ID18" stride="3">
              <param name="X" type="float"/>
              <param name="Y" type="float"/>
              <param name="Z" type="float"/>
            </accessor>
          </technique_common>
        </source>
        <source id="ID19">
          <float_array count="216" id="ID20">1.18794e-16 -1 -4.92062e-17 1.18794e-16 -1 -4.92062e-17 1.18794e-16 -1 -4.92062e-17 1.18794e-16 -1 -4.92062e-17 0.92388 0 -0.382683 0.92388 0 -0.382683 0.92388 0 -0.382683 0.92388 0 -0.382683 0.888573 0.273807 -0.368059 0.888573 0.273807 -0.368059 0.888573 0.273807 -0.368059 0.888573 0.273807 -0.368059 0.92388 0 -0.382683 0.92388 0 -0.382683 0.92388 0 -0.382683 0.92388 0 -0.382683 0.840653 -0.414791 -0.34821 0.840653 -0.414791 -0.34821 0.840653 -0.414791 -0.34821 0.840653 -0.414791 -0.34821 0.92388 0 -0.382683 0.92388 0 -0.382683 0.92388 0 -0.382683 0.92388 0 -0.382683 0 1 0 0 1 0 0 1 0 0 1 0 -0.92388 0 0.382683 -0.92388 0 0.382683 -0.92388 0 0.382683 -0.92388 0 0.382683 -0.845613 -0.402808 0.350264 -0.845613 -0.402808 0.350264 -0.845613 -0.402808 0.350264 -0.845613 -0.402808 0.350264 -0.92388 0 0.382683 -0.92388 0 0.382683 -0.92388 0 0.382683 -0.92388 0 0.382683 -0.880055 0.304335 0.364531 -0.880055 0.304335 0.364531 -0.880055 0.304335 0.364531 -0.880055 0.304335 0.364531 -0.92388 0 0.382683 -0.92388 0 0.382683 -0.92388 0 0.382683 -0.92388 0 0.382683 0.382683 0 0.92388 0.382683 0 0.92388 0.382683 0 0.92388 0.382683 0 0.92388 0.382683 0 0.92388 0.382683 0 0.92388 0.382683 0 0.92388 0.382683 0 0.92388 0.382683 0 0.92388 0.382683 0 0.92388 0.382683 0 0.92388 0.382683 0 0.92388 -0.382683 -0 -0.92388 -0.382683 -0 -0.92388 -0.382683 -0 -0.92388 -0.382683 -0 -0.92388 -0.382683 -0 -0.92388 -0.382683 -0 -0.92388 -0.382683 -0 -0.92388 -0.382683 -0 -0.92388 -0.382683 -0 -0.92388 -0.382683 -0 -0.92388 -0.382683 -0 -0.92388 -0.382683 -0 -0.92388</float_array>
          <technique_common>
            <accessor count="72" source="#ID20" stride="3">
              <param name="X" type="float"/>
              <param name="Y" type="float"/>
              <param name="Z" type="float"/>
            </accessor>
          </technique_common>
        </source>
        <vertices id="ID21">
          <input semantic="POSITION" source="#ID17"/>
          <input semantic="NORMAL" source="#ID19"/>
        </vertices>
        <triangles count="44" material="ID9">
          <input offset="0" semantic="VERTEX" source="#ID21"/>
          <p>0 1 2 0 2 3 4 5 6 6 7 4 8 9 10 10 11 8 12 13 14 14 15 12 16 17 18 18 19 16 20 21 22 22 23 20 24 25 26 24 26 27 28 29 30 30 31 28 32 33 34 34 35 32 36 37 38 38 39 36 40 41 42 42 43 40 44 45 46 46 47 44 48 49 50 51 52 53 54 55 56 48 57 49 54 51 53 54 56 51 48 51 56 49 57 58 48 56 57 59 58 57 60 61 62 63 64 65 66 67 68 64 63 69 69 63 70 69 70 71 60 64 67 67 64 69 66 61 60 67 66 60</p>
        </triangles>
      </mesh>
    </geometry>
    <geometry id="ID22">
      <mesh>
        <source id="ID23">
          <float_array count="72" id="ID24">-0.0337115 0.0269175 0.000577463 -0.0349805 0.0269175 0.000577463 -0.0349805 0.0236155 0.000577463 -0.0337115 0.0236155 0.000577463 -0.0349805 0.0269175 0.000577463 -0.0349805 0.0269175 0.00184642 -0.0349805 0.0236155 0.00184642 -0.0349805 0.0236155 0.000577463 -0.0337115 0.0236155 0.00184642 -0.0349805 0.0269175 0.00184642 -0.0337115 0.0269175 0.00184642 -0.0349805 0.0236155 0.00184642 -0.0337115 0.0236155 0.000577463 -0.0337115 0.0269175 0.00184642 -0.0337115 0.0269175 0.000577463 -0.0337115 0.0236155 0.00184642 -0.0349805 0.0269175 0.000577463 -0.0337115 0.0269175 0.00184642 -0.0349805 0.0269175 0.00184642 -0.0337115 0.0269175 0.000577463 -0.0349805 0.0236155 0.000577463 -0.0337115 0.0236155 0.00184642 -0.0337115 0.0236155 0.000577463 -0.0349805 0.0236155 0.00184642</float_array>
          <technique_common>
            <accessor count="24" source="#ID24" stride="3">
              <param name="X" type="float"/>
              <param name="Y" type="float"/>
              <param name="Z" type="float"/>
            </accessor>
          </technique_common>
        </source>
        <source id="ID25">
          <float_array count="72" id="ID26">-0 -0 -1 -0 -0 -1 -0 -0 -1 -0 -0 -1 -1 -0 -0 -1 -0 -0 -1 -0 -0 -1 -0 -0 0 0 1 0 0 1 0 0 1 0 0 1 1 0 0 1 0 0 1 0 0 1 0 0 0 1 0 0 1 0 0 1 0 0 1 0 0 -1 0 0 -1 0 0 -1 0 0 -1 0</float_array>
          <technique_common>
            <accessor count="24" source="#ID26" stride="3">
              <param name="X" type="float"/>
              <param name="Y" type="float"/>
              <param name="Z" type="float"/>
            </accessor>
          </technique_common>
        </source>
        <vertices id="ID27">
          <input semantic="POSITION" source="#ID23"/>
          <input semantic="NORMAL" source="#ID25"/>
        </vertices>
        <triangles count="12" material="ID28">
          <input offset="0" semantic="VERTEX" source="#ID27"/>
          <p>0 2 1 0 3 2 4 6 5 4 7 6 8 10 9 9 11 8 12 14 13 13 15 12 16 18 17 16 17 19 20 22 21 21 23 20</p>
        </triangles>
      </mesh>
    </geometry>
    <geometry id="ID29">
      <mesh>
        <source id="ID30">
          <float_array count="216" id="ID31">0.032746 0.00254 3.9968e-18 0.032746 0.00254 -0.00254 0.0361188 0.00254 -0.00254 0.0361188 0.00254 3.9968e-18 0.032746 0.00254 3.9968e-18 0.032746 0.00837702 3.9968e-18 0.032746 0.00837702 -0.00254 0.032746 0.00254 -0.00254 0.032746 0.00837702 3.9968e-18 0.0339187 0.0124963 5.32907e-18 0.0339187 0.0124963 -0.00254 0.032746 0.00837702 -0.00254 0.0339187 0.0124963 5.32907e-18 0.0339187 0.0202396 3.9968e-18 0.0339187 0.0202396 -0.00254 0.0339187 0.0124963 -0.00254 0.0339187 0.0202396 3.9968e-18 0.0332629 0.0216784 4.88498e-18 0.0332629 0.0216784 -0.00254 0.0339187 0.0202396 -0.00254 0.0332629 0.0216784 4.88498e-18 0.0332629 0.0236155 3.9968e-18 0.0332629 0.0236155 -0.00254 0.0332629 0.0216784 -0.00254 0.0354359 0.0236155 3.9968e-18 0.0354359 0.0236155 -0.00254 0.0332629 0.0236155 -0.00254 0.0332629 0.0236155 3.9968e-18 0.0354359 0.0236155 3.9968e-18 0.0354359 0.0216784 4.44089e-18 0.0354359 0.0216784 -0.00254 0.0354359 0.0236155 -0.00254 0.0354359 0.0216784 4.44089e-18 0.0348028 0.0202396 4.44089e-18 0.0348028 0.0202396 -0.00254 0.0354359 0.0216784 -0.00254 0.0348028 0.0202396 4.44089e-18 0.0348028 0.0124963 4.44089e-18 0.0348028 0.0124963 -0.00254 0.0348028 0.0202396 -0.00254 0.0348028 0.0124963 4.44089e-18 0.0361188 0.00837702 3.10862e-18 0.0361188 0.00837702 -0.00254 0.0348028 0.0124963 -0.00254 0.0361188 0.00837702 3.10862e-18 0.0361188 0.00254 3.9968e-18 0.0361188 0.00254 -0.00254 0.0361188 0.00837702 -0.00254 0.0339187 0.0124963 -0.00254 0.032746 0.00254 -0.00254 0.032746 0.00837702 -0.00254 0.0339187 0.0202396 -0.00254 0.0332629 0.0216784 -0.00254 0.0332629 0.0236155 -0.00254 0.0354359 0.0236155 -0.00254 0.0354359 0.0216784 -0.00254 0.0348028 0.0202396 -0.00254 0.0348028 0.0124963 -0.00254 0.0361188 0.00254 -0.00254 0.0361188 0.00837702 -0.00254 0.0348028 0.0124963 4.44089e-18 0.0361188 0.00254 3.9968e-18 0.0361188 0.00837702 3.10862e-18 0.0354359 0.0236155 3.9968e-18 0.0348028 0.0202396 4.44089e-18 0.0354359 0.0216784 4.44089e-18 0.032746 0.00254 3.9968e-18 0.0339187 0.0124963 5.32907e-18 0.032746 0.00837702 3.9968e-18 0.0339187 0.0202396 3.9968e-18 0.0332629 0.0236155 3.9968e-18 0.0332629 0.0216784 4.88498e-18</float_array>
          <technique_common>
            <accessor count="72" source="#ID31" stride="3">
              <param name="X" type="float"/>
              <param name="Y" type="float"/>
              <param name="Z" type="float"/>
            </accessor>
          </technique_common>
        </source>
        <source id="ID32">
          <float_array count="216" id="ID33">-1.28582e-16 -1 -1.57468e-32 -1.28582e-16 -1 -1.57468e-32 -1.28582e-16 -1 -1.57468e-32 -1.28582e-16 -1 -1.57468e-32 -1 0 -1.22465e-16 -1 0 -1.22465e-16 -1 0 -1.22465e-16 -1 0 -1.22465e-16 -0.961785 0.273807 -1.17785e-16 -0.961785 0.273807 -1.17785e-16 -0.961785 0.273807 -1.17785e-16 -0.961785 0.273807 -1.17785e-16 -1 0 -1.22465e-16 -1 0 -1.22465e-16 -1 0 -1.22465e-16 -1 0 -1.22465e-16 -0.909917 -0.414791 -1.11433e-16 -0.909917 -0.414791 -1.11433e-16 -0.909917 -0.414791 -1.11433e-16 -0.909917 -0.414791 -1.11433e-16 -1 0 -1.22465e-16 -1 0 -1.22465e-16 -1 0 -1.22465e-16 -1 0 -1.22465e-16 0 1 0 0 1 0 0 1 0 0 1 0 1 0 1.22465e-16 1 0 1.22465e-16 1 0 1.22465e-16 1 0 1.22465e-16 0.915285 -0.402808 1.1209e-16 0.915285 -0.402808 1.1209e-16 0.915285 -0.402808 1.1209e-16 0.915285 -0.402808 1.1209e-16 1 0 1.22465e-16 1 0 1.22465e-16 1 0 1.22465e-16 1 0 1.22465e-16 0.952565 0.304335 1.16656e-16 0.952565 0.304335 1.16656e-16 0.952565 0.304335 1.16656e-16 0.952565 0.304335 1.16656e-16 1 0 1.22465e-16 1 0 1.22465e-16 1 0 1.22465e-16 1 0 1.22465e-16 1.22465e-16 0 -1 1.22465e-16 0 -1 1.22465e-16 0 -1 1.22465e-16 0 -1 1.22465e-16 0 -1 1.22465e-16 0 -1 1.22465e-16 0 -1 1.22465e-16 0 -1 1.22465e-16 0 -1 1.22465e-16 0 -1 1.22465e-16 0 -1 1.22465e-16 0 -1 -1.22465e-16 0 1 -1.22465e-16 0 1 -1.22465e-16 0 1 -1.22465e-16 0 1 -1.22465e-16 0 1 -1.22465e-16 0 1 -1.22465e-16 0 1 -1.22465e-16 0 1 -1.22465e-16 0 1 -1.22465e-16 0 1 -1.22465e-16 0 1 -1.22465e-16 0 1</float_array>
          <technique_common>
            <accessor count="72" source="#ID33" stride="3">
              <param name="X" type="float"/>
              <param name="Y" type="float"/>
              <param name="Z" type="float"/>
            </accessor>
          </technique_common>
        </source>
        <vertices id="ID34">
          <input semantic="POSITION" source="#ID30"/>
          <input semantic="NORMAL" source="#ID32"/>
        </vertices>
        <triangles count="44" material="ID9">
          <input offset="0" semantic="VERTEX" source="#ID34"/>
          <p>0 1 2 0 2 3 4 5 6 6 7 4 8 9 10 10 11 8 12 13 14 14 15 12 16 17 18 18 19 16 20 21 22 22 23 20 24 25 26 24 26 27 28 29 30 30 31 28 32 33 34 34 35 32 36 37 38 38 39 36 40 41 42 42 43 40 44 45 46 46 47 44 48 49 50 51 52 53 54 55 56 48 57 49 54 51 53 54 56 51 48 51 56 49 57 58 48 56 57 59 58 57 60 61 62 63 64 65 66 67 68 64 63 69 69 63 70 69 70 71 60 64 67 67 64 69 66 61 60 67 66 60</p>
        </triangles>
      </mesh>
    </geometry>
    <geometry id="ID35">
      <mesh>
        <source id="ID36">
          <float_array count="516" id="ID37">0.0322994 0.00254 0.00538982 0.032746 4.44089e-19 1.48273e-18 0.032746 0.00254 -5.78834e-18 0.0258412 0.00254 0.020113 0.0287993 0 0.0155854 0.0287993 0.00254 0.0155854 0.0309718 0.00254 0.0106326 0.0309718 0 0.0106326 0.0322994 0 0.00538982 0.0179104 0 0.0274139 0.0179104 0.00254 0.0274139 0.0131539 0.00254 0.0299879 0.0258412 0 0.020113 0.0221783 0.00254 0.024092 0.0221783 0 0.024092 0.00270415 0.00254 0.0326342 -0.00270415 0.00254 0.0326342 0.00270415 0 0.0326342 0.00803867 0.00254 0.031744 0.00803867 0 0.031744 0.0131539 0 0.0299879 -0.0179104 0.00254 0.0274139 -0.0131539 0 0.0299879 -0.0131539 0.00254 0.0299879 -0.00803867 0 0.031744 -0.00270415 0 0.0326342 -0.00803867 0.00254 0.031744 -0.0258412 0 0.020113 -0.0221783 0 0.024092 -0.0258412 0.00254 0.020113 -0.0179104 0 0.0274139 -0.0221783 0.00254 0.024092 -0.0287993 0.00254 0.0155854 -0.0287993 0 0.0155854 -0.0309718 0.00254 0.0106326 -0.0309718 0 0.0106326 -0.0322994 0 0.00538982 -0.0322994 0.00254 0.00538982 -0.032746 0.00254 -8.29981e-18 -0.032746 0 4.98688e-17 -0.032746 0.00254 -8.29981e-18 -0.0361188 0.00254 3.46945e-18 -0.0361188 0 3.46945e-18 -0.032746 0 4.98688e-17 0.00564053 0 0.0356751 -1.01699e-05 0 0.0361182 -1.01699e-05 0.00254 0.0361182 0.00564053 0.00254 0.0356751 0.0111525 0 0.0343534 0.0111525 0.00254 0.0343534 0.01639 0 0.0321856 0.021224 0 0.0292249 0.01639 0.00254 0.0321856 0.021224 0.00254 0.0292249 0.0255352 0 0.0255442 0.0255352 0.00254 0.0255442 0.0292176 0 0.0212343 0.0321802 0 0.0164011 0.0292176 0.00254 0.0212343 0.0321802 0.00254 0.0164011 0.0343502 0 0.0111639 0.0343502 0.00254 0.0111639 0.0356739 0 0.00565157 0.0361188 0 7.58035e-18 0.0356739 0.00254 0.00565157 0.0361188 0.00254 7.58035e-18 -0.00566039 0.00254 0.0356718 -0.011171 0.00254 0.0343471 -0.00566039 0 0.0356718 -0.011171 0 0.0343471 -0.0164063 0.00254 0.0321768 -0.0164063 0 0.0321768 -0.0212374 0.00254 0.0292144 -0.0255456 0.00254 0.025533 -0.0212374 0 0.0292144 -0.0255456 0 0.025533 -0.0292247 0.00254 0.0212234 -0.0292247 0 0.0212234 -0.0321844 0.00254 0.0163916 -0.034352 0.00254 0.0111568 -0.0321844 0 0.0163916 -0.034352 0 0.0111568 -0.0356739 0.00254 0.00565157 -0.0356739 0 0.00565157 -0.0361188 0.00254 3.46945e-18 -0.0361188 0 3.46945e-18 0.0361188 0 7.58035e-18 0.0361188 0.00254 7.58035e-18 0.032746 0.00254 -5.78834e-18 0.032746 4.44089e-19 1.48273e-18 0.0356739 0.00254 0.00565157 0.0322994 0.00254 0.00538982 0.0361188 0.00254 7.58035e-18 -1.01699e-05 0.00254 0.0361182 -0.00270415 0.00254 0.0326342 0.00270415 0.00254 0.0326342 0.0287993 0.00254 0.0155854 0.0343502 0.00254 0.0111639 0.0321802 0.00254 0.0164011 0.0309718 0.00254 0.0106326 0.0221783 0.00254 0.024092 0.0292176 0.00254 0.0212343 0.0255352 0.00254 0.0255442 0.0258412 0.00254 0.020113 0.0131539 0.00254 0.0299879 0.021224 0.00254 0.0292249 0.01639 0.00254 0.0321856 0.0179104 0.00254 0.0274139 0.00803867 0.00254 0.031744 0.00564053 0.00254 0.0356751 0.0111525 0.00254 0.0343534 -0.00803867 0.00254 0.031744 -0.011171 0.00254 0.0343471 -0.0164063 0.00254 0.0321768 -0.00566039 0.00254 0.0356718 -0.0179104 0.00254 0.0274139 -0.0131539 0.00254 0.0299879 -0.0212374 0.00254 0.0292144 -0.0221783 0.00254 0.024092 -0.0292247 0.00254 0.0212234 -0.0258412 0.00254 0.020113 -0.0255456 0.00254 0.025533 -0.0287993 0.00254 0.0155854 -0.034352 0.00254 0.0111568 -0.0309718 0.00254 0.0106326 -0.0321844 0.00254 0.0163916 -0.0356739 0.00254 0.00565157 -0.0361188 0.00254 3.46945e-18 -0.0322994 0.00254 0.00538982 -0.032746 0.00254 -8.29981e-18 0.032746 0.00254 -5.78834e-18 -0.0361188 0 3.46945e-18 -0.0356739 0 0.00565157 -0.0322994 0 0.00538982 0.00803867 0 0.031744 0.01639 0 0.0321856 0.0131539 0 0.0299879 -0.0287993 0 0.0155854 -0.0309718 0 0.0106326 -0.034352 0 0.0111568 0.0111525 0 0.0343534 0.0221783 0 0.024092 0.0179104 0 0.0274139 0.0255352 0 0.0255442 -1.01699e-05 0 0.0361182 0.00270415 0 0.0326342 -0.00270415 0 0.0326342 0.00564053 0 0.0356751 0.021224 0 0.0292249 0.0258412 0 0.020113 0.0292176 0 0.0212343 0.0321802 0 0.0164011 0.0287993 0 0.0155854 0.0343502 0 0.0111639 0.0309718 0 0.0106326 -0.0321844 0 0.0163916 -0.0258412 0 0.020113 0.0356739 0 0.00565157 0.0322994 0 0.00538982 0.0361188 0 7.58035e-18 0.032746 4.44089e-19 1.48273e-18 -0.0292247 0 0.0212234 -0.0221783 0 0.024092 -0.0179104 0 0.0274139 -0.0255456 0 0.025533 -0.0212374 0 0.0292144 -0.0164063 0 0.0321768 -0.0131539 0 0.0299879 -0.011171 0 0.0343471 -0.00803867 0 0.031744 -0.00566039 0 0.0356718 -0.032746 0 4.98688e-17</float_array>
          <technique_common>
            <accessor count="172" source="#ID37" stride="3">
              <param name="X" type="float"/>
              <param name="Y" type="float"/>
              <param name="Z" type="float"/>
            </accessor>
          </technique_common>
        </source>
        <source id="ID38">
          <float_array count="516" id="ID39">-0.986361 -0 -0.164595 -1 -0 -4.37114e-08 -1 -0 -4.37114e-08 -0.789141 -0 -0.614213 -0.879474 -0 -0.475947 -0.879474 -0 -0.475947 -0.945817 -0 -0.3247 -0.945817 -0 -0.3247 -0.986361 -0 -0.164595 -0.546948 -0 -0.837166 -0.546948 -0 -0.837166 -0.401695 -0 -0.915773 -0.789141 -0 -0.614213 -0.677282 -0 -0.735724 -0.677282 -0 -0.735724 -0.0825793 -0 -0.996584 0.0825795 0 -0.996584 -0.0825793 -0 -0.996584 -0.245486 -0 -0.9694 -0.245486 -0 -0.9694 -0.401695 -0 -0.915773 0.546948 0 -0.837166 0.401695 0 -0.915773 0.401695 0 -0.915773 0.245486 0 -0.9694 0.0825795 0 -0.996584 0.245486 0 -0.9694 0.789141 0 -0.614213 0.677281 0 -0.735724 0.789141 0 -0.614213 0.546948 0 -0.837166 0.677281 0 -0.735724 0.879474 0 -0.475947 0.879474 0 -0.475947 0.945817 0 -0.3247 0.945817 0 -0.3247 0.986361 0 -0.164595 0.986361 0 -0.164595 1 0 1.19249e-08 1 0 1.19249e-08 -0 -0 -1 -0 -0 -1 -0 -0 -1 -0 -0 -1 0.156434 0 0.987688 -8.74228e-08 0 1 -8.74228e-08 0 1 0.156434 0 0.987688 0.309017 0 0.951056 0.309017 0 0.951056 0.453991 0 0.891006 0.587785 0 0.809017 0.453991 0 0.891006 0.587785 0 0.809017 0.707107 0 0.707107 0.707107 0 0.707107 0.809017 0 0.587785 0.891006 0 0.453991 0.809017 0 0.587785 0.891006 0 0.453991 0.951056 0 0.309017 0.951056 0 0.309017 0.987688 0 0.156434 1 0 4.37114e-08 0.987688 0 0.156434 1 0 4.37114e-08 -0.156435 0 0.987688 -0.309017 0 0.951057 -0.156435 0 0.987688 -0.309017 0 0.951057 -0.453991 0 0.891007 -0.45399 0 0.891007 -0.587785 0 0.809017 -0.707107 0 0.707107 -0.587785 0 0.809017 -0.707107 0 0.707107 -0.809017 0 0.587785 -0.809017 0 0.587785 -0.891007 0 0.45399 -0.951056 0 0.309017 -0.891007 0 0.45399 -0.951056 0 0.309017 -0.987688 0 0.156435 -0.987688 0 0.156435 -1 0 -1.19249e-08 -1 0 -1.19249e-08 0 0 -1 0 0 -1 0 0 -1 0 0 -1 0 1 0 0 1 0 0 1 0 0 1 0 0 1 0 0 1 0 0 1 0 0 1 0 0 1 0 0 1 0 0 1 0 0 1 0 0 1 0 0 1 0 0 1 0 0 1 0 0 1 0 0 1 0 0 1 0 0 1 0 0 1 0 0 1 0 0 1 0 0 1 0 0 1 0 0 1 0 0 1 0 0 1 0 0 1 0 0 1 0 0 1 0 0 1 0 0 1 0 0 1 0 0 1 0 0 1 0 0 1 0 0 1 0 0 1 0 0 1 0 0 1 0 0 -1 0 0 -1 0 0 -1 0 0 -1 0 0 -1 0 0 -1 0 0 -1 0 0 -1 0 0 -1 0 0 -1 0 0 -1 0 0 -1 0 0 -1 0 0 -1 0 0 -1 0 0 -1 0 0 -1 0 0 -1 0 0 -1 0 0 -1 0 0 -1 0 0 -1 0 0 -1 0 0 -1 0 0 -1 0 0 -1 0 0 -1 0 0 -1 0 0 -1 0 0 -1 0 0 -1 0 0 -1 0 0 -1 0 0 -1 0 0 -1 0 0 -1 0 0 -1 0 0 -1 0 0 -1 0 0 -1 0 0 -1 0</float_array>
          <technique_common>
            <accessor count="172" source="#ID39" stride="3">
              <param name="X" type="float"/>
              <param name="Y" type="float"/>
              <param name="Z" type="float"/>
            </accessor>
          </technique_common>
        </source>
        <vertices id="ID40">
          <input semantic="POSITION" source="#ID36"/>
          <input semantic="NORMAL" source="#ID38"/>
        </vertices>
        <triangles count="160" material="ID41">
          <input offset="0" semantic="VERTEX" source="#ID40"/>
          <p>0 2 1 3 5 4 6 8 7 9 11 10 12 14 13 15 17 16 18 20 19 21 23 22 24 26 25 27 29 28 30 28 31 32 27 33 27 32 29 33 35 34 34 32 33 36 37 35 34 35 37 38 36 39 36 38 37 21 30 31 28 29 31 22 23 24 30 21 22 26 16 25 23 26 24 15 19 17 16 17 25 11 20 18 18 19 15 14 9 10 9 20 11 12 13 3 14 10 13 4 5 7 12 3 4 6 0 8 5 6 7 1 8 0 40 42 41 40 43 42 44 46 45 44 48 47 47 46 44 49 48 50 48 49 47 51 52 50 49 50 52 51 54 53 53 52 51 55 54 56 54 55 53 57 58 56 55 56 58 57 60 59 59 58 57 61 60 62 60 61 59 63 64 62 61 62 64 65 64 63 66 45 46 67 68 66 45 66 68 67 70 69 69 68 67 71 70 72 70 71 69 73 74 72 71 72 74 73 76 75 75 74 73 77 76 78 76 77 75 79 80 78 77 78 80 79 82 81 81 80 79 83 82 84 82 83 81 83 84 85 86 88 87 88 86 89 90 92 91 93 95 94 96 98 97 97 90 99 100 102 101 101 98 103 104 106 105 105 102 107 95 109 108 110 106 108 111 113 112 114 94 111 115 117 116 117 113 116 118 120 119 115 121 117 122 124 123 122 125 120 126 128 127 128 126 124 128 129 127 124 126 123 123 125 122 125 119 120 119 121 118 116 113 111 118 121 115 111 112 114 93 109 95 114 93 94 109 110 108 106 104 108 105 107 104 102 100 107 101 103 100 98 96 103 97 99 96 90 91 99 92 130 91 131 133 132 134 136 135 137 139 138 140 134 135 141 143 142 144 146 145 134 147 145 148 136 142 136 148 135 148 142 143 149 150 141 150 143 141 151 149 152 149 151 150 152 154 153 153 151 152 155 137 156 153 154 157 158 160 159 158 159 157 158 157 154 139 132 138 156 162 161 139 137 155 163 165 164 155 156 161 165 167 166 161 162 164 168 166 169 169 146 170 140 147 134 147 144 145 144 170 146 170 168 169 166 167 169 165 163 167 164 162 163 131 171 133 132 133 138</p>
        </triangles>
      </mesh>
    </geometry>
    <geometry id="ID42">
      <mesh>
        <source id="ID43">
          <float_array count="216" id="ID44">-0.0231549 0.00254 0.0231549 -0.0213589 0.00254 0.024951 -0.0237438 0.00254 0.0273359 -0.0255399 0.00254 0.0255399 -0.0231549 0.00254 0.0231549 -0.0231549 0.00837702 0.0231549 -0.0213589 0.00837702 0.024951 -0.0213589 0.00254 0.024951 -0.0231549 0.00837702 0.0231549 -0.0239842 0.0124963 0.0239842 -0.0221881 0.0124963 0.0257802 -0.0213589 0.00837702 0.024951 -0.0239842 0.0124963 0.0239842 -0.0239842 0.0202396 0.0239842 -0.0221881 0.0202396 0.0257802 -0.0221881 0.0124963 0.0257802 -0.0239842 0.0202396 0.0239842 -0.0235204 0.0216784 0.0235204 -0.0217243 0.0216784 0.0253164 -0.0221881 0.0202396 0.0257802 -0.0235204 0.0216784 0.0235204 -0.0235204 0.0236155 0.0235204 -0.0217243 0.0236155 0.0253164 -0.0217243 0.0216784 0.0253164 -0.025057 0.0236155 0.025057 -0.0232609 0.0236155 0.026853 -0.0217243 0.0236155 0.0253164 -0.0235204 0.0236155 0.0235204 -0.025057 0.0236155 0.025057 -0.025057 0.0216784 0.025057 -0.0232609 0.0216784 0.026853 -0.0232609 0.0236155 0.026853 -0.025057 0.0216784 0.025057 -0.0246093 0.0202396 0.0246093 -0.0228132 0.0202396 0.0264053 -0.0232609 0.0216784 0.026853 -0.0246093 0.0202396 0.0246093 -0.0246093 0.0124963 0.0246093 -0.0228132 0.0124963 0.0264053 -0.0228132 0.0202396 0.0264053 -0.0246093 0.0124963 0.0246093 -0.0255399 0.00837702 0.0255399 -0.0237438 0.00837702 0.0273359 -0.0228132 0.0124963 0.0264053 -0.0255399 0.00837702 0.0255399 -0.0255399 0.00254 0.0255399 -0.0237438 0.00254 0.0273359 -0.0237438 0.00837702 0.0273359 -0.0221881 0.0124963 0.0257802 -0.0213589 0.00254 0.024951 -0.0213589 0.00837702 0.024951 -0.0221881 0.0202396 0.0257802 -0.0217243 0.0216784 0.0253164 -0.0217243 0.0236155 0.0253164 -0.0232609 0.0236155 0.026853 -0.0232609 0.0216784 0.026853 -0.0228132 0.0202396 0.0264053 -0.0228132 0.0124963 0.0264053 -0.0237438 0.00254 0.0273359 -0.0237438 0.00837702 0.0273359 -0.0246093 0.0124963 0.0246093 -0.0255399 0.00254 0.0255399 -0.0255399 0.00837702 0.0255399 -0.025057 0.0236155 0.025057 -0.0246093 0.0202396 0.0246093 -0.025057 0.0216784 0.025057 -0.0231549 0.00254 0.0231549 -0.0239842 0.0124963 0.0239842 -0.0231549 0.00837702 0.0231549 -0.0239842 0.0202396 0.0239842 -0.0235204 0.0236155 0.0235204 -0.0235204 0.0216784 0.0235204</float_array>
          <technique_common>
            <accessor count="72" source="#ID44" stride="3">
              <param name="X" type="float"/>
              <param name="Y" type="float"/>
              <param name="Z" type="float"/>
            </accessor>
          </technique_common>
        </source>
        <source id="ID45">
          <float_array count="216" id="ID46">9.09212e-17 -1 -9.09212e-17 9.09212e-17 -1 -9.09212e-17 9.09212e-17 -1 -9.09212e-17 9.09212e-17 -1 -9.09212e-17 0.707107 0 -0.707107 0.707107 0 -0.707107 0.707107 0 -0.707107 0.707107 0 -0.707107 0.680084 0.273807 -0.680084 0.680084 0.273807 -0.680084 0.680084 0.273807 -0.680084 0.680084 0.273807 -0.680084 0.707107 0 -0.707107 0.707107 0 -0.707107 0.707107 0 -0.707107 0.707107 0 -0.707107 0.643408 -0.414791 -0.643408 0.643408 -0.414791 -0.643408 0.643408 -0.414791 -0.643408 0.643408 -0.414791 -0.643408 0.707107 0 -0.707107 0.707107 0 -0.707107 0.707107 0 -0.707107 0.707107 0 -0.707107 0 1 0 0 1 0 0 1 0 0 1 0 -0.707107 0 0.707107 -0.707107 0 0.707107 -0.707107 0 0.707107 -0.707107 0 0.707107 -0.647204 -0.402808 0.647204 -0.647204 -0.402808 0.647204 -0.647204 -0.402808 0.647204 -0.647204 -0.402808 0.647204 -0.707107 0 0.707107 -0.707107 0 0.707107 -0.707107 0 0.707107 -0.707107 0 0.707107 -0.673565 0.304335 0.673565 -0.673565 0.304335 0.673565 -0.673565 0.304335 0.673565 -0.673565 0.304335 0.673565 -0.707107 0 0.707107 -0.707107 0 0.707107 -0.707107 0 0.707107 -0.707107 0 0.707107 0.707107 0 0.707107 0.707107 0 0.707107 0.707107 0 0.707107 0.707107 0 0.707107 0.707107 0 0.707107 0.707107 0 0.707107 0.707107 0 0.707107 0.707107 0 0.707107 0.707107 0 0.707107 0.707107 0 0.707107 0.707107 0 0.707107 0.707107 0 0.707107 -0.707107 -0 -0.707107 -0.707107 -0 -0.707107 -0.707107 -0 -0.707107 -0.707107 -0 -0.707107 -0.707107 -0 -0.707107 -0.707107 -0 -0.707107 -0.707107 -0 -0.707107 -0.707107 -0 -0.707107 -0.707107 -0 -0.707107 -0.707107 -0 -0.707107 -0.707107 -0 -0.707107 -0.707107 -0 -0.707107</float_array>
          <technique_common>
            <accessor count="72" source="#ID46" stride="3">
              <param name="X" type="float"/>
              <param name="Y" type="float"/>
              <param name="Z" type="float"/>
            </accessor>
          </technique_common>
        </source>
        <vertices id="ID47">
          <input semantic="POSITION" source="#ID43"/>
          <input semantic="NORMAL" source="#ID45"/>
        </vertices>
        <triangles count="44" material="ID9">
          <input offset="0" semantic="VERTEX" source="#ID47"/>
          <p>0 1 2 0 2 3 4 5 6 6 7 4 8 9 10 10 11 8 12 13 14 14 15 12 16 17 18 18 19 16 20 21 22 22 23 20 24 25 26 24 26 27 28 29 30 30 31 28 32 33 34 34 35 32 36 37 38 38 39 36 40 41 42 42 43 40 44 45 46 46 47 44 48 49 50 51 52 53 54 55 56 48 57 49 54 51 53 54 56 51 48 51 56 49 57 58 48 56 57 59 58 57 60 61 62 63 64 65 66 67 68 64 63 69 69 63 70 69 70 71 60 64 67 67 64 69 66 61 60 67 66 60</p>
        </triangles>
      </mesh>
    </geometry>
    <geometry id="ID48">
      <mesh>
        <source id="ID49">
          <float_array count="216" id="ID50">-0.0125314 0.00254 0.0302534 -0.0101847 0.00254 0.0312254 -0.0114754 0.00254 0.0343415 -0.0138221 0.00254 0.0333694 -0.0125314 0.00254 0.0302534 -0.0125314 0.00837702 0.0302534 -0.0101847 0.00837702 0.0312254 -0.0101847 0.00254 0.0312254 -0.0125314 0.00837702 0.0302534 -0.0129801 0.0124963 0.0313368 -0.0106335 0.0124963 0.0323088 -0.0101847 0.00837702 0.0312254 -0.0129801 0.0124963 0.0313368 -0.0129801 0.0202396 0.0313368 -0.0106335 0.0202396 0.0323088 -0.0106335 0.0124963 0.0323088 -0.0129801 0.0202396 0.0313368 -0.0127291 0.0216784 0.0307309 -0.0103825 0.0216784 0.0317029 -0.0106335 0.0202396 0.0323088 -0.0127291 0.0216784 0.0307309 -0.0127291 0.0236155 0.0307309 -0.0103825 0.0236155 0.0317029 -0.0103825 0.0216784 0.0317029 -0.0135607 0.0236155 0.0327385 -0.0112141 0.0236155 0.0337106 -0.0103825 0.0236155 0.0317029 -0.0127291 0.0236155 0.0307309 -0.0135607 0.0236155 0.0327385 -0.0135607 0.0216784 0.0327385 -0.0112141 0.0216784 0.0337106 -0.0112141 0.0236155 0.0337106 -0.0135607 0.0216784 0.0327385 -0.0133184 0.0202396 0.0321536 -0.0109718 0.0202396 0.0331256 -0.0112141 0.0216784 0.0337106 -0.0133184 0.0202396 0.0321536 -0.0133184 0.0124963 0.0321536 -0.0109718 0.0124963 0.0331256 -0.0109718 0.0202396 0.0331256 -0.0133184 0.0124963 0.0321536 -0.0138221 0.00837702 0.0333694 -0.0114754 0.00837702 0.0343415 -0.0109718 0.0124963 0.0331256 -0.0138221 0.00837702 0.0333694 -0.0138221 0.00254 0.0333694 -0.0114754 0.00254 0.0343415 -0.0114754 0.00837702 0.0343415 -0.0106335 0.0124963 0.0323088 -0.0101847 0.00254 0.0312254 -0.0101847 0.00837702 0.0312254 -0.0106335 0.0202396 0.0323088 -0.0103825 0.0216784 0.0317029 -0.0103825 0.0236155 0.0317029 -0.0112141 0.0236155 0.0337106 -0.0112141 0.0216784 0.0337106 -0.0109718 0.0202396 0.0331256 -0.0109718 0.0124963 0.0331256 -0.0114754 0.00254 0.0343415 -0.0114754 0.00837702 0.0343415 -0.0133184 0.0124963 0.0321536 -0.0138221 0.00254 0.0333694 -0.0138221 0.00837702 0.0333694 -0.0135607 0.0236155 0.0327385 -0.0133184 0.0202396 0.0321536 -0.0135607 0.0216784 0.0327385 -0.0125314 0.00254 0.0302534 -0.0129801 0.0124963 0.0313368 -0.0125314 0.00837702 0.0302534 -0.0129801 0.0202396 0.0313368 -0.0127291 0.0236155 0.0307309 -0.0127291 0.0216784 0.0307309</float_array>
          <technique_common>
            <accessor count="72" source="#ID50" stride="3">
              <param name="X" type="float"/>
              <param name="Y" type="float"/>
              <param name="Z" type="float"/>
            </accessor>
          </technique_common>
        </source>
        <source id="ID51">
          <float_array count="216" id="ID52">4.92062e-17 -1 -1.18794e-16 4.92062e-17 -1 -1.18794e-16 4.92062e-17 -1 -1.18794e-16 4.92062e-17 -1 -1.18794e-16 0.382683 0 -0.92388 0.382683 0 -0.92388 0.382683 0 -0.92388 0.382683 0 -0.92388 0.368059 0.273807 -0.888573 0.368059 0.273807 -0.888573 0.368059 0.273807 -0.888573 0.368059 0.273807 -0.888573 0.382683 0 -0.92388 0.382683 0 -0.92388 0.382683 0 -0.92388 0.382683 0 -0.92388 0.34821 -0.414791 -0.840653 0.34821 -0.414791 -0.840653 0.34821 -0.414791 -0.840653 0.34821 -0.414791 -0.840653 0.382683 0 -0.92388 0.382683 0 -0.92388 0.382683 0 -0.92388 0.382683 0 -0.92388 0 1 0 0 1 0 0 1 0 0 1 0 -0.382683 0 0.92388 -0.382683 0 0.92388 -0.382683 0 0.92388 -0.382683 0 0.92388 -0.350264 -0.402808 0.845613 -0.350264 -0.402808 0.845613 -0.350264 -0.402808 0.845613 -0.350264 -0.402808 0.845613 -0.382683 0 0.92388 -0.382683 0 0.92388 -0.382683 0 0.92388 -0.382683 0 0.92388 -0.364531 0.304335 0.880055 -0.364531 0.304335 0.880055 -0.364531 0.304335 0.880055 -0.364531 0.304335 0.880055 -0.382683 0 0.92388 -0.382683 0 0.92388 -0.382683 0 0.92388 -0.382683 0 0.92388 0.92388 0 0.382683 0.92388 0 0.382683 0.92388 0 0.382683 0.92388 0 0.382683 0.92388 0 0.382683 0.92388 0 0.382683 0.92388 0 0.382683 0.92388 0 0.382683 0.92388 0 0.382683 0.92388 0 0.382683 0.92388 0 0.382683 0.92388 0 0.382683 -0.92388 -0 -0.382683 -0.92388 -0 -0.382683 -0.92388 -0 -0.382683 -0.92388 -0 -0.382683 -0.92388 -0 -0.382683 -0.92388 -0 -0.382683 -0.92388 -0 -0.382683 -0.92388 -0 -0.382683 -0.92388 -0 -0.382683 -0.92388 -0 -0.382683 -0.92388 -0 -0.382683 -0.92388 -0 -0.382683</float_array>
          <technique_common>
            <accessor count="72" source="#ID52" stride="3">
              <param name="X" type="float"/>
              <param name="Y" type="float"/>
              <param name="Z" type="float"/>
            </accessor>
          </technique_common>
        </source>
        <vertices id="ID53">
          <input semantic="POSITION" source="#ID49"/>
          <input semantic="NORMAL" source="#ID51"/>
        </vertices>
        <triangles count="44" material="ID9">
          <input offset="0" semantic="VERTEX" source="#ID53"/>
          <p>0 1 2 0 2 3 4 5 6 6 7 4 8 9 10 10 11 8 12 13 14 14 15 12 16 17 18 18 19 16 20 21 22 22 23 20 24 25 26 24 26 27 28 29 30 30 31 28 32 33 34 34 35 32 36 37 38 38 39 36 40 41 42 42 43 40 44 45 46 46 47 44 48 49 50 51 52 53 54 55 56 48 57 49 54 51 53 54 56 51 48 51 56 49 57 58 48 56 57 59 58 57 60 61 62 63 64 65 66 67 68 64 63 69 69 63 70 69 70 71 60 64 67 67 64 69 66 61 60 67 66 60</p>
        </triangles>
      </mesh>
    </geometry>
    <geometry id="ID54">
      <mesh>
        <source id="ID55">
          <float_array count="216" id="ID56">-2.22045e-18 0.00254 0.032746 0.00254 0.00254 0.032746 0.00254 0.00254 0.0361188 -2.22045e-18 0.00254 0.0361188 -2.22045e-18 0.00254 0.032746 -2.22045e-18 0.00837702 0.032746 0.00254 0.00837702 0.032746 0.00254 0.00254 0.032746 -2.22045e-18 0.00837702 0.032746 -3.10862e-18 0.0124963 0.0339187 0.00254 0.0124963 0.0339187 0.00254 0.00837702 0.032746 -3.10862e-18 0.0124963 0.0339187 -2.22045e-18 0.0202396 0.0339187 0.00254 0.0202396 0.0339187 0.00254 0.0124963 0.0339187 -2.22045e-18 0.0202396 0.0339187 -3.10862e-18 0.0216784 0.0332629 0.00254 0.0216784 0.0332629 0.00254 0.0202396 0.0339187 -3.10862e-18 0.0216784 0.0332629 -2.22045e-18 0.0236155 0.0332629 0.00254 0.0236155 0.0332629 0.00254 0.0216784 0.0332629 -2.22045e-18 0.0236155 0.0354359 0.00254 0.0236155 0.0354359 0.00254 0.0236155 0.0332629 -2.22045e-18 0.0236155 0.0332629 -2.22045e-18 0.0236155 0.0354359 -2.22045e-18 0.0216784 0.0354359 0.00254 0.0216784 0.0354359 0.00254 0.0236155 0.0354359 -2.22045e-18 0.0216784 0.0354359 -2.22045e-18 0.0202396 0.0348028 0.00254 0.0202396 0.0348028 0.00254 0.0216784 0.0354359 -2.22045e-18 0.0202396 0.0348028 -2.22045e-18 0.0124963 0.0348028 0.00254 0.0124963 0.0348028 0.00254 0.0202396 0.0348028 -2.22045e-18 0.0124963 0.0348028 -4.44089e-19 0.00837702 0.0361188 0.00254 0.00837702 0.0361188 0.00254 0.0124963 0.0348028 -4.44089e-19 0.00837702 0.0361188 -2.22045e-18 0.00254 0.0361188 0.00254 0.00254 0.0361188 0.00254 0.00837702 0.0361188 0.00254 0.0124963 0.0339187 0.00254 0.00254 0.032746 0.00254 0.00837702 0.032746 0.00254 0.0202396 0.0339187 0.00254 0.0216784 0.0332629 0.00254 0.0236155 0.0332629 0.00254 0.0236155 0.0354359 0.00254 0.0216784 0.0354359 0.00254 0.0202396 0.0348028 0.00254 0.0124963 0.0348028 0.00254 0.00254 0.0361188 0.00254 0.00837702 0.0361188 -2.22045e-18 0.0124963 0.0348028 -2.22045e-18 0.00254 0.0361188 -4.44089e-19 0.00837702 0.0361188 -2.22045e-18 0.0236155 0.0354359 -2.22045e-18 0.0202396 0.0348028 -2.22045e-18 0.0216784 0.0354359 -2.22045e-18 0.00254 0.032746 -3.10862e-18 0.0124963 0.0339187 -2.22045e-18 0.00837702 0.032746 -2.22045e-18 0.0202396 0.0339187 -2.22045e-18 0.0236155 0.0332629 -3.10862e-18 0.0216784 0.0332629</float_array>
          <technique_common>
            <accessor count="72" source="#ID56" stride="3">
              <param name="X" type="float"/>
              <param name="Y" type="float"/>
              <param name="Z" type="float"/>
            </accessor>
          </technique_common>
        </source>
        <source id="ID57">
          <float_array count="216" id="ID58">7.87338e-33 -1 -1.28582e-16 7.87338e-33 -1 -1.28582e-16 7.87338e-33 -1 -1.28582e-16 7.87338e-33 -1 -1.28582e-16 6.12323e-17 0 -1 6.12323e-17 0 -1 6.12323e-17 0 -1 6.12323e-17 0 -1 5.88923e-17 0.273807 -0.961785 5.88923e-17 0.273807 -0.961785 5.88923e-17 0.273807 -0.961785 5.88923e-17 0.273807 -0.961785 6.12323e-17 0 -1 6.12323e-17 0 -1 6.12323e-17 0 -1 6.12323e-17 0 -1 5.57163e-17 -0.414791 -0.909917 5.57163e-17 -0.414791 -0.909917 5.57163e-17 -0.414791 -0.909917 5.57163e-17 -0.414791 -0.909917 6.12323e-17 0 -1 6.12323e-17 0 -1 6.12323e-17 0 -1 6.12323e-17 0 -1 0 1 0 0 1 0 0 1 0 0 1 0 -6.12323e-17 0 1 -6.12323e-17 0 1 -6.12323e-17 0 1 -6.12323e-17 0 1 -5.6045e-17 -0.402808 0.915285 -5.6045e-17 -0.402808 0.915285 -5.6045e-17 -0.402808 0.915285 -5.6045e-17 -0.402808 0.915285 -6.12323e-17 0 1 -6.12323e-17 0 1 -6.12323e-17 0 1 -6.12323e-17 0 1 -5.83278e-17 0.304335 0.952565 -5.83278e-17 0.304335 0.952565 -5.83278e-17 0.304335 0.952565 -5.83278e-17 0.304335 0.952565 -6.12323e-17 0 1 -6.12323e-17 0 1 -6.12323e-17 0 1 -6.12323e-17 0 1 1 0 6.12323e-17 1 0 6.12323e-17 1 0 6.12323e-17 1 0 6.12323e-17 1 0 6.12323e-17 1 0 6.12323e-17 1 0 6.12323e-17 1 0 6.12323e-17 1 0 6.12323e-17 1 0 6.12323e-17 1 0 6.12323e-17 1 0 6.12323e-17 -1 -0 -6.12323e-17 -1 -0 -6.12323e-17 -1 -0 -6.12323e-17 -1 -0 -6.12323e-17 -1 -0 -6.12323e-17 -1 -0 -6.12323e-17 -1 -0 -6.12323e-17 -1 -0 -6.12323e-17 -1 -0 -6.12323e-17 -1 -0 -6.12323e-17 -1 -0 -6.12323e-17 -1 -0 -6.12323e-17</float_array>
          <technique_common>
            <accessor count="72" source="#ID58" stride="3">
              <param name="X" type="float"/>
              <param name="Y" type="float"/>
              <param name="Z" type="float"/>
            </accessor>
          </technique_common>
        </source>
        <vertices id="ID59">
          <input semantic="POSITION" source="#ID55"/>
          <input semantic="NORMAL" source="#ID57"/>
        </vertices>
        <triangles count="44" material="ID9">
          <input offset="0" semantic="VERTEX" source="#ID59"/>
          <p>0 1 2 0 2 3 4 5 6 6 7 4 8 9 10 10 11 8 12 13 14 14 15 12 16 17 18 18 19 16 20 21 22 22 23 20 24 25 26 24 26 27 28 29 30 30 31 28 32 33 34 34 35 32 36 37 38 38 39 36 40 41 42 42 43 40 44 45 46 46 47 44 48 49 50 51 52 53 54 55 56 48 57 49 54 51 53 54 56 51 48 51 56 49 57 58 48 56 57 59 58 57 60 61 62 63 64 65 66 67 68 64 63 69 69 63 70 69 70 71 60 64 67 67 64 69 66 61 60 67 66 60</p>
        </triangles>
      </mesh>
    </geometry>
    <geometry id="ID60">
      <mesh>
        <source id="ID61">
          <float_array count="216" id="ID62">0.0125314 0.00254 0.0302534 0.014878 0.00254 0.0292814 0.0161687 0.00254 0.0323974 0.0138221 0.00254 0.0333694 0.0125314 0.00254 0.0302534 0.0125314 0.00837702 0.0302534 0.014878 0.00837702 0.0292814 0.014878 0.00254 0.0292814 0.0125314 0.00837702 0.0302534 0.0129801 0.0124963 0.0313368 0.0153268 0.0124963 0.0303648 0.014878 0.00837702 0.0292814 0.0129801 0.0124963 0.0313368 0.0129801 0.0202396 0.0313368 0.0153268 0.0202396 0.0303648 0.0153268 0.0124963 0.0303648 0.0129801 0.0202396 0.0313368 0.0127291 0.0216784 0.0307309 0.0150758 0.0216784 0.0297589 0.0153268 0.0202396 0.0303648 0.0127291 0.0216784 0.0307309 0.0127291 0.0236155 0.0307309 0.0150758 0.0236155 0.0297589 0.0150758 0.0216784 0.0297589 0.0135607 0.0236155 0.0327385 0.0159074 0.0236155 0.0317665 0.0150758 0.0236155 0.0297589 0.0127291 0.0236155 0.0307309 0.0135607 0.0236155 0.0327385 0.0135607 0.0216784 0.0327385 0.0159074 0.0216784 0.0317665 0.0159074 0.0236155 0.0317665 0.0135607 0.0216784 0.0327385 0.0133184 0.0202396 0.0321536 0.0156651 0.0202396 0.0311815 0.0159074 0.0216784 0.0317665 0.0133184 0.0202396 0.0321536 0.0133184 0.0124963 0.0321536 0.0156651 0.0124963 0.0311815 0.0156651 0.0202396 0.0311815 0.0133184 0.0124963 0.0321536 0.0138221 0.00837702 0.0333694 0.0161687 0.00837702 0.0323974 0.0156651 0.0124963 0.0311815 0.0138221 0.00837702 0.0333694 0.0138221 0.00254 0.0333694 0.0161687 0.00254 0.0323974 0.0161687 0.00837702 0.0323974 0.0153268 0.0124963 0.0303648 0.014878 0.00254 0.0292814 0.014878 0.00837702 0.0292814 0.0153268 0.0202396 0.0303648 0.0150758 0.0216784 0.0297589 0.0150758 0.0236155 0.0297589 0.0159074 0.0236155 0.0317665 0.0159074 0.0216784 0.0317665 0.0156651 0.0202396 0.0311815 0.0156651 0.0124963 0.0311815 0.0161687 0.00254 0.0323974 0.0161687 0.00837702 0.0323974 0.0133184 0.0124963 0.0321536 0.0138221 0.00254 0.0333694 0.0138221 0.00837702 0.0333694 0.0135607 0.0236155 0.0327385 0.0133184 0.0202396 0.0321536 0.0135607 0.0216784 0.0327385 0.0125314 0.00254 0.0302534 0.0129801 0.0124963 0.0313368 0.0125314 0.00837702 0.0302534 0.0129801 0.0202396 0.0313368 0.0127291 0.0236155 0.0307309 0.0127291 0.0216784 0.0307309</float_array>
          <technique_common>
            <accessor count="72" source="#ID62" stride="3">
              <param name="X" type="float"/>
              <param name="Y" type="float"/>
              <param name="Z" type="float"/>
            </accessor>
          </technique_common>
        </source>
        <source id="ID63">
          <float_array count="216" id="ID64">-4.92062e-17 -1 -1.18794e-16 -4.92062e-17 -1 -1.18794e-16 -4.92062e-17 -1 -1.18794e-16 -4.92062e-17 -1 -1.18794e-16 -0.382683 0 -0.92388 -0.382683 0 -0.92388 -0.382683 0 -0.92388 -0.382683 0 -0.92388 -0.368059 0.273807 -0.888573 -0.368059 0.273807 -0.888573 -0.368059 0.273807 -0.888573 -0.368059 0.273807 -0.888573 -0.382683 0 -0.92388 -0.382683 0 -0.92388 -0.382683 0 -0.92388 -0.382683 0 -0.92388 -0.34821 -0.414791 -0.840653 -0.34821 -0.414791 -0.840653 -0.34821 -0.414791 -0.840653 -0.34821 -0.414791 -0.840653 -0.382683 0 -0.92388 -0.382683 0 -0.92388 -0.382683 0 -0.92388 -0.382683 0 -0.92388 0 1 0 0 1 0 0 1 0 0 1 0 0.382683 0 0.92388 0.382683 0 0.92388 0.382683 0 0.92388 0.382683 0 0.92388 0.350264 -0.402808 0.845613 0.350264 -0.402808 0.845613 0.350264 -0.402808 0.845613 0.350264 -0.402808 0.845613 0.382683 0 0.92388 0.382683 0 0.92388 0.382683 0 0.92388 0.382683 0 0.92388 0.364531 0.304335 0.880055 0.364531 0.304335 0.880055 0.364531 0.304335 0.880055 0.364531 0.304335 0.880055 0.382683 0 0.92388 0.382683 0 0.92388 0.382683 0 0.92388 0.382683 0 0.92388 0.92388 0 -0.382683 0.92388 0 -0.382683 0.92388 0 -0.382683 0.92388 0 -0.382683 0.92388 0 -0.382683 0.92388 0 -0.382683 0.92388 0 -0.382683 0.92388 0 -0.382683 0.92388 0 -0.382683 0.92388 0 -0.382683 0.92388 0 -0.382683 0.92388 0 -0.382683 -0.92388 0 0.382683 -0.92388 0 0.382683 -0.92388 0 0.382683 -0.92388 0 0.382683 -0.92388 0 0.382683 -0.92388 0 0.382683 -0.92388 0 0.382683 -0.92388 0 0.382683 -0.92388 0 0.382683 -0.92388 0 0.382683 -0.92388 0 0.382683 -0.92388 0 0.382683</float_array>
          <technique_common>
            <accessor count="72" source="#ID64" stride="3">
              <param name="X" type="float"/>
              <param name="Y" type="float"/>
              <param name="Z" type="float"/>
            </accessor>
          </technique_common>
        </source>
        <vertices id="ID65">
          <input semantic="POSITION" source="#ID61"/>
          <input semantic="NORMAL" source="#ID63"/>
        </vertices>
        <triangles count="44" material="ID9">
          <input offset="0" semantic="VERTEX" source="#ID65"/>
          <p>0 1 2 0 2 3 4 5 6 6 7 4 8 9 10 10 11 8 12 13 14 14 15 12 16 17 18 18 19 16 20 21 22 22 23 20 24 25 26 24 26 27 28 29 30 30 31 28 32 33 34 34 35 32 36 37 38 38 39 36 40 41 42 42 43 40 44 45 46 46 47 44 48 49 50 51 52 53 54 55 56 48 57 49 54 51 53 54 56 51 48 51 56 49 57 58 48 56 57 59 58 57 60 61 62 63 64 65 66 67 68 64 63 69 69 63 70 69 70 71 60 64 67 67 64 69 66 61 60 67 66 60</p>
        </triangles>
      </mesh>
    </geometry>
    <geometry id="ID66">
      <mesh>
        <source id="ID67">
          <float_array count="216" id="ID68">0.0231549 0.00254 0.0231549 0.024951 0.00254 0.0213589 0.0273359 0.00254 0.0237438 0.0255399 0.00254 0.0255399 0.0231549 0.00254 0.0231549 0.0231549 0.00837702 0.0231549 0.024951 0.00837702 0.0213589 0.024951 0.00254 0.0213589 0.0231549 0.00837702 0.0231549 0.0239842 0.0124963 0.0239842 0.0257802 0.0124963 0.0221881 0.024951 0.00837702 0.0213589 0.0239842 0.0124963 0.0239842 0.0239842 0.0202396 0.0239842 0.0257802 0.0202396 0.0221881 0.0257802 0.0124963 0.0221881 0.0239842 0.0202396 0.0239842 0.0235204 0.0216784 0.0235204 0.0253164 0.0216784 0.0217243 0.0257802 0.0202396 0.0221881 0.0235204 0.0216784 0.0235204 0.0235204 0.0236155 0.0235204 0.0253164 0.0236155 0.0217243 0.0253164 0.0216784 0.0217243 0.025057 0.0236155 0.025057 0.026853 0.0236155 0.0232609 0.0253164 0.0236155 0.0217243 0.0235204 0.0236155 0.0235204 0.025057 0.0236155 0.025057 0.025057 0.0216784 0.025057 0.026853 0.0216784 0.0232609 0.026853 0.0236155 0.0232609 0.025057 0.0216784 0.025057 0.0246093 0.0202396 0.0246093 0.0264053 0.0202396 0.0228132 0.026853 0.0216784 0.0232609 0.0246093 0.0202396 0.0246093 0.0246093 0.0124963 0.0246093 0.0264053 0.0124963 0.0228132 0.0264053 0.0202396 0.0228132 0.0246093 0.0124963 0.0246093 0.0255399 0.00837702 0.0255399 0.0273359 0.00837702 0.0237438 0.0264053 0.0124963 0.0228132 0.0255399 0.00837702 0.0255399 0.0255399 0.00254 0.0255399 0.0273359 0.00254 0.0237438 0.0273359 0.00837702 0.0237438 0.0257802 0.0124963 0.0221881 0.024951 0.00254 0.0213589 0.024951 0.00837702 0.0213589 0.0257802 0.0202396 0.0221881 0.0253164 0.0216784 0.0217243 0.0253164 0.0236155 0.0217243 0.026853 0.0236155 0.0232609 0.026853 0.0216784 0.0232609 0.0264053 0.0202396 0.0228132 0.0264053 0.0124963 0.0228132 0.0273359 0.00254 0.0237438 0.0273359 0.00837702 0.0237438 0.0246093 0.0124963 0.0246093 0.0255399 0.00254 0.0255399 0.0255399 0.00837702 0.0255399 0.025057 0.0236155 0.025057 0.0246093 0.0202396 0.0246093 0.025057 0.0216784 0.025057 0.0231549 0.00254 0.0231549 0.0239842 0.0124963 0.0239842 0.0231549 0.00837702 0.0231549 0.0239842 0.0202396 0.0239842 0.0235204 0.0236155 0.0235204 0.0235204 0.0216784 0.0235204</float_array>
          <technique_common>
            <accessor count="72" source="#ID68" stride="3">
              <param name="X" type="float"/>
              <param name="Y" type="float"/>
              <param name="Z" type="float"/>
            </accessor>
          </technique_common>
        </source>
        <source id="ID69">
          <float_array count="216" id="ID70">-9.09212e-17 -1 -9.09212e-17 -9.09212e-17 -1 -9.09212e-17 -9.09212e-17 -1 -9.09212e-17 -9.09212e-17 -1 -9.09212e-17 -0.707107 0 -0.707107 -0.707107 0 -0.707107 -0.707107 0 -0.707107 -0.707107 0 -0.707107 -0.680084 0.273807 -0.680084 -0.680084 0.273807 -0.680084 -0.680084 0.273807 -0.680084 -0.680084 0.273807 -0.680084 -0.707107 0 -0.707107 -0.707107 0 -0.707107 -0.707107 0 -0.707107 -0.707107 0 -0.707107 -0.643408 -0.414791 -0.643408 -0.643408 -0.414791 -0.643408 -0.643408 -0.414791 -0.643408 -0.643408 -0.414791 -0.643408 -0.707107 0 -0.707107 -0.707107 0 -0.707107 -0.707107 0 -0.707107 -0.707107 0 -0.707107 0 1 0 0 1 0 0 1 0 0 1 0 0.707107 0 0.707107 0.707107 0 0.707107 0.707107 0 0.707107 0.707107 0 0.707107 0.647204 -0.402808 0.647204 0.647204 -0.402808 0.647204 0.647204 -0.402808 0.647204 0.647204 -0.402808 0.647204 0.707107 0 0.707107 0.707107 0 0.707107 0.707107 0 0.707107 0.707107 0 0.707107 0.673565 0.304335 0.673565 0.673565 0.304335 0.673565 0.673565 0.304335 0.673565 0.673565 0.304335 0.673565 0.707107 0 0.707107 0.707107 0 0.707107 0.707107 0 0.707107 0.707107 0 0.707107 0.707107 0 -0.707107 0.707107 0 -0.707107 0.707107 0 -0.707107 0.707107 0 -0.707107 0.707107 0 -0.707107 0.707107 0 -0.707107 0.707107 0 -0.707107 0.707107 0 -0.707107 0.707107 0 -0.707107 0.707107 0 -0.707107 0.707107 0 -0.707107 0.707107 0 -0.707107 -0.707107 0 0.707107 -0.707107 0 0.707107 -0.707107 0 0.707107 -0.707107 0 0.707107 -0.707107 0 0.707107 -0.707107 0 0.707107 -0.707107 0 0.707107 -0.707107 0 0.707107 -0.707107 0 0.707107 -0.707107 0 0.707107 -0.707107 0 0.707107 -0.707107 0 0.707107</float_array>
          <technique_common>
            <accessor count="72" source="#ID70" stride="3">
              <param name="X" type="float"/>
              <param name="Y" type="float"/>
              <param name="Z" type="float"/>
            </accessor>
          </technique_common>
        </source>
        <vertices id="ID71">
          <input semantic="POSITION" source="#ID67"/>
          <input semantic="NORMAL" source="#ID69"/>
        </vertices>
        <triangles count="44" material="ID9">
          <input offset="0" semantic="VERTEX" source="#ID71"/>
          <p>0 1 2 0 2 3 4 5 6 6 7 4 8 9 10 10 11 8 12 13 14 14 15 12 16 17 18 18 19 16 20 21 22 22 23 20 24 25 26 24 26 27 28 29 30 30 31 28 32 33 34 34 35 32 36 37 38 38 39 36 40 41 42 42 43 40 44 45 46 46 47 44 48 49 50 51 52 53 54 55 56 48 57 49 54 51 53 54 56 51 48 51 56 49 57 58 48 56 57 59 58 57 60 61 62 63 64 65 66 67 68 64 63 69 69 63 70 69 70 71 60 64 67 67 64 69 66 61 60 67 66 60</p>
        </triangles>
      </mesh>
    </geometry>
    <geometry id="ID72">
      <mesh>
        <source id="ID73">
          <float_array count="516" id="ID74">-0.0322994 -0.00762 0.00538982 -0.032746 0 1.48273e-18 -0.032746 -0.00762 1.48273e-18 -0.0258412 -0.00762 0.020113 -0.0287993 0 0.0155854 -0.0287993 -0.00762 0.0155854 -0.0309718 -0.00762 0.0106326 -0.0309718 0 0.0106326 -0.0322994 0 0.00538982 -0.0179104 0 0.0274139 -0.0179104 -0.00762 0.0274139 -0.0131539 -0.00762 0.0299879 -0.0258412 0 0.020113 -0.0221783 -0.00762 0.024092 -0.0221783 0 0.024092 -0.00270415 -0.00762 0.0326342 0.00270415 -0.00762 0.0326342 -0.00270415 0 0.0326342 -0.00803867 -0.00762 0.031744 -0.00803867 0 0.031744 -0.0131539 0 0.0299879 0.0179104 -0.00762 0.0274139 0.0131539 0 0.0299879 0.0131539 -0.00762 0.0299879 0.00803867 0 0.031744 0.00270415 0 0.0326342 0.00803867 -0.00762 0.031744 0.0258412 0 0.020113 0.0221783 0 0.024092 0.0258412 -0.00762 0.020113 0.0179104 0 0.0274139 0.0221783 -0.00762 0.024092 0.0287993 -0.00762 0.0155854 0.0287993 0 0.0155854 0.0309718 -0.00762 0.0106326 0.0309718 0 0.0106326 0.0322994 0 0.00538982 0.0322994 -0.00762 0.00538982 0.032746 -0.00762 -8.29981e-18 0.032746 0 7.89531e-17 0.0361188 0 -3.46945e-18 0.032746 -0.00762 -8.29981e-18 0.0361188 -0.00762 -3.46945e-18 0.032746 0 7.89531e-17 -0.00566039 0 0.0356718 -1.01699e-05 0 0.0361182 -1.01699e-05 -0.00762 0.0361182 -0.00566039 -0.00762 0.0356718 -0.011171 0 0.0343471 -0.011171 -0.00762 0.0343471 -0.0164063 0 0.0321768 -0.0212374 0 0.0292144 -0.0164063 -0.00762 0.0321768 -0.0212374 -0.00762 0.0292144 -0.0255456 0 0.025533 -0.0255456 -0.00762 0.025533 -0.0292247 0 0.0212234 -0.0321844 0 0.0163916 -0.0292247 -0.00762 0.0212234 -0.0321844 -0.00762 0.0163916 -0.034352 0 0.0111568 -0.034352 -0.00762 0.0111568 -0.0356739 0 0.00565157 -0.0361188 0 7.58035e-18 -0.0356739 -0.00762 0.00565157 -0.0361188 -0.00762 7.58035e-18 0.00564053 -0.00762 0.0356751 0.0111525 -0.00762 0.0343534 0.00564053 0 0.0356751 0.0111525 0 0.0343534 0.01639 -0.00762 0.0321856 0.01639 0 0.0321856 0.021224 -0.00762 0.0292249 0.0255352 -0.00762 0.0255442 0.021224 0 0.0292249 0.0255352 0 0.0255442 0.0292176 -0.00762 0.0212343 0.0292176 0 0.0212343 0.0321802 -0.00762 0.0164011 0.0343502 -0.00762 0.0111639 0.0321802 0 0.0164011 0.0343502 0 0.0111639 0.0356739 -0.00762 0.00565157 0.0356739 0 0.00565157 0.0361188 -0.00762 -3.46945e-18 0.0361188 0 -3.46945e-18 -0.0361188 0 7.58035e-18 -0.032746 -0.00762 1.48273e-18 -0.032746 0 1.48273e-18 -0.0361188 -0.00762 7.58035e-18 -0.0361188 -0.00762 7.58035e-18 -0.0356739 -0.00762 0.00565157 -0.0322994 -0.00762 0.00538982 0.00803867 -0.00762 0.031744 0.01639 -0.00762 0.0321856 0.0131539 -0.00762 0.0299879 -0.0287993 -0.00762 0.0155854 -0.0309718 -0.00762 0.0106326 -0.034352 -0.00762 0.0111568 0.0111525 -0.00762 0.0343534 0.0221783 -0.00762 0.024092 0.0179104 -0.00762 0.0274139 0.0255352 -0.00762 0.0255442 -1.01699e-05 -0.00762 0.0361182 0.00270415 -0.00762 0.0326342 -0.00270415 -0.00762 0.0326342 0.00564053 -0.00762 0.0356751 0.021224 -0.00762 0.0292249 0.0258412 -0.00762 0.020113 0.0292176 -0.00762 0.0212343 0.0321802 -0.00762 0.0164011 0.0287993 -0.00762 0.0155854 0.0343502 -0.00762 0.0111639 0.0309718 -0.00762 0.0106326 -0.0321844 -0.00762 0.0163916 -0.0258412 -0.00762 0.020113 0.0356739 -0.00762 0.00565157 0.0322994 -0.00762 0.00538982 0.0361188 -0.00762 -3.46945e-18 0.032746 -0.00762 -8.29981e-18 -0.0292247 -0.00762 0.0212234 -0.0221783 -0.00762 0.024092 -0.0179104 -0.00762 0.0274139 -0.0255456 -0.00762 0.025533 -0.0212374 -0.00762 0.0292144 -0.0164063 -0.00762 0.0321768 -0.0131539 -0.00762 0.0299879 -0.011171 -0.00762 0.0343471 -0.00803867 -0.00762 0.031744 -0.00566039 -0.00762 0.0356718 -0.032746 -0.00762 1.48273e-18 0.0356739 0 0.00565157 0.0322994 0 0.00538982 0.0361188 0 -3.46945e-18 -1.01699e-05 0 0.0361182 -0.00270415 0 0.0326342 0.00270415 0 0.0326342 0.0287993 0 0.0155854 0.0343502 0 0.0111639 0.0321802 0 0.0164011 0.0309718 0 0.0106326 0.0221783 0 0.024092 0.0292176 0 0.0212343 0.0255352 0 0.0255442 0.0258412 0 0.020113 0.0131539 0 0.0299879 0.021224 0 0.0292249 0.01639 0 0.0321856 0.0179104 0 0.0274139 0.00803867 0 0.031744 0.00564053 0 0.0356751 0.0111525 0 0.0343534 -0.00803867 0 0.031744 -0.011171 0 0.0343471 -0.0164063 0 0.0321768 -0.00566039 0 0.0356718 -0.0179104 0 0.0274139 -0.0131539 0 0.0299879 -0.0212374 0 0.0292144 -0.0221783 0 0.024092 -0.0292247 0 0.0212234 -0.0258412 0 0.020113 -0.0255456 0 0.025533 -0.0287993 0 0.0155854 -0.034352 0 0.0111568 -0.0309718 0 0.0106326 -0.0321844 0 0.0163916 -0.0356739 0 0.00565157 -0.0361188 0 7.58035e-18 -0.0322994 0 0.00538982 -0.032746 0 1.48273e-18 0.032746 0 7.89531e-17</float_array>
          <technique_common>
            <accessor count="172" source="#ID74" stride="3">
              <param name="X" type="float"/>
              <param name="Y" type="float"/>
              <param name="Z" type="float"/>
            </accessor>
          </technique_common>
        </source>
        <source id="ID75">
          <float_array count="516" id="ID76">0.986361 0 -0.164595 1 0 -4.37114e-08 1 0 -4.37114e-08 0.789141 0 -0.614213 0.879474 0 -0.475947 0.879474 0 -0.475947 0.945817 0 -0.3247 0.945817 0 -0.3247 0.986361 0 -0.164595 0.546948 0 -0.837166 0.546948 0 -0.837166 0.401695 0 -0.915773 0.789141 0 -0.614213 0.677282 0 -0.735724 0.677282 0 -0.735724 0.0825793 0 -0.996584 -0.0825795 -0 -0.996584 0.0825793 0 -0.996584 0.245486 0 -0.9694 0.245486 0 -0.9694 0.401695 0 -0.915773 -0.546948 -0 -0.837166 -0.401695 -0 -0.915773 -0.401695 -0 -0.915773 -0.245486 -0 -0.9694 -0.0825795 -0 -0.996584 -0.245486 -0 -0.9694 -0.789141 -0 -0.614213 -0.677281 -0 -0.735724 -0.789141 -0 -0.614213 -0.546948 -0 -0.837166 -0.677281 -0 -0.735724 -0.879474 -0 -0.475947 -0.879474 -0 -0.475947 -0.945817 -0 -0.3247 -0.945817 -0 -0.3247 -0.986361 -0 -0.164595 -0.986361 -0 -0.164595 -1 0 1.19249e-08 -1 0 1.19249e-08 -0 -0 -1 -0 -0 -1 -0 -0 -1 -0 -0 -1 -0.156434 0 0.987688 8.74228e-08 0 1 8.74228e-08 0 1 -0.156434 0 0.987688 -0.309017 0 0.951056 -0.309017 0 0.951056 -0.453991 0 0.891006 -0.587785 0 0.809017 -0.453991 0 0.891006 -0.587785 0 0.809017 -0.707107 0 0.707107 -0.707107 0 0.707107 -0.809017 0 0.587785 -0.891006 0 0.453991 -0.809017 0 0.587785 -0.891006 0 0.453991 -0.951056 0 0.309017 -0.951056 0 0.309017 -0.987688 0 0.156434 -1 0 4.37114e-08 -0.987688 0 0.156434 -1 0 4.37114e-08 0.156435 0 0.987688 0.309017 0 0.951057 0.156435 0 0.987688 0.309017 0 0.951057 0.453991 0 0.891007 0.45399 0 0.891007 0.587785 0 0.809017 0.707107 0 0.707107 0.587785 0 0.809017 0.707107 0 0.707107 0.809017 0 0.587785 0.809017 0 0.587785 0.891007 0 0.45399 0.951056 0 0.309017 0.891007 0 0.45399 0.951056 0 0.309017 0.987688 0 0.156435 0.987688 0 0.156435 1 0 -1.19249e-08 1 0 -1.19249e-08 0 0 -1 0 0 -1 0 0 -1 0 0 -1 0 -1 0 0 -1 0 0 -1 0 0 -1 0 0 -1 0 0 -1 0 0 -1 0 0 -1 0 0 -1 0 0 -1 0 0 -1 0 0 -1 0 0 -1 0 0 -1 0 0 -1 0 0 -1 0 0 -1 0 0 -1 0 0 -1 0 0 -1 0 0 -1 0 0 -1 0 0 -1 0 0 -1 0 0 -1 0 0 -1 0 0 -1 0 0 -1 0 0 -1 0 0 -1 0 0 -1 0 0 -1 0 0 -1 0 0 -1 0 0 -1 0 0 -1 0 0 -1 0 0 -1 0 0 -1 0 0 -1 0 0 -1 0 0 1 0 0 1 0 0 1 0 0 1 0 0 1 0 0 1 0 0 1 0 0 1 0 0 1 0 0 1 0 0 1 0 0 1 0 0 1 0 0 1 0 0 1 0 0 1 0 0 1 0 0 1 0 0 1 0 0 1 0 0 1 0 0 1 0 0 1 0 0 1 0 0 1 0 0 1 0 0 1 0 0 1 0 0 1 0 0 1 0 0 1 0 0 1 0 0 1 0 0 1 0 0 1 0 0 1 0 0 1 0 0 1 0 0 1 0 0 1 0 0 1 0</float_array>
          <technique_common>
            <accessor count="172" source="#ID76" stride="3">
              <param name="X" type="float"/>
              <param name="Y" type="float"/>
              <param name="Z" type="float"/>
            </accessor>
          </technique_common>
        </source>
        <vertices id="ID77">
          <input semantic="POSITION" source="#ID73"/>
          <input semantic="NORMAL" source="#ID75"/>
        </vertices>
        <triangles count="160" material="ID78">
          <input offset="0" semantic="VERTEX" source="#ID77"/>
          <p>0 2 1 3 5 4 6 8 7 9 11 10 12 14 13 15 17 16 18 20 19 21 23 22 24 26 25 27 29 28 30 28 31 32 27 33 27 32 29 33 35 34 34 32 33 36 37 35 34 35 37 38 36 39 36 38 37 21 30 31 28 29 31 22 23 24 30 21 22 26 16 25 23 26 24 15 19 17 16 17 25 11 20 18 18 19 15 14 9 10 9 20 11 12 13 3 14 10 13 4 5 7 12 3 4 6 0 8 5 6 7 1 8 0 40 42 41 41 43 40 44 46 45 44 48 47 47 46 44 49 48 50 48 49 47 51 52 50 49 50 52 51 54 53 53 52 51 55 54 56 54 55 53 57 58 56 55 56 58 57 60 59 59 58 57 61 60 62 60 61 59 63 64 62 61 62 64 65 64 63 66 45 46 67 68 66 45 66 68 67 70 69 69 68 67 71 70 72 70 71 69 73 74 72 71 72 74 73 76 75 75 74 73 77 76 78 76 77 75 79 80 78 77 78 80 79 82 81 81 80 79 83 82 84 82 83 81 83 84 85 86 88 87 86 87 89 90 92 91 93 95 94 96 98 97 99 93 94 100 102 101 103 105 104 93 106 104 107 95 101 95 107 94 107 101 102 108 109 100 109 102 100 110 108 111 108 110 109 111 113 112 112 110 111 114 96 115 112 113 116 117 119 118 117 118 116 117 116 113 98 91 97 115 121 120 98 96 114 122 124 123 114 115 120 124 126 125 120 121 123 127 125 128 128 105 129 99 106 93 106 103 104 103 129 105 129 127 128 125 126 128 124 122 126 123 121 122 90 130 92 91 92 97 131 133 132 134 136 135 137 139 138 138 131 140 141 143 142 142 139 144 145 147 146 146 143 148 136 150 149 151 147 149 152 154 153 155 135 152 156 158 157 158 154 157 159 161 160 156 162 158 163 165 164 163 166 161 167 169 168 169 167 165 169 170 168 165 167 164 164 166 163 166 160 161 160 162 159 157 154 152 159 162 156 152 153 155 134 150 136 155 134 135 150 151 149 147 145 149 146 148 145 143 141 148 142 144 141 139 137 144 138 140 137 131 132 140 133 171 132</p>
        </triangles>
      </mesh>
    </geometry>
    <geometry id="ID79">
      <mesh>
        <source id="ID80">
          <float_array count="660" id="ID81">0.0337676 0.0236155 -0.000686572 0.0337676 0.0236155 -0.00195657 0.0337676 0.0261555 -0.00195657 0.0337676 0.0261555 -0.000686572 0.0337676 0.0236155 -0.00195657 0.0349938 0.0236155 -0.00195657 0.0349938 0.0261555 -0.00195657 0.0337676 0.0261555 -0.00195657 0.0349938 0.0236155 -0.00195657 0.0349938 0.0261555 -0.000686572 0.0349938 0.0261555 -0.00195657 0.0349938 0.0236155 -0.000686572 -0.0349805 0.0236155 0.00184642 -0.0349805 0.0236155 0.000577463 -0.0349805 0.0261555 0.000577463 -0.0349805 0.0261555 0.00184642 -0.0349805 0.0236155 0.000577463 -0.0337115 0.0236155 0.000577463 -0.0337115 0.0261555 0.000577463 -0.0349805 0.0261555 0.000577463 -0.0337115 0.0236155 0.000577463 -0.0337115 0.0261555 0.00184642 -0.0337115 0.0261555 0.000577463 -0.0337115 0.0236155 0.00184642 0.0332202 0.0261555 0.00309795 0.0332629 0.0261555 -0.00254 0.0332629 0.0236155 -0.00254 0.0275313 0.0261555 0.0188553 0.0303128 0.0261555 0.013951 0.0303128 0.0236155 0.013951 0.0322274 0.0261555 0.00864796 0.0332202 0.0236155 0.00309795 0.0322274 0.0236155 0.00864796 0.0197089 0.0236155 0.0269208 0.014892 0.0261555 0.029851 0.0197089 0.0261555 0.0269208 0.0275313 0.0236155 0.0188553 0.0239626 0.0236155 0.0232202 0.0239626 0.0261555 0.0232202 0.00413297 0.0261555 0.0330891 0.00413297 0.0236155 0.0330891 -0.00150104 0.0261555 0.0333042 0.00965 0.0261555 0.0319269 0.014892 0.0236155 0.029851 0.00965 0.0236155 0.0319269 -0.017502 0.0261555 0.0283415 -0.0124757 0.0261555 0.0308959 -0.0124757 0.0236155 0.0308959 -0.00709063 0.0236155 0.0325661 -0.00709063 0.0261555 0.0325661 -0.00150104 0.0236155 0.0333042 -0.0259166 0.0236155 0.020896 -0.0259166 0.0261555 0.020896 -0.0220255 0.0236155 0.0249761 -0.017502 0.0236155 0.0283415 -0.0220255 0.0261555 0.0249761 -0.0290639 0.0261555 0.0162181 -0.0290639 0.0236155 0.0162181 -0.0313773 0.0236155 0.0110764 -0.0313773 0.0261555 0.0110764 -0.0327904 0.0236155 0.00561829 -0.0327904 0.0261555 0.00561829 -0.0332629 0.0261555 2.66454e-18 -0.0332629 0.0236155 2.81743e-10 -0.0332629 0.0236155 2.81743e-10 -0.0354359 0.0261555 6.51784e-18 -0.0332629 0.0261555 2.66454e-18 -0.0354359 0.0236155 6.51784e-18 0.0069622 0.0236155 0.0348002 0.00130563 0.0261555 0.0354584 0.00130563 0.0236155 0.0354584 0.0124408 0.0236155 0.0332454 0.0069622 0.0261555 0.0348002 0.0124408 0.0261555 0.0332454 0.0176003 0.0236155 0.030834 0.0223076 0.0236155 0.0276281 0.0176003 0.0261555 0.030834 0.0264414 0.0236155 0.0237103 0.0223076 0.0261555 0.0276281 0.0264414 0.0261555 0.0237103 0.0298951 0.0236155 0.0191813 0.0325798 0.0236155 0.0141581 0.0298951 0.0261555 0.0191813 0.0344261 0.0236155 0.00876985 0.0325798 0.0261555 0.0141581 0.0344261 0.0261555 0.00876985 0.0353864 0.0236155 0.0031556 0.0354359 0.0236155 -0.00254 0.0353864 0.0261555 0.0031556 0.0354359 0.0261555 -0.00254 -0.00438317 0.0261555 0.0352032 -0.00995764 0.0261555 0.0340413 -0.00438317 0.0236155 0.0352032 -0.0152742 0.0261555 0.0320028 -0.00995764 0.0236155 0.0340413 -0.0152742 0.0236155 0.0320028 -0.020196 0.0261555 0.0291402 -0.0245964 0.0261555 0.0255274 -0.020196 0.0236155 0.0291402 -0.028362 0.0261555 0.0212576 -0.0245964 0.0236155 0.0255274 -0.028362 0.0236155 0.0212576 -0.0313962 0.0261555 0.0164408 -0.0336209 0.0261555 0.0112011 -0.0313962 0.0236155 0.0164408 -0.0349788 0.0261555 0.00567744 -0.0336209 0.0236155 0.0112011 -0.0349788 0.0236155 0.00567744 -0.0354359 0.0261555 6.51784e-18 -0.0354359 0.0236155 6.51784e-18 -0.0337115 0.0236155 0.00184642 -0.0349805 0.0261555 0.00184642 -0.0337115 0.0261555 0.00184642 -0.0349805 0.0236155 0.00184642 0.0354359 0.0261555 -0.00254 0.0332629 0.0236155 -0.00254 0.0332629 0.0261555 -0.00254 0.0354359 0.0236155 -0.00254 0.0349938 0.0236155 -0.000686572 0.0337676 0.0261555 -0.000686572 0.0349938 0.0261555 -0.000686572 0.0337676 0.0236155 -0.000686572 0.0349938 0.0261555 -0.00195657 0.0349938 0.0261555 -0.000686572 0.0354359 0.0261555 -0.00254 0.00130563 0.0261555 0.0354584 0.00413297 0.0261555 0.0330891 -0.00150104 0.0261555 0.0333042 0.0344261 0.0261555 0.00876985 0.0322274 0.0261555 0.00864796 0.0325798 0.0261555 0.0141581 0.0332202 0.0261555 0.00309795 0.0353864 0.0261555 0.0031556 0.0298951 0.0261555 0.0191813 0.0275313 0.0261555 0.0188553 0.0264414 0.0261555 0.0237103 0.0303128 0.0261555 0.013951 0.0197089 0.0261555 0.0269208 0.014892 0.0261555 0.029851 0.0176003 0.0261555 0.030834 0.0239626 0.0261555 0.0232202 0.0223076 0.0261555 0.0276281 0.0069622 0.0261555 0.0348002 0.00965 0.0261555 0.0319269 0.0124408 0.0261555 0.0332454 -0.0124757 0.0261555 0.0308959 -0.00995764 0.0261555 0.0340413 -0.00709063 0.0261555 0.0325661 -0.00438317 0.0261555 0.0352032 -0.0152742 0.0261555 0.0320028 -0.017502 0.0261555 0.0283415 -0.0220255 0.0261555 0.0249761 -0.0259166 0.0261555 0.020896 -0.0245964 0.0261555 0.0255274 -0.020196 0.0261555 0.0291402 -0.0290639 0.0261555 0.0162181 -0.0313773 0.0261555 0.0110764 -0.0313962 0.0261555 0.0164408 -0.028362 0.0261555 0.0212576 -0.0337115 0.0261555 0.000577463 -0.0337115 0.0261555 0.00184642 -0.0332629 0.0261555 2.66454e-18 -0.0327904 0.0261555 0.00561829 -0.0336209 0.0261555 0.0112011 -0.0349788 0.0261555 0.00567744 0.0332629 0.0261555 -0.00254 0.0337676 0.0261555 -0.000686572 0.0337676 0.0261555 -0.00195657 -0.0354359 0.0261555 6.51784e-18 -0.0349805 0.0261555 0.00184642 -0.0349805 0.0261555 0.000577463 -0.0327904 0.0236155 0.00561829 -0.0337115 0.0236155 0.00184642 -0.0332629 0.0236155 2.81743e-10 0.0069622 0.0236155 0.0348002 0.00413297 0.0236155 0.0330891 0.00965 0.0236155 0.0319269 0.0344261 0.0236155 0.00876985 0.0325798 0.0236155 0.0141581 0.0322274 0.0236155 0.00864796 0.0124408 0.0236155 0.0332454 -0.00150104 0.0236155 0.0333042 -0.00438317 0.0236155 0.0352032 -0.00709063 0.0236155 0.0325661 0.014892 0.0236155 0.029851 0.0176003 0.0236155 0.030834 0.0197089 0.0236155 0.0269208 0.0223076 0.0236155 0.0276281 0.0239626 0.0236155 0.0232202 0.0264414 0.0236155 0.0237103 0.0275313 0.0236155 0.0188553 0.0298951 0.0236155 0.0191813 0.0303128 0.0236155 0.013951 -0.0313773 0.0236155 0.0110764 -0.0313962 0.0236155 0.0164408 -0.0336209 0.0236155 0.0112011 0.0332202 0.0236155 0.00309795 0.0353864 0.0236155 0.0031556 0.0349938 0.0236155 -0.000686572 0.0354359 0.0236155 -0.00254 0.0349938 0.0236155 -0.00195657 -0.0290639 0.0236155 0.0162181 -0.028362 0.0236155 0.0212576 -0.0245964 0.0236155 0.0255274 -0.0259166 0.0236155 0.020896 -0.020196 0.0236155 0.0291402 -0.0220255 0.0236155 0.0249761 -0.017502 0.0236155 0.0283415 -0.0124757 0.0236155 0.0308959 -0.0152742 0.0236155 0.0320028 -0.00995764 0.0236155 0.0340413 0.00130563 0.0236155 0.0354584 -0.0337115 0.0236155 0.000577463 -0.0349788 0.0236155 0.00567744 0.0337676 0.0236155 -0.00195657 0.0332629 0.0236155 -0.00254 0.0337676 0.0236155 -0.000686572 -0.0354359 0.0236155 6.51784e-18 -0.0349805 0.0236155 0.000577463 -0.0349805 0.0236155 0.00184642</float_array>
          <technique_common>
            <accessor count="220" source="#ID81" stride="3">
              <param name="X" type="float"/>
              <param name="Y" type="float"/>
              <param name="Z" type="float"/>
            </accessor>
          </technique_common>
        </source>
        <source id="ID82">
          <float_array count="660" id="ID83">1 0 0 1 0 0 1 0 0 1 0 0 0 0 1 0 0 1 0 0 1 0 0 1 -1 0 0 -1 0 0 -1 0 0 -1 0 0 1 0 0 1 0 0 1 0 0 1 0 0 0 0 1 0 0 1 0 0 1 0 0 1 -1 0 0 -1 0 0 -1 0 0 -1 0 0 -0.995744 -0 -0.0921593 -0.997024 0 0.0770855 -0.997024 0 0.0770855 -0.82497 -0 -0.565176 -0.908467 -0 -0.417957 -0.908467 -0 -0.417957 -0.965941 -0 -0.258764 -0.995744 -0 -0.0921593 -0.965941 -0 -0.258764 -0.59015 -0 -0.807293 -0.445554 -0 -0.895255 -0.59015 -0 -0.807293 -0.82497 -0 -0.565176 -0.717842 -0 -0.696206 -0.717842 -0 -0.696206 -0.122579 -0 -0.992459 -0.122579 -0 -0.992459 0.0465472 0 -0.998916 -0.288194 -0 -0.957572 -0.445554 -0 -0.895255 -0.288194 -0 -0.957572 0.526876 0 -0.849942 0.375993 0 -0.926622 0.375993 0 -0.926622 0.21434 0 -0.976759 0.21434 0 -0.976759 0.0465472 0 -0.998916 0.779474 0 -0.626435 0.779474 0 -0.626435 0.662666 0 -0.748915 0.526876 0 -0.849942 0.662666 0 -0.748915 0.873953 0 -0.486011 0.873953 0 -0.486011 0.943398 0 -0.331664 0.943398 0 -0.331664 0.985818 0 -0.167816 0.985818 0 -0.167816 1 0 0.000837857 1 0 0.000837857 -1.83697e-16 -0 -1 -1.83697e-16 -0 -1 -1.83697e-16 -0 -1 -1.83697e-16 -0 -1 0.195224 0 0.980759 0.0358162 0 0.999358 0.0358162 0 0.999358 0.349604 0 0.936898 0.195224 0 0.980759 0.349604 0 0.936898 0.494979 0 0.868905 0.627604 0 0.778533 0.494979 0 0.868905 0.744065 0 0.668107 0.627604 0 0.778533 0.744065 0 0.668107 0.841361 0 0.540474 0.916986 0 0.398919 0.841361 0 0.540474 0.968993 0 0.24709 0.916986 0 0.398919 0.968993 0 0.24709 0.996041 0 0.0888965 0.997434 0 -0.0715867 0.996041 0 0.0888965 0.997434 0 -0.0715867 -0.124514 0 0.992218 -0.281637 0 0.959521 -0.124514 0 0.992218 -0.431507 0 0.90211 -0.281637 0 0.959521 -0.431506 0 0.90211 -0.570261 0 0.821463 -0.694328 0 0.719658 -0.570261 0 0.821463 -0.800512 0 0.599317 -0.694328 0 0.719658 -0.800512 0 0.599317 -0.886076 0 0.46354 -0.948818 0 0.315823 -0.886076 0 0.46354 -0.987122 0 0.159972 -0.948818 0 0.315823 -0.987122 0 0.159972 -1 0 1.55592e-07 -1 0 1.55592e-07 0 0 -1 0 0 -1 0 0 -1 0 0 -1 -1.99569e-16 0 -1 -1.99569e-16 0 -1 -1.99569e-16 0 -1 -1.99569e-16 0 -1 0 0 -1 0 0 -1 0 0 -1 0 0 -1 0 1 0 0 1 0 0 1 0 0 1 0 0 1 0 0 1 0 0 1 0 0 1 0 0 1 0 0 1 0 0 1 0 0 1 0 0 1 0 0 1 0 0 1 0 0 1 0 0 1 0 0 1 0 0 1 0 0 1 0 0 1 0 0 1 0 0 1 0 0 1 0 0 1 0 0 1 0 0 1 0 0 1 0 0 1 0 0 1 0 0 1 0 0 1 0 0 1 0 0 1 0 0 1 0 0 1 0 0 1 0 0 1 0 0 1 0 0 1 0 0 1 0 0 1 0 0 1 0 0 1 0 0 1 0 0 1 0 0 1 0 0 1 0 0 1 0 0 -1 0 0 -1 0 0 -1 0 0 -1 0 0 -1 0 0 -1 0 0 -1 0 0 -1 0 0 -1 0 0 -1 0 0 -1 0 0 -1 0 0 -1 0 0 -1 0 0 -1 0 0 -1 0 0 -1 0 0 -1 0 0 -1 0 0 -1 0 0 -1 0 0 -1 0 0 -1 0 0 -1 0 0 -1 0 0 -1 0 0 -1 0 0 -1 0 0 -1 0 0 -1 0 0 -1 0 0 -1 0 0 -1 0 0 -1 0 0 -1 0 0 -1 0 0 -1 0 0 -1 0 0 -1 0 0 -1 0 0 -1 0 0 -1 0 0 -1 0 0 -1 0 0 -1 0 0 -1 0 0 -1 0 0 -1 0 0 -1 0</float_array>
          <technique_common>
            <accessor count="220" source="#ID83" stride="3">
              <param name="X" type="float"/>
              <param name="Y" type="float"/>
              <param name="Z" type="float"/>
            </accessor>
          </technique_common>
        </source>
        <vertices id="ID84">
          <input semantic="POSITION" source="#ID80"/>
          <input semantic="NORMAL" source="#ID82"/>
        </vertices>
        <triangles count="200" material="ID85">
          <input offset="0" semantic="VERTEX" source="#ID84"/>
          <p>0 1 2 0 2 3 4 5 6 4 6 7 8 9 10 9 8 11 12 13 14 12 14 15 16 17 18 16 18 19 20 21 22 21 20 23 24 25 26 27 28 29 30 31 32 33 34 35 36 37 38 39 40 41 42 43 44 45 46 47 48 49 50 51 52 53 54 53 55 56 51 57 51 56 52 57 58 59 59 56 57 60 61 58 59 58 61 62 60 63 60 62 61 45 54 55 53 52 55 47 46 48 54 45 47 49 41 50 46 49 48 39 44 40 41 40 50 34 43 42 42 44 39 37 33 35 33 43 34 36 38 27 37 35 38 29 28 32 36 27 29 30 24 31 28 30 32 26 31 24 64 65 66 64 67 65 68 69 70 68 71 72 72 69 68 73 71 74 71 73 72 75 76 74 73 74 76 75 77 78 78 76 75 79 77 80 77 79 78 81 82 80 79 80 82 81 83 84 84 82 81 85 83 86 83 85 84 87 88 86 85 86 88 89 88 87 90 70 69 91 92 90 70 90 92 91 93 94 94 92 91 95 93 96 93 95 94 97 98 96 95 96 98 97 99 100 100 98 97 101 99 102 99 101 100 103 104 102 101 102 104 103 105 106 106 104 103 107 105 108 105 107 106 107 108 109 110 111 112 111 110 113 114 115 116 115 114 117 118 119 120 119 118 121 122 123 124 125 126 127 128 129 130 131 128 132 133 134 135 136 133 130 137 138 139 140 141 135 126 142 143 143 144 138 145 146 147 148 127 147 146 145 149 149 145 150 151 152 153 151 154 150 155 156 157 155 158 152 159 160 161 162 163 156 164 162 160 163 162 164 163 157 156 157 158 155 158 153 152 153 154 151 154 149 150 148 125 127 146 148 147 125 142 126 142 144 143 144 139 138 139 141 137 140 135 134 137 141 140 134 133 136 136 130 129 129 128 131 132 123 131 165 131 166 124 165 167 165 166 167 167 122 124 132 124 123 131 123 166 168 164 169 168 170 159 168 169 170 159 161 168 162 161 160 164 160 169 171 172 173 174 175 176 177 178 179 174 176 180 181 182 183 176 184 180 185 180 184 186 185 184 185 186 187 188 187 186 188 189 187 188 190 189 191 189 190 192 191 190 191 192 178 178 192 179 193 194 195 177 179 196 197 198 199 198 200 199 177 196 197 201 202 194 195 171 193 203 202 204 194 193 201 205 203 206 202 201 204 207 208 209 206 207 205 208 183 210 181 175 211 174 211 175 211 182 181 182 210 183 210 209 208 209 205 207 206 203 204 172 212 173 195 213 171 199 214 215 196 215 216 199 200 214 196 198 197 215 214 216 196 216 198 217 212 218 213 219 172 217 173 212 213 172 171 218 219 217 217 219 213</p>
        </triangles>
      </mesh>
    </geometry>
    <geometry id="ID86">
      <mesh>
        <source id="ID87">
          <float_array count="72" id="ID88">0.0349938 0.0269175 -0.00195657 0.0337676 0.0269175 -0.00195657 0.0337676 0.0236155 -0.00195657 0.0349938 0.0236155 -0.00195657 0.0337676 0.0269175 -0.00195657 0.0337676 0.0269175 -0.000686572 0.0337676 0.0236155 -0.000686572 0.0337676 0.0236155 -0.00195657 0.0349938 0.0236155 -0.000686572 0.0337676 0.0269175 -0.000686572 0.0349938 0.0269175 -0.000686572 0.0337676 0.0236155 -0.000686572 0.0349938 0.0236155 -0.00195657 0.0349938 0.0269175 -0.000686572 0.0349938 0.0269175 -0.00195657 0.0349938 0.0236155 -0.000686572 0.0337676 0.0269175 -0.00195657 0.0349938 0.0269175 -0.000686572 0.0337676 0.0269175 -0.000686572 0.0349938 0.0269175 -0.00195657 0.0337676 0.0236155 -0.00195657 0.0349938 0.0236155 -0.000686572 0.0349938 0.0236155 -0.00195657 0.0337676 0.0236155 -0.000686572</float_array>
          <technique_common>
            <accessor count="24" source="#ID88" stride="3">
              <param name="X" type="float"/>
              <param name="Y" type="float"/>
              <param name="Z" type="float"/>
            </accessor>
          </technique_common>
        </source>
        <source id="ID89">
          <float_array count="72" id="ID90">-0 -0 -1 -0 -0 -1 -0 -0 -1 -0 -0 -1 -1 -0 -0 -1 -0 -0 -1 -0 -0 -1 -0 -0 0 0 1 0 0 1 0 0 1 0 0 1 1 0 0 1 0 0 1 0 0 1 0 0 0 1 0 0 1 0 0 1 0 0 1 0 0 -1 0 0 -1 0 0 -1 0 0 -1 0</float_array>
          <technique_common>
            <accessor count="24" source="#ID90" stride="3">
              <param name="X" type="float"/>
              <param name="Y" type="float"/>
              <param name="Z" type="float"/>
            </accessor>
          </technique_common>
        </source>
        <vertices id="ID91">
          <input semantic="POSITION" source="#ID87"/>
          <input semantic="NORMAL" source="#ID89"/>
        </vertices>
        <triangles count="12" material="ID92">
          <input offset="0" semantic="VERTEX" source="#ID91"/>
          <p>0 2 1 0 3 2 4 6 5 4 7 6 8 10 9 9 11 8 12 14 13 13 15 12 16 18 17 16 17 19 20 22 21 21 23 20</p>
        </triangles>
      </mesh>
    </geometry>
  </library_geometries>

  <library_visual_scenes>
    <visual_scene id="ID1">
      <node id="ID2" name="683cd80aacba11596aea70a1">
        <instance_geometry url="#ID3">
          <bind_material>
            <technique_common>
              <instance_material symbol="ID9" target="#ID9"/>
            </technique_common>
          </bind_material>
        </instance_geometry>
        <instance_geometry url="#ID10">
          <bind_material>
            <technique_common>
              <instance_material symbol="ID9" target="#ID9"/>
            </technique_common>
          </bind_material>
        </instance_geometry>
        <instance_geometry url="#ID16">
          <bind_material>
            <technique_common>
              <instance_material symbol="ID9" target="#ID9"/>
            </technique_common>
          </bind_material>
        </instance_geometry>
        <instance_geometry url="#ID22">
          <bind_material>
            <technique_common>
              <instance_material symbol="ID28" target="#ID28"/>
            </technique_common>
          </bind_material>
        </instance_geometry>
        <instance_geometry url="#ID29">
          <bind_material>
            <technique_common>
              <instance_material symbol="ID9" target="#ID9"/>
            </technique_common>
          </bind_material>
        </instance_geometry>
        <instance_geometry url="#ID35">
          <bind_material>
            <technique_common>
              <instance_material symbol="ID41" target="#ID41"/>
            </technique_common>
          </bind_material>
        </instance_geometry>
        <instance_geometry url="#ID42">
          <bind_material>
            <technique_common>
              <instance_material symbol="ID9" target="#ID9"/>
            </technique_common>
          </bind_material>
        </instance_geometry>
        <instance_geometry url="#ID48">
          <bind_material>
            <technique_common>
              <instance_material symbol="ID9" target="#ID9"/>
            </technique_common>
          </bind_material>
        </instance_geometry>
        <instance_geometry url="#ID54">
          <bind_material>
            <technique_common>
              <instance_material symbol="ID9" target="#ID9"/>
            </technique_common>
          </bind_material>
        </instance_geometry>
        <instance_geometry url="#ID60">
          <bind_material>
            <technique_common>
              <instance_material symbol="ID9" target="#ID9"/>
            </technique_common>
          </bind_material>
        </instance_geometry>
        <instance_geometry url="#ID66">
          <bind_material>
            <technique_common>
              <instance_material symbol="ID9" target="#ID9"/>
            </technique_common>
          </bind_material>
        </instance_geometry>
        <instance_geometry url="#ID72">
          <bind_material>
            <technique_common>
              <instance_material symbol="ID78" target="#ID78"/>
            </technique_common>
          </bind_material>
        </instance_geometry>
        <instance_geometry url="#ID79">
          <bind_material>
            <technique_common>
              <instance_material symbol="ID85" target="#ID85"/>
            </technique_common>
          </bind_material>
        </instance_geometry>
        <instance_geometry url="#ID86">
          <bind_material>
            <technique_common>
              <instance_material symbol="ID92" target="#ID92"/>
            </technique_common>
          </bind_material>
        </instance_geometry>
      </node>
    </visual_scene>
  </library_visual_scenes>

  <scene>
    <instance_visual_scene url="#ID1"/>
  </scene>

  <library_nodes/>

</COLLADA>
