<?xml version="1.0" encoding="UTF-8" standalone="no" ?>
<COLLADA version="1.4.1" xmlns="http://www.collada.org/2005/11/COLLADASchema">

  <asset>
    <contributor>
      <authoring_tool>ONSHAPE BY PTC INC, 1.198</authoring_tool>
    </contributor>
    <created>2025-06-02T00:54:24</created>
    <modified>2025-06-02T00:54:24</modified>
    <unit meter="1" name="meters"/>
    <up_axis>Z_UP</up_axis>
  </asset>

  <library_materials>
    <material id="ID9" name="ID9">
      <instance_effect url="#ID9-fx"/>
    </material>
  </library_materials>

  <library_effects>
    <effect id="ID9-fx" name="ID9">
      <profile_COMMON>
        <technique sid="COMMON">
          <lambert>
            <diffuse>
              <color sid="diffuse">0.615686 0.811765 0.92549 1</color>
            </diffuse>
            <transparent opaque="A_ONE">
              <color sid="transparent">1 1 1 1</color>
            </transparent>
            <transparency>
              <float sid="transparency">1</float>
            </transparency>
          </lambert>
        </technique>
        <extra>
          <technique profile="OTHER">
            <double_sided>1</double_sided>
          </technique>
        </extra>
      </profile_COMMON>
    </effect>
  </library_effects>

  <library_geometries>
    <geometry id="ID3">
      <mesh>
        <source id="ID4">
          <float_array count="378" id="ID5">-7.10543e-18 -0.00500189 0.01541 0.0254 -0.00500189 0.01541 0.0254 -0.00403402 -0.0186964 -7.10543e-18 -0.00403402 -0.0186964 -7.10543e-18 -0.00403402 -0.0186964 0.0254 -0.00403402 -0.0186964 0.0254 -0.0217782 -0.0186964 0 -0.0217782 -0.0186964 0.0254 -0.0217782 -0.0186964 0.0254 -0.0217782 0.0289601 0 -0.0217782 0.0289601 0 -0.0217782 -0.0186964 0 0.0140328 0.00605398 0.0254 0.0140328 -0.0186964 0 0.0140328 -0.0186964 0.0254 0.0140328 0.00605398 0.0254 0.0140328 -0.0186964 0.0254 0 -0.0186964 0 0 -0.0186964 0 0.0140328 -0.0186964 0.0254 0 -0.0186964 0.0254 1.73472e-18 0.01541 0 1.73472e-18 0.01541 0 0 -0.0186964 0 0.030809 -0.00265679 0.0254 0.030809 -0.0186964 0 0.030809 -0.0186964 0.0254 0.030809 -0.00265679 0.0254 0.030809 -0.0186964 0.0254 0.0169363 -0.0186964 0 0.0169363 -0.0186964 0 0.030809 -0.0186964 0 0.0169363 -0.0186964 0.0254 0.0169363 -0.0186964 0.0254 0.0169363 0.00540874 0 0.0169363 0.00540874 0 -0.0463506 0.0348678 0.0254 -0.0463506 0.0302206 0 -0.0463506 0.0302206 0.0254 -0.0463506 0.0348678 0.0254 -0.0463506 0.0302206 0.0254 -0.0268731 0.0302206 0 -0.0268731 0.0302206 0 -0.0463506 0.0302206 0 -0.0268731 0.0302206 0.0254 -0.0268731 -0.0186964 0 -0.0268731 -0.0186964 0.0254 -0.0268731 0.0302206 0.0254 -0.0268731 -0.0186964 0.0254 -0.0463506 -0.0186964 0 -0.0463506 -0.0186964 0 -0.0268731 -0.0186964 0 -0.0463506 -0.0186964 0.0254 -0.0463506 -0.0271597 0 -0.0463506 -0.0271597 0.0254 -0.0463506 -0.0186964 0.0254 0.0349294 -0.0271597 0.0254 0.0349294 0 0 0.0349294 0 0 0.0349294 -0.0271597 0 0.0349294 0 0.0254 0.0349294 0 0.0254 -0.0220059 0.0348678 3.55271e-18 -0.0220059 0.0348678 0.0254 1.73472e-18 0.01541 0.0254 0.0140328 0.00605398 0 0.0140328 0.00605398 0 1.73472e-18 0.01541 0.0254 0.0169363 0.00540874 0.0254 0.030809 -0.00265679 0 0.030809 -0.00265679 0 0.0169363 0.00540874 3.55271e-18 -0.0220059 0.0348678 0.0254 -0.0220059 0.0348678 0.0254 -0.0463506 0.0348678 0 -0.0463506 0.0348678 0 -0.0217782 0.0289601 0.0254 -0.0217782 0.0289601 0.0254 -0.00500189 0.01541 -7.10543e-18 -0.00500189 0.01541 0.0254 -0.0268731 0.0302206 0.0254 -0.0463506 0.0302206 0.0254 -0.0463506 0.0348678 0.0254 -0.0220059 0.0348678 0.0254 0.0349294 0 0.0254 1.73472e-18 0.01541 0.0254 0.0169363 0.00540874 0.0254 -0.0463506 -0.0271597 0.0254 -0.00403402 -0.0186964 0.0254 0.0349294 -0.0271597 0.0254 -0.0268731 -0.0186964 0.0254 -0.0463506 -0.0186964 0.0254 -0.00500189 0.01541 0.0254 -0.0217782 0.0289601 0.0254 -0.0217782 -0.0186964 0.0254 0.030809 -0.00265679 0.0254 0 -0.0186964 0.0254 0.0140328 -0.0186964 0.0254 0.030809 -0.0186964 0.0254 0.0169363 -0.0186964 0.0254 0.0140328 0.00605398 0 -0.0268731 0.0302206 3.55271e-18 -0.0220059 0.0348678 0 -0.0463506 0.0348678 0 0.0349294 0 0 1.73472e-18 0.01541 0 -0.0463506 -0.0271597 0 0.0349294 -0.0271597 -7.10543e-18 -0.00403402 -0.0186964 0 -0.0268731 -0.0186964 0 -0.0463506 -0.0186964 0 -0.0217782 0.0289601 -7.10543e-18 -0.00500189 0.01541 0 -0.0463506 0.0302206 0 -0.0217782 -0.0186964 0 0.0169363 0.00540874 0 0.0140328 -0.0186964 0 0 -0.0186964 0 0.030809 -0.0186964 0 0.0169363 -0.0186964 0 0.030809 -0.00265679 0 0.0140328 0.00605398 0.0254 -0.0463506 -0.0271597 0.0254 0.0349294 -0.0271597 0 0.0349294 -0.0271597 0 -0.0463506 -0.0271597</float_array>
          <technique_common>
            <accessor count="126" source="#ID5" stride="3">
              <param name="X" type="float"/>
              <param name="Y" type="float"/>
              <param name="Z" type="float"/>
            </accessor>
          </technique_common>
        </source>
        <source id="ID6">
          <float_array count="378" id="ID7">-0 -0.999598 -0.0283663 -0 -0.999598 -0.0283663 -0 -0.999598 -0.0283663 -0 -0.999598 -0.0283663 0 0 1 0 0 1 0 0 1 0 0 1 0 1 0 0 1 0 0 1 0 0 1 0 0 -1 0 0 -1 0 0 -1 0 0 -1 0 0 0 1 0 0 1 0 0 1 0 0 1 0 1 -5.08621e-17 0 1 -5.08621e-17 0 1 -5.08621e-17 0 1 -5.08621e-17 0 -1 0 0 -1 0 0 -1 0 0 -1 0 0 0 1 0 0 1 0 0 1 0 0 1 0 1 0 0 1 0 0 1 0 0 1 0 0 -1 0 0 -1 0 0 -1 0 0 -1 0 0 0 -1 0 0 -1 0 0 -1 0 0 -1 0 -1 0 0 -1 0 0 -1 0 0 -1 0 0 0 1 0 0 1 0 0 1 0 0 1 0 -1 0 0 -1 0 0 -1 0 0 -1 0 0 1 0 0 1 0 0 1 0 0 1 0 0 0.522257 0.852788 0 0.522257 0.852788 0 0.522257 0.852788 0 0.522257 0.852788 0 -0.554735 -0.832027 0 -0.554735 -0.832027 0 -0.554735 -0.832027 0 -0.554735 -0.832027 0 -0.50262 -0.864507 0 -0.50262 -0.864507 0 -0.50262 -0.864507 0 -0.50262 -0.864507 0 0 1 0 0 1 0 0 1 0 0 1 -0 -0.628337 -0.777941 -0 -0.628337 -0.777941 -0 -0.628337 -0.777941 -0 -0.628337 -0.777941 1 0 0 1 0 0 1 0 0 1 0 0 1 0 0 1 0 0 1 0 0 1 0 0 1 0 0 1 0 0 1 0 0 1 0 0 1 0 0 1 0 0 1 0 0 1 0 0 1 0 0 1 0 0 1 0 0 1 0 0 1 0 0 -1 -0 -0 -1 -0 -0 -1 -0 -0 -1 -0 -0 -1 -0 -0 -1 -0 -0 -1 -0 -0 -1 -0 -0 -1 -0 -0 -1 -0 -0 -1 -0 -0 -1 -0 -0 -1 -0 -0 -1 -0 -0 -1 -0 -0 -1 -0 -0 -1 -0 -0 -1 -0 -0 -1 -0 -0 -1 -0 -0 -1 -0 -0 0 0 -1 0 0 -1 0 0 -1 0 0 -1</float_array>
          <technique_common>
            <accessor count="126" source="#ID7" stride="3">
              <param name="X" type="float"/>
              <param name="Y" type="float"/>
              <param name="Z" type="float"/>
            </accessor>
          </technique_common>
        </source>
        <vertices id="ID8">
          <input semantic="POSITION" source="#ID4"/>
          <input semantic="NORMAL" source="#ID6"/>
        </vertices>
        <triangles count="92" material="ID9">
          <input offset="0" semantic="VERTEX" source="#ID8"/>
          <p>0 2 1 0 3 2 4 6 5 4 7 6 8 10 9 8 11 10 12 14 13 12 13 15 16 18 17 18 16 19 20 22 21 22 20 23 24 26 25 24 25 27 28 30 29 30 28 31 32 34 33 34 32 35 36 38 37 36 37 39 40 42 41 42 40 43 44 46 45 44 45 47 48 50 49 50 48 51 52 54 53 52 53 55 56 58 57 56 59 58 60 62 61 60 63 62 64 66 65 66 64 67 68 70 69 70 68 71 72 74 73 72 75 74 76 78 77 76 79 78 80 82 81 82 80 83 84 83 85 84 85 86 87 89 88 90 91 87 85 93 92 94 93 90 88 94 87 86 95 84 87 94 90 83 80 93 93 80 90 96 85 88 89 97 96 95 98 84 89 96 88 93 85 83 85 92 88 99 86 97 84 98 89 89 98 99 89 99 97 85 100 86 86 100 97 101 103 102 104 105 102 106 108 107 109 106 110 105 112 111 101 113 103 108 106 114 105 104 115 109 111 114 106 109 114 102 111 101 101 111 109 107 117 116 107 118 104 108 105 117 107 108 117 111 102 105 112 105 108 115 119 116 120 115 104 107 119 118 107 116 119 104 118 120 105 115 121 115 116 121 122 124 123 124 122 125</p>
        </triangles>
      </mesh>
    </geometry>
  </library_geometries>

  <library_visual_scenes>
    <visual_scene id="ID1">
      <node id="ID2">
        <instance_geometry url="#ID3">
          <bind_material>
            <technique_common>
              <instance_material symbol="ID9" target="#ID9"/>
            </technique_common>
          </bind_material>
        </instance_geometry>
      </node>
    </visual_scene>
  </library_visual_scenes>

  <scene>
    <instance_visual_scene url="#ID1"/>
  </scene>

  <library_nodes/>

</COLLADA>
