<?xml version="1.0" encoding="UTF-8" standalone="no" ?>
<COLLADA version="1.4.1" xmlns="http://www.collada.org/2005/11/COLLADASchema">

  <asset>
    <contributor>
      <authoring_tool>ONSHAPE BY PTC INC, 1.198</authoring_tool>
    </contributor>
    <created>2025-06-01T10:54:15</created>
    <modified>2025-06-01T10:54:15</modified>
    <unit meter="1" name="meters"/>
    <up_axis>Z_UP</up_axis>
  </asset>

  <library_materials>
    <material id="ID9" name="ID9">
      <instance_effect url="#ID9-fx"/>
    </material>
    <material id="ID16" name="ID16">
      <instance_effect url="#ID16-fx"/>
    </material>
    <material id="ID29" name="ID29">
      <instance_effect url="#ID29-fx"/>
    </material>
    <material id="ID42" name="ID42">
      <instance_effect url="#ID42-fx"/>
    </material>
  </library_materials>

  <library_effects>
    <effect id="ID9-fx" name="ID9">
      <profile_COMMON>
        <technique sid="COMMON">
          <lambert>
            <diffuse>
              <color sid="diffuse">0.647059 0.647059 0.647059 1</color>
            </diffuse>
            <transparent opaque="A_ONE">
              <color sid="transparent">1 1 1 1</color>
            </transparent>
            <transparency>
              <float sid="transparency">1</float>
            </transparency>
          </lambert>
        </technique>
        <extra>
          <technique profile="OTHER">
            <double_sided>1</double_sided>
          </technique>
        </extra>
      </profile_COMMON>
    </effect>
    <effect id="ID16-fx" name="ID16">
      <profile_COMMON>
        <technique sid="COMMON">
          <lambert>
            <diffuse>
              <color sid="diffuse">0.913725 0.913725 0.913725 1</color>
            </diffuse>
            <transparent opaque="A_ONE">
              <color sid="transparent">1 1 1 1</color>
            </transparent>
            <transparency>
              <float sid="transparency">1</float>
            </transparency>
          </lambert>
        </technique>
        <extra>
          <technique profile="OTHER">
            <double_sided>1</double_sided>
          </technique>
        </extra>
      </profile_COMMON>
    </effect>
    <effect id="ID29-fx" name="ID29">
      <profile_COMMON>
        <technique sid="COMMON">
          <lambert>
            <diffuse>
              <color sid="diffuse">0.615686 0.811765 0.92549 1</color>
            </diffuse>
            <transparent opaque="A_ONE">
              <color sid="transparent">1 1 1 1</color>
            </transparent>
            <transparency>
              <float sid="transparency">1</float>
            </transparency>
          </lambert>
        </technique>
        <extra>
          <technique profile="OTHER">
            <double_sided>1</double_sided>
          </technique>
        </extra>
      </profile_COMMON>
    </effect>
    <effect id="ID42-fx" name="ID42">
      <profile_COMMON>
        <technique sid="COMMON">
          <lambert>
            <diffuse>
              <color sid="diffuse">0.231373 0.376471 0.705882 1</color>
            </diffuse>
            <transparent opaque="A_ONE">
              <color sid="transparent">1 1 1 1</color>
            </transparent>
            <transparency>
              <float sid="transparency">1</float>
            </transparency>
          </lambert>
        </technique>
        <extra>
          <technique profile="OTHER">
            <double_sided>1</double_sided>
          </technique>
        </extra>
      </profile_COMMON>
    </effect>
  </library_effects>

  <library_geometries>
    <geometry id="ID3">
      <mesh>
        <source id="ID4">
          <float_array count="456" id="ID5">0.000839006 0 0.0101253 -0.000839006 0.00254 0.0101253 -0.000839006 0 0.0101253 0.01016 0.00254 -1.86636e-18 0.01016 0 -1.86636e-18 0.0100214 0 -0.00167228 -0.00249413 0 0.00984911 -0.00249413 0.00254 0.00984911 -0.00408123 0.00254 0.00930426 -0.00408123 0 0.00930426 -0.00555699 0.00254 0.00850561 -0.00555699 0 0.00850561 -0.00688118 0 0.00747496 -0.00688118 0.00254 0.00747496 -0.00801767 0.00254 0.0062404 -0.00801767 0 0.0062404 -0.00893545 0.00254 0.00483563 -0.00893545 0 0.00483563 -0.0096095 0 0.00329895 -0.0096095 0.00254 0.00329895 -0.0100214 0.00254 0.00167228 -0.0100214 0 0.00167228 -0.01016 0.00254 1.86636e-18 -0.01016 0 1.86636e-18 0.000839006 0.00254 0.0101253 0.00249413 0 0.00984911 0.00249413 0.00254 0.00984911 0.00408123 0 0.00930426 0.00408123 0.00254 0.00930426 0.00555699 0.00254 0.00850561 0.00555699 0 0.00850561 0.00688118 0 0.00747496 0.00688118 0.00254 0.00747496 0.00801767 0 0.0062404 0.00801767 0.00254 0.0062404 0.00893545 0.00254 0.00483563 0.00893545 0 0.00483563 0.0096095 0 0.00329895 0.0096095 0.00254 0.00329895 0.0100214 0 0.00167228 0.0100214 0.00254 0.00167228 0.0096095 0.00254 -0.00329895 0.0100214 0.00254 -0.00167228 0.0096095 0 -0.00329895 0.00688118 0.00254 -0.00747496 0.00801767 0.00254 -0.0062404 0.00688118 0 -0.00747496 0.00893545 0.00254 -0.00483563 0.00893545 0 -0.00483563 0.00801767 0 -0.0062404 0.00408123 0.00254 -0.00930426 0.00249413 0 -0.00984911 0.00249413 0.00254 -0.00984911 0.00555699 0 -0.00850561 0.00408123 0 -0.00930426 0.00555699 0.00254 -0.00850561 -0.00249413 0 -0.00984911 -0.00249413 0.00254 -0.00984911 -0.000839006 0.00254 -0.0101253 -0.000839006 0 -0.0101253 0.000839006 0.00254 -0.0101253 0.000839006 0 -0.0101253 -0.00688118 0.00254 -0.00747496 -0.00555699 0.00254 -0.00850561 -0.00688118 0 -0.00747496 -0.00408123 0.00254 -0.00930426 -0.00408123 0 -0.00930426 -0.00555699 0 -0.00850561 -0.00893545 0 -0.00483563 -0.00801767 0.00254 -0.0062404 -0.00801767 0 -0.0062404 -0.0096095 0 -0.00329895 -0.00893545 0.00254 -0.00483563 -0.0096095 0.00254 -0.00329895 -0.0100214 0 -0.00167228 -0.0100214 0.00254 -0.00167228 0.01016 0.00254 -1.86636e-18 -0.00249413 0.00254 -0.00984911 -0.00408123 0.00254 -0.00930426 0.00408123 0.00254 -0.00930426 0.00801767 0.00254 -0.0062404 0.00688118 0.00254 -0.00747496 0.00555699 0.00254 -0.00850561 0.00249413 0.00254 -0.00984911 0.00893545 0.00254 -0.00483563 0.0096095 0.00254 -0.00329895 0.000839006 0.00254 -0.0101253 -0.000839006 0.00254 -0.0101253 0.0100214 0.00254 -0.00167228 0.00893545 0.00254 0.00483563 0.0096095 0.00254 0.00329895 -0.00688118 0.00254 -0.00747496 -0.00555699 0.00254 -0.00850561 0.0100214 0.00254 0.00167228 -0.00801767 0.00254 -0.0062404 -0.00893545 0.00254 -0.00483563 0.00801767 0.00254 0.0062404 0.00408123 0.00254 0.00930426 -0.0100214 0.00254 -0.00167228 -0.01016 0.00254 1.86636e-18 0.00688118 0.00254 0.00747496 -0.0096095 0.00254 -0.00329895 0.00555699 0.00254 0.00850561 -0.0096095 0.00254 0.00329895 -0.00893545 0.00254 0.00483563 -0.000839006 0.00254 0.0101253 -0.0100214 0.00254 0.00167228 0.000839006 0.00254 0.0101253 0.00249413 0.00254 0.00984911 -0.00688118 0.00254 0.00747496 -0.00555699 0.00254 0.00850561 -0.00408123 0.00254 0.00930426 -0.00249413 0.00254 0.00984911 -0.00801767 0.00254 0.0062404 0.01016 0 -1.86636e-18 -0.00408123 0 -0.00930426 -0.00249413 0 -0.00984911 0.00408123 0 -0.00930426 0.00688118 0 -0.00747496 0.00801767 0 -0.0062404 0.00555699 0 -0.00850561 0.00893545 0 -0.00483563 0.00249413 0 -0.00984911 0.0096095 0 -0.00329895 0.000839006 0 -0.0101253 -0.000839006 0 -0.0101253 0.0100214 0 -0.00167228 0.00893545 0 0.00483563 -0.00688118 0 -0.00747496 0.0096095 0 0.00329895 0.0100214 0 0.00167228 -0.00555699 0 -0.00850561 -0.00801767 0 -0.0062404 0.00801767 0 0.0062404 -0.00893545 0 -0.00483563 0.00408123 0 0.00930426 -0.01016 0 1.86636e-18 -0.0100214 0 -0.00167228 0.00688118 0 0.00747496 0.00555699 0 0.00850561 -0.0096095 0 -0.00329895 -0.0096095 0 0.00329895 -0.000839006 0 0.0101253 -0.00893545 0 0.00483563 -0.0100214 0 0.00167228 0.00249413 0 0.00984911 0.000839006 0 0.0101253 -0.00688118 0 0.00747496 -0.00408123 0 0.00930426 -0.00555699 0 0.00850561 -0.00801767 0 0.0062404 -0.00249413 0 0.00984911</float_array>
          <technique_common>
            <accessor count="152" source="#ID5" stride="3">
              <param name="X" type="float"/>
              <param name="Y" type="float"/>
              <param name="Z" type="float"/>
            </accessor>
          </technique_common>
        </source>
        <source id="ID6">
          <float_array count="456" id="ID7">0.0825794 0 0.996584 -0.0825794 0 0.996584 -0.0825794 0 0.996584 1 0 8.74228e-08 1 0 8.74228e-08 0.986361 0 -0.164595 -0.245485 0 0.9694 -0.245486 0 0.9694 -0.401695 0 0.915773 -0.401695 0 0.915773 -0.546948 0 0.837166 -0.546948 0 0.837166 -0.677282 0 0.735724 -0.677282 0 0.735724 -0.78914 0 0.614213 -0.789141 0 0.614213 -0.879474 0 0.475948 -0.879474 0 0.475947 -0.945817 0 0.324699 -0.945817 0 0.3247 -0.986361 0 0.164595 -0.986361 0 0.164595 -1 0 -1.74846e-07 -1 0 3.01992e-07 0.0825794 0 0.996584 0.245486 0 0.9694 0.245486 0 0.9694 0.401695 0 0.915773 0.401695 0 0.915773 0.546948 0 0.837167 0.546948 0 0.837167 0.677282 0 0.735724 0.677282 0 0.735724 0.78914 0 0.614213 0.78914 0 0.614213 0.879474 0 0.475947 0.879474 0 0.475947 0.945817 0 0.324699 0.945817 0 0.324699 0.986361 0 0.164595 0.986361 0 0.164595 0.945817 0 -0.3247 0.986361 0 -0.164595 0.945817 0 -0.324699 0.677282 0 -0.735724 0.789141 0 -0.614213 0.677282 0 -0.735724 0.879474 0 -0.475947 0.879474 0 -0.475947 0.78914 0 -0.614213 0.401695 0 -0.915773 0.245485 0 -0.9694 0.245485 0 -0.9694 0.546948 0 -0.837166 0.401695 0 -0.915773 0.546948 0 -0.837166 -0.245485 0 -0.9694 -0.245485 0 -0.9694 -0.0825794 0 -0.996584 -0.0825794 0 -0.996584 0.0825794 0 -0.996584 0.0825792 0 -0.996584 -0.677282 0 -0.735724 -0.546948 0 -0.837166 -0.677282 0 -0.735724 -0.401695 0 -0.915773 -0.401695 0 -0.915773 -0.546948 0 -0.837166 -0.879474 0 -0.475947 -0.789141 0 -0.614213 -0.789141 0 -0.614213 -0.945817 0 -0.324699 -0.879474 0 -0.475947 -0.945817 0 -0.324699 -0.986361 0 -0.164595 -0.986361 0 -0.164595 0 1 0 0 1 0 0 1 0 0 1 0 0 1 0 0 1 0 0 1 0 0 1 0 0 1 0 0 1 0 0 1 0 0 1 0 0 1 0 0 1 0 0 1 0 0 1 0 0 1 0 0 1 0 0 1 0 0 1 0 0 1 0 0 1 0 0 1 0 0 1 0 0 1 0 0 1 0 0 1 0 0 1 0 0 1 0 0 1 0 0 1 0 0 1 0 0 1 0 0 1 0 0 1 0 0 1 0 0 1 0 0 1 0 0 -1 0 0 -1 0 0 -1 0 0 -1 0 0 -1 0 0 -1 0 0 -1 0 0 -1 0 0 -1 0 0 -1 0 0 -1 0 0 -1 0 0 -1 0 0 -1 0 0 -1 0 0 -1 0 0 -1 0 0 -1 0 0 -1 0 0 -1 0 0 -1 0 0 -1 0 0 -1 0 0 -1 0 0 -1 0 0 -1 0 0 -1 0 0 -1 0 0 -1 0 0 -1 0 0 -1 0 0 -1 0 0 -1 0 0 -1 0 0 -1 0 0 -1 0 0 -1 0 0 -1 0</float_array>
          <technique_common>
            <accessor count="152" source="#ID7" stride="3">
              <param name="X" type="float"/>
              <param name="Y" type="float"/>
              <param name="Z" type="float"/>
            </accessor>
          </technique_common>
        </source>
        <vertices id="ID8">
          <input semantic="POSITION" source="#ID4"/>
          <input semantic="NORMAL" source="#ID6"/>
        </vertices>
        <triangles count="148" material="ID9">
          <input offset="0" semantic="VERTEX" source="#ID8"/>
          <p>0 1 2 3 4 5 6 2 7 1 7 2 8 9 6 6 7 8 9 10 11 10 9 8 12 11 13 10 13 11 14 15 12 12 13 14 15 16 17 16 15 14 18 17 19 16 19 17 20 21 18 18 19 20 22 21 20 22 23 21 1 0 24 25 26 24 24 0 25 26 27 28 27 26 25 29 28 30 27 30 28 31 32 29 29 30 31 32 33 34 33 32 31 35 34 36 33 36 34 37 38 35 35 36 37 38 39 40 39 38 37 39 4 40 41 42 43 40 4 3 44 45 46 47 48 49 50 51 52 53 54 55 56 57 58 59 60 61 62 63 64 65 66 67 68 69 70 62 70 69 68 71 72 72 69 68 73 71 74 71 73 72 23 75 74 73 74 75 22 75 23 63 67 64 62 64 70 65 57 66 63 65 67 56 58 59 66 57 56 61 60 52 59 58 60 54 51 50 51 61 52 44 53 55 55 54 50 45 49 46 44 46 53 47 41 48 45 47 49 43 42 5 48 41 43 3 5 42 76 77 78 79 80 81 81 82 79 80 83 84 83 80 79 85 84 86 83 86 84 87 88 85 85 86 87 88 77 76 77 88 87 89 90 91 78 92 93 94 95 96 97 98 99 100 101 102 103 104 105 106 107 108 109 110 111 111 112 113 104 113 112 113 109 111 105 104 112 106 103 107 107 103 105 97 99 108 108 99 106 102 101 98 97 102 98 100 96 95 101 100 95 94 89 91 94 96 89 92 90 93 92 91 90 93 76 78 114 115 116 117 118 119 118 117 120 119 121 122 122 117 119 123 124 121 122 121 124 125 123 126 123 125 124 126 114 116 116 125 126 127 128 129 115 130 131 132 133 134 135 136 137 138 139 140 141 142 143 144 145 146 147 148 149 148 150 151 143 151 150 150 148 147 142 151 143 144 146 141 146 142 141 135 145 136 145 144 136 139 137 140 135 137 139 138 134 133 140 134 138 132 128 127 132 127 133 131 130 129 131 129 128 130 115 114</p>
        </triangles>
      </mesh>
    </geometry>
    <geometry id="ID10">
      <mesh>
        <source id="ID11">
          <float_array count="72" id="ID12">0.00711001 -0.0436791 0.005842 0.00711001 -0.0436791 -0.005842 0.0096307 -0.0433665 -0.005842 0.0096307 -0.0433665 0.005842 0.00991074 -0.0456248 -0.005842 0.00711001 -0.0436791 -0.005842 0.00739004 -0.0459374 -0.005842 0.0096307 -0.0433665 -0.005842 0.00991074 -0.0456248 0.005842 0.00739004 -0.0459374 -0.005842 0.00739004 -0.0459374 0.005842 0.00991074 -0.0456248 -0.005842 0.00991074 -0.0456248 0.005842 0.00711001 -0.0436791 0.005842 0.0096307 -0.0433665 0.005842 0.00739004 -0.0459374 0.005842 0.00711001 -0.0436791 0.005842 0.00739004 -0.0459374 0.005842 0.00739004 -0.0459374 -0.005842 0.00711001 -0.0436791 -0.005842 0.00991074 -0.0456248 -0.005842 0.00991074 -0.0456248 0.005842 0.0096307 -0.0433665 0.005842 0.0096307 -0.0433665 -0.005842</float_array>
          <technique_common>
            <accessor count="24" source="#ID12" stride="3">
              <param name="X" type="float"/>
              <param name="Y" type="float"/>
              <param name="Z" type="float"/>
            </accessor>
          </technique_common>
        </source>
        <source id="ID13">
          <float_array count="72" id="ID14">-0.123059 0.992399 0 -0.123059 0.992399 0 -0.123059 0.992399 0 -0.123059 0.992399 0 0 0 -1 0 0 -1 0 0 -1 0 0 -1 0.123059 -0.992399 0 0.123059 -0.992399 0 0.123059 -0.992399 0 0.123059 -0.992399 0 0 0 1 0 0 1 0 0 1 0 0 1 -0.992399 -0.123059 0 -0.992399 -0.123059 0 -0.992399 -0.123059 0 -0.992399 -0.123059 0 0.992399 0.123059 0 0.992399 0.123059 0 0.992399 0.123059 0 0.992399 0.123059 0</float_array>
          <technique_common>
            <accessor count="24" source="#ID14" stride="3">
              <param name="X" type="float"/>
              <param name="Y" type="float"/>
              <param name="Z" type="float"/>
            </accessor>
          </technique_common>
        </source>
        <vertices id="ID15">
          <input semantic="POSITION" source="#ID11"/>
          <input semantic="NORMAL" source="#ID13"/>
        </vertices>
        <triangles count="12" material="ID16">
          <input offset="0" semantic="VERTEX" source="#ID15"/>
          <p>0 2 1 0 3 2 4 6 5 4 5 7 8 10 9 9 11 8 12 14 13 13 15 12 16 18 17 16 19 18 20 22 21 22 20 23</p>
        </triangles>
      </mesh>
    </geometry>
    <geometry id="ID17">
      <mesh>
        <source id="ID18">
          <float_array count="72" id="ID19">-0.00711001 -0.0436791 -0.005842 -0.00711001 -0.0436791 0.005842 -0.0096307 -0.0433665 0.005842 -0.0096307 -0.0433665 -0.005842 -0.0096307 -0.0433665 -0.005842 -0.00991074 -0.0456248 -0.005842 -0.00711001 -0.0436791 -0.005842 -0.00739004 -0.0459374 -0.005842 -0.00991074 -0.0456248 -0.005842 -0.00739004 -0.0459374 0.005842 -0.00739004 -0.0459374 -0.005842 -0.00991074 -0.0456248 0.005842 -0.00711001 -0.0436791 0.005842 -0.00739004 -0.0459374 0.005842 -0.00991074 -0.0456248 0.005842 -0.0096307 -0.0433665 0.005842 -0.00711001 -0.0436791 -0.005842 -0.00739004 -0.0459374 0.005842 -0.00711001 -0.0436791 0.005842 -0.00739004 -0.0459374 -0.005842 -0.0096307 -0.0433665 -0.005842 -0.00991074 -0.0456248 0.005842 -0.00991074 -0.0456248 -0.005842 -0.0096307 -0.0433665 0.005842</float_array>
          <technique_common>
            <accessor count="24" source="#ID19" stride="3">
              <param name="X" type="float"/>
              <param name="Y" type="float"/>
              <param name="Z" type="float"/>
            </accessor>
          </technique_common>
        </source>
        <source id="ID20">
          <float_array count="72" id="ID21">0.123059 0.992399 0 0.123059 0.992399 0 0.123059 0.992399 0 0.123059 0.992399 0 0 0 -1 0 0 -1 0 0 -1 0 0 -1 -0.123059 -0.992399 -0 -0.123059 -0.992399 -0 -0.123059 -0.992399 -0 -0.123059 -0.992399 -0 0 0 1 0 0 1 0 0 1 0 0 1 0.992399 -0.123059 0 0.992399 -0.123059 0 0.992399 -0.123059 0 0.992399 -0.123059 0 -0.992399 0.123059 0 -0.992399 0.123059 0 -0.992399 0.123059 0 -0.992399 0.123059 0</float_array>
          <technique_common>
            <accessor count="24" source="#ID21" stride="3">
              <param name="X" type="float"/>
              <param name="Y" type="float"/>
              <param name="Z" type="float"/>
            </accessor>
          </technique_common>
        </source>
        <vertices id="ID22">
          <input semantic="POSITION" source="#ID18"/>
          <input semantic="NORMAL" source="#ID20"/>
        </vertices>
        <triangles count="12" material="ID16">
          <input offset="0" semantic="VERTEX" source="#ID22"/>
          <p>0 2 1 0 3 2 4 6 5 5 6 7 8 10 9 9 11 8 12 14 13 12 15 14 16 18 17 17 19 16 20 22 21 20 21 23</p>
        </triangles>
      </mesh>
    </geometry>
    <geometry id="ID23">
      <mesh>
        <source id="ID24">
          <float_array count="288" id="ID25">-0.00755197 -0.0435369 0.005842 -0.00617072 -0.0302314 0.008382 -0.00617072 -0.0302314 0.005842 -0.00755197 -0.0435369 0.008382 -0.00617072 -0.0302314 0.005842 0.00617072 -0.0302314 0.008382 0.00617072 -0.0302314 0.005842 -0.00617072 -0.0302314 0.008382 0.00755197 -0.0435369 0.005842 0.00617072 -0.0302314 0.008382 0.00755197 -0.0435369 0.008382 0.00617072 -0.0302314 0.005842 -0.00595791 -0.0281815 0.005842 0.00595791 -0.0281815 0.008382 -0.00595791 -0.0281815 0.008382 0.00595791 -0.0281815 0.005842 -0.00595791 -0.0281815 0.005842 -0.00303239 1.77636e-18 0.008382 -0.00303239 3.55271e-18 0.005842 -0.00595791 -0.0281815 0.008382 -0.00303239 3.55271e-18 0.005842 -0.0042532 0 0.008382 -0.0042532 0 0.005842 -0.00303239 1.77636e-18 0.008382 -0.0042532 0 0.005842 -0.0117137 -0.0601647 0.008382 -0.0117137 -0.0601647 0.005842 -0.0042532 0 0.008382 -0.0117137 -0.0601647 0.005842 -0.00930906 -0.0604629 0.008382 -0.00930906 -0.0604629 0.005842 -0.0117137 -0.0601647 0.008382 -0.00930906 -0.0604629 0.005842 -0.0078022 -0.0459474 0.008382 -0.0078022 -0.0459474 0.005842 -0.00930906 -0.0604629 0.008382 -0.0078022 -0.0459474 0.005842 0.0078022 -0.0459474 0.008382 0.0078022 -0.0459474 0.005842 -0.0078022 -0.0459474 0.008382 0.00930906 -0.0604629 0.005842 0.0078022 -0.0459474 0.008382 0.00930906 -0.0604629 0.008382 0.0078022 -0.0459474 0.005842 0.0117137 -0.0601647 0.005842 0.00930906 -0.0604629 0.008382 0.0117137 -0.0601647 0.008382 0.00930906 -0.0604629 0.005842 0.0042532 3.19744e-17 0.005842 0.0117137 -0.0601647 0.008382 0.0042532 3.55271e-17 0.008382 0.0117137 -0.0601647 0.005842 0.00303239 0 0.005842 0.0042532 3.55271e-17 0.008382 0.00303239 0 0.008382 0.0042532 3.19744e-17 0.005842 0.00595791 -0.0281815 0.005842 0.00303239 0 0.008382 0.00595791 -0.0281815 0.008382 0.00303239 0 0.005842 -0.00755197 -0.0435369 0.005842 0.00755197 -0.0435369 0.008382 -0.00755197 -0.0435369 0.008382 0.00755197 -0.0435369 0.005842 0.00303239 0 0.008382 0.0042532 3.55271e-17 0.008382 0.00595791 -0.0281815 0.008382 -0.00595791 -0.0281815 0.008382 -0.0042532 0 0.008382 -0.00303239 1.77636e-18 0.008382 -0.0117137 -0.0601647 0.008382 0.0117137 -0.0601647 0.008382 -0.00755197 -0.0435369 0.008382 -0.0078022 -0.0459474 0.008382 -0.00930906 -0.0604629 0.008382 0.00617072 -0.0302314 0.008382 -0.00617072 -0.0302314 0.008382 0.0078022 -0.0459474 0.008382 0.00930906 -0.0604629 0.008382 0.00755197 -0.0435369 0.008382 -0.0117137 -0.0601647 0.005842 -0.00595791 -0.0281815 0.005842 -0.0042532 0 0.005842 -0.00303239 3.55271e-18 0.005842 0.0078022 -0.0459474 0.005842 0.0117137 -0.0601647 0.005842 0.00755197 -0.0435369 0.005842 0.0042532 3.19744e-17 0.005842 0.00595791 -0.0281815 0.005842 -0.0078022 -0.0459474 0.005842 -0.00755197 -0.0435369 0.005842 -0.00930906 -0.0604629 0.005842 0.00930906 -0.0604629 0.005842 0.00303239 0 0.005842 0.00617072 -0.0302314 0.005842 -0.00617072 -0.0302314 0.005842</float_array>
          <technique_common>
            <accessor count="96" source="#ID25" stride="3">
              <param name="X" type="float"/>
              <param name="Y" type="float"/>
              <param name="Z" type="float"/>
            </accessor>
          </technique_common>
        </source>
        <source id="ID26">
          <float_array count="288" id="ID27">0.994655 -0.103255 0 0.994655 -0.103255 0 0.994655 -0.103255 0 0.994655 -0.103255 0 0 -1 0 0 -1 0 0 -1 0 0 -1 0 -0.994655 -0.103255 0 -0.994655 -0.103255 0 -0.994655 -0.103255 0 -0.994655 -0.103255 0 0 1 0 0 1 0 0 1 0 0 1 0 0.994655 -0.103255 0 0.994655 -0.103255 0 0.994655 -0.103255 0 0.994655 -0.103255 0 0 1 0 0 1 0 0 1 0 0 1 0 -0.992399 0.123059 0 -0.992399 0.123059 0 -0.992399 0.123059 0 -0.992399 0.123059 0 -0.123059 -0.992399 -0 -0.123059 -0.992399 -0 -0.123059 -0.992399 -0 -0.123059 -0.992399 -0 0.994655 -0.103255 0 0.994655 -0.103255 0 0.994655 -0.103255 0 0.994655 -0.103255 0 0 -1 0 0 -1 0 0 -1 0 0 -1 0 -0.994655 -0.103255 0 -0.994655 -0.103255 0 -0.994655 -0.103255 0 -0.994655 -0.103255 0 0.123059 -0.992399 0 0.123059 -0.992399 0 0.123059 -0.992399 0 0.123059 -0.992399 0 0.992399 0.123059 0 0.992399 0.123059 0 0.992399 0.123059 0 0.992399 0.123059 0 0 1 0 0 1 0 0 1 0 0 1 0 -0.994655 -0.103255 0 -0.994655 -0.103255 0 -0.994655 -0.103255 0 -0.994655 -0.103255 0 0 1 0 0 1 0 0 1 0 0 1 0 0 0 1 0 0 1 0 0 1 0 0 1 0 0 1 0 0 1 0 0 1 0 0 1 0 0 1 0 0 1 0 0 1 0 0 1 0 0 1 0 0 1 0 0 1 0 0 1 -0 -0 -1 -0 -0 -1 -0 -0 -1 -0 -0 -1 -0 -0 -1 -0 -0 -1 -0 -0 -1 -0 -0 -1 -0 -0 -1 -0 -0 -1 -0 -0 -1 -0 -0 -1 -0 -0 -1 -0 -0 -1 -0 -0 -1 -0 -0 -1</float_array>
          <technique_common>
            <accessor count="96" source="#ID27" stride="3">
              <param name="X" type="float"/>
              <param name="Y" type="float"/>
              <param name="Z" type="float"/>
            </accessor>
          </technique_common>
        </source>
        <vertices id="ID28">
          <input semantic="POSITION" source="#ID24"/>
          <input semantic="NORMAL" source="#ID26"/>
        </vertices>
        <triangles count="64" material="ID29">
          <input offset="0" semantic="VERTEX" source="#ID28"/>
          <p>0 2 1 1 3 0 4 6 5 5 7 4 8 10 9 8 9 11 12 14 13 12 13 15 16 18 17 17 19 16 20 22 21 21 23 20 24 26 25 25 27 24 28 30 29 29 31 28 32 34 33 33 35 32 36 38 37 37 39 36 40 42 41 40 41 43 44 46 45 44 45 47 48 50 49 48 49 51 52 54 53 52 53 55 56 58 57 56 57 59 60 62 61 60 61 63 64 66 65 67 69 68 67 68 70 66 71 65 70 73 72 70 74 73 66 75 71 67 76 75 77 78 71 72 76 70 73 77 72 70 76 67 79 77 71 75 66 67 71 75 79 72 77 79 80 82 81 81 82 83 84 86 85 85 88 87 89 80 90 80 89 91 92 84 85 87 88 93 85 94 88 94 95 81 80 81 95 86 84 90 94 81 88 85 86 94 80 95 90 84 89 90</p>
        </triangles>
      </mesh>
    </geometry>
    <geometry id="ID30">
      <mesh>
        <source id="ID31">
          <float_array count="288" id="ID32">-0.00617072 -0.0302314 -0.005842 -0.00617072 -0.0302314 -0.008382 -0.00755197 -0.0435369 -0.008382 -0.00755197 -0.0435369 -0.005842 0.00617072 -0.0302314 -0.005842 0.00617072 -0.0302314 -0.008382 -0.00617072 -0.0302314 -0.008382 -0.00617072 -0.0302314 -0.005842 0.00755197 -0.0435369 -0.008382 0.00617072 -0.0302314 -0.008382 0.00617072 -0.0302314 -0.005842 0.00755197 -0.0435369 -0.005842 -0.00595791 -0.0281815 -0.008382 0.00595791 -0.0281815 -0.008382 0.00595791 -0.0281815 -0.005842 -0.00595791 -0.0281815 -0.005842 -0.00303239 1.77636e-18 -0.005842 -0.00303239 3.55271e-18 -0.008382 -0.00595791 -0.0281815 -0.008382 -0.00595791 -0.0281815 -0.005842 -0.0042532 0 -0.005842 -0.0042532 0 -0.008382 -0.00303239 3.55271e-18 -0.008382 -0.00303239 1.77636e-18 -0.005842 -0.0117137 -0.0601647 -0.005842 -0.0117137 -0.0601647 -0.008382 -0.0042532 0 -0.008382 -0.0042532 0 -0.005842 -0.00930906 -0.0604629 -0.005842 -0.00930906 -0.0604629 -0.008382 -0.0117137 -0.0601647 -0.008382 -0.0117137 -0.0601647 -0.005842 -0.0078022 -0.0459474 -0.005842 -0.0078022 -0.0459474 -0.008382 -0.00930906 -0.0604629 -0.008382 -0.00930906 -0.0604629 -0.005842 0.0078022 -0.0459474 -0.005842 0.0078022 -0.0459474 -0.008382 -0.0078022 -0.0459474 -0.008382 -0.0078022 -0.0459474 -0.005842 0.00930906 -0.0604629 -0.008382 0.0078022 -0.0459474 -0.008382 0.0078022 -0.0459474 -0.005842 0.00930906 -0.0604629 -0.005842 0.0117137 -0.0601647 -0.008382 0.00930906 -0.0604629 -0.008382 0.00930906 -0.0604629 -0.005842 0.0117137 -0.0601647 -0.005842 0.0042532 3.19744e-17 -0.008382 0.0117137 -0.0601647 -0.008382 0.0117137 -0.0601647 -0.005842 0.0042532 3.55271e-17 -0.005842 0.00303239 0 -0.008382 0.0042532 3.19744e-17 -0.008382 0.0042532 3.55271e-17 -0.005842 0.00303239 0 -0.005842 0.00595791 -0.0281815 -0.008382 0.00303239 0 -0.008382 0.00303239 0 -0.005842 0.00595791 -0.0281815 -0.005842 -0.00755197 -0.0435369 -0.008382 0.00755197 -0.0435369 -0.008382 0.00755197 -0.0435369 -0.005842 -0.00755197 -0.0435369 -0.005842 0.0078022 -0.0459474 -0.008382 0.00930906 -0.0604629 -0.008382 0.0117137 -0.0601647 -0.008382 -0.00617072 -0.0302314 -0.008382 -0.0117137 -0.0601647 -0.008382 -0.00755197 -0.0435369 -0.008382 -0.00595791 -0.0281815 -0.008382 -0.0042532 0 -0.008382 0.0042532 3.19744e-17 -0.008382 0.00595791 -0.0281815 -0.008382 0.00303239 0 -0.008382 -0.0078022 -0.0459474 -0.008382 0.00755197 -0.0435369 -0.008382 -0.00930906 -0.0604629 -0.008382 -0.00303239 3.55271e-18 -0.008382 0.00617072 -0.0302314 -0.008382 0.00755197 -0.0435369 -0.005842 0.0117137 -0.0601647 -0.005842 0.0078022 -0.0459474 -0.005842 0.00595791 -0.0281815 -0.005842 0.0042532 3.55271e-17 -0.005842 0.00303239 0 -0.005842 0.00930906 -0.0604629 -0.005842 -0.0117137 -0.0601647 -0.005842 -0.00595791 -0.0281815 -0.005842 -0.00617072 -0.0302314 -0.005842 -0.00755197 -0.0435369 -0.005842 -0.0078022 -0.0459474 -0.005842 -0.0042532 0 -0.005842 -0.00930906 -0.0604629 -0.005842 -0.00303239 1.77636e-18 -0.005842 0.00617072 -0.0302314 -0.005842</float_array>
          <technique_common>
            <accessor count="96" source="#ID32" stride="3">
              <param name="X" type="float"/>
              <param name="Y" type="float"/>
              <param name="Z" type="float"/>
            </accessor>
          </technique_common>
        </source>
        <source id="ID33">
          <float_array count="288" id="ID34">0.994655 -0.103255 0 0.994655 -0.103255 0 0.994655 -0.103255 0 0.994655 -0.103255 0 0 -1 0 0 -1 0 0 -1 0 0 -1 0 -0.994655 -0.103255 0 -0.994655 -0.103255 0 -0.994655 -0.103255 0 -0.994655 -0.103255 0 0 1 0 0 1 0 0 1 0 0 1 0 0.994655 -0.103255 0 0.994655 -0.103255 0 0.994655 -0.103255 0 0.994655 -0.103255 0 0 1 0 0 1 0 0 1 0 0 1 0 -0.992399 0.123059 0 -0.992399 0.123059 0 -0.992399 0.123059 0 -0.992399 0.123059 0 -0.123059 -0.992399 -0 -0.123059 -0.992399 -0 -0.123059 -0.992399 -0 -0.123059 -0.992399 -0 0.994655 -0.103255 0 0.994655 -0.103255 0 0.994655 -0.103255 0 0.994655 -0.103255 0 0 -1 0 0 -1 0 0 -1 0 0 -1 0 -0.994655 -0.103255 0 -0.994655 -0.103255 0 -0.994655 -0.103255 0 -0.994655 -0.103255 0 0.123059 -0.992399 0 0.123059 -0.992399 0 0.123059 -0.992399 0 0.123059 -0.992399 0 0.992399 0.123059 0 0.992399 0.123059 0 0.992399 0.123059 0 0.992399 0.123059 0 0 1 0 0 1 0 0 1 0 0 1 0 -0.994655 -0.103255 0 -0.994655 -0.103255 0 -0.994655 -0.103255 0 -0.994655 -0.103255 0 0 1 0 0 1 0 0 1 0 0 1 0 0 0 -1 0 0 -1 0 0 -1 0 0 -1 0 0 -1 0 0 -1 0 0 -1 0 0 -1 0 0 -1 0 0 -1 0 0 -1 0 0 -1 0 0 -1 0 0 -1 0 0 -1 0 0 -1 0 0 1 0 0 1 0 0 1 0 0 1 0 0 1 0 0 1 0 0 1 0 0 1 0 0 1 0 0 1 0 0 1 0 0 1 0 0 1 0 0 1 0 0 1 0 0 1</float_array>
          <technique_common>
            <accessor count="96" source="#ID34" stride="3">
              <param name="X" type="float"/>
              <param name="Y" type="float"/>
              <param name="Z" type="float"/>
            </accessor>
          </technique_common>
        </source>
        <vertices id="ID35">
          <input semantic="POSITION" source="#ID31"/>
          <input semantic="NORMAL" source="#ID33"/>
        </vertices>
        <triangles count="64" material="ID29">
          <input offset="0" semantic="VERTEX" source="#ID35"/>
          <p>0 2 1 0 3 2 4 6 5 4 7 6 8 10 9 10 8 11 12 14 13 14 12 15 16 18 17 16 19 18 20 22 21 20 23 22 24 26 25 24 27 26 28 30 29 28 31 30 32 34 33 32 35 34 36 38 37 36 39 38 40 42 41 42 40 43 44 46 45 46 44 47 48 50 49 50 48 51 52 54 53 54 52 55 56 58 57 58 56 59 60 62 61 62 60 63 64 66 65 67 69 68 70 68 71 66 73 72 73 74 72 75 68 69 64 76 66 77 68 75 70 67 68 70 71 78 70 73 67 73 66 79 67 73 79 75 69 76 75 76 64 66 76 79 80 82 81 81 84 83 84 85 83 81 82 86 87 89 88 90 91 80 92 87 88 91 87 93 87 91 90 92 88 94 95 83 89 95 81 83 91 82 80 90 89 87 81 95 80 83 88 89</p>
        </triangles>
      </mesh>
    </geometry>
    <geometry id="ID36">
      <mesh>
        <source id="ID37">
          <float_array count="72" id="ID38">0.00520975 -0.0283546 0.005842 0.00520975 -0.0283546 -0.005842 0.00773044 -0.028042 -0.005842 0.00773044 -0.028042 0.005842 0.00798345 -0.0300824 -0.005842 0.00520975 -0.0283546 -0.005842 0.00546276 -0.0303949 -0.005842 0.00773044 -0.028042 -0.005842 0.00798345 -0.0300824 -0.005842 0.00546276 -0.0303949 0.005842 0.00798345 -0.0300824 0.005842 0.00546276 -0.0303949 -0.005842 0.00798345 -0.0300824 0.005842 0.00520975 -0.0283546 0.005842 0.00773044 -0.028042 0.005842 0.00546276 -0.0303949 0.005842 0.00520975 -0.0283546 0.005842 0.00546276 -0.0303949 0.005842 0.00546276 -0.0303949 -0.005842 0.00520975 -0.0283546 -0.005842 0.00798345 -0.0300824 -0.005842 0.00798345 -0.0300824 0.005842 0.00773044 -0.028042 0.005842 0.00773044 -0.028042 -0.005842</float_array>
          <technique_common>
            <accessor count="24" source="#ID38" stride="3">
              <param name="X" type="float"/>
              <param name="Y" type="float"/>
              <param name="Z" type="float"/>
            </accessor>
          </technique_common>
        </source>
        <source id="ID39">
          <float_array count="72" id="ID40">-0.123059 0.992399 0 -0.123059 0.992399 0 -0.123059 0.992399 0 -0.123059 0.992399 0 0 0 -1 0 0 -1 0 0 -1 0 0 -1 0.123059 -0.992399 0 0.123059 -0.992399 0 0.123059 -0.992399 0 0.123059 -0.992399 0 0 0 1 0 0 1 0 0 1 0 0 1 -0.992399 -0.123059 0 -0.992399 -0.123059 0 -0.992399 -0.123059 0 -0.992399 -0.123059 0 0.992399 0.123059 0 0.992399 0.123059 0 0.992399 0.123059 0 0.992399 0.123059 0</float_array>
          <technique_common>
            <accessor count="24" source="#ID40" stride="3">
              <param name="X" type="float"/>
              <param name="Y" type="float"/>
              <param name="Z" type="float"/>
            </accessor>
          </technique_common>
        </source>
        <vertices id="ID41">
          <input semantic="POSITION" source="#ID37"/>
          <input semantic="NORMAL" source="#ID39"/>
        </vertices>
        <triangles count="12" material="ID42">
          <input offset="0" semantic="VERTEX" source="#ID41"/>
          <p>0 2 1 0 3 2 4 6 5 4 5 7 8 10 9 8 9 11 12 14 13 12 13 15 16 18 17 16 19 18 20 22 21 22 20 23</p>
        </triangles>
      </mesh>
    </geometry>
    <geometry id="ID43">
      <mesh>
        <source id="ID44">
          <float_array count="72" id="ID45">-0.00520975 -0.0283546 -0.005842 -0.00520975 -0.0283546 0.005842 -0.00773044 -0.028042 0.005842 -0.00773044 -0.028042 -0.005842 -0.00773044 -0.028042 -0.005842 -0.00798345 -0.0300824 -0.005842 -0.00520975 -0.0283546 -0.005842 -0.00546276 -0.0303949 -0.005842 -0.00798345 -0.0300824 0.005842 -0.00546276 -0.0303949 -0.005842 -0.00798345 -0.0300824 -0.005842 -0.00546276 -0.0303949 0.005842 -0.00520975 -0.0283546 0.005842 -0.00546276 -0.0303949 0.005842 -0.00798345 -0.0300824 0.005842 -0.00773044 -0.028042 0.005842 -0.00520975 -0.0283546 -0.005842 -0.00546276 -0.0303949 0.005842 -0.00520975 -0.0283546 0.005842 -0.00546276 -0.0303949 -0.005842 -0.00773044 -0.028042 -0.005842 -0.00798345 -0.0300824 0.005842 -0.00798345 -0.0300824 -0.005842 -0.00773044 -0.028042 0.005842</float_array>
          <technique_common>
            <accessor count="24" source="#ID45" stride="3">
              <param name="X" type="float"/>
              <param name="Y" type="float"/>
              <param name="Z" type="float"/>
            </accessor>
          </technique_common>
        </source>
        <source id="ID46">
          <float_array count="72" id="ID47">0.123059 0.992399 0 0.123059 0.992399 0 0.123059 0.992399 0 0.123059 0.992399 0 0 0 -1 0 0 -1 0 0 -1 0 0 -1 -0.123059 -0.992399 0 -0.123059 -0.992399 0 -0.123059 -0.992399 0 -0.123059 -0.992399 0 0 0 1 0 0 1 0 0 1 0 0 1 0.992399 -0.123059 0 0.992399 -0.123059 0 0.992399 -0.123059 0 0.992399 -0.123059 0 -0.992399 0.123059 0 -0.992399 0.123059 0 -0.992399 0.123059 0 -0.992399 0.123059 0</float_array>
          <technique_common>
            <accessor count="24" source="#ID47" stride="3">
              <param name="X" type="float"/>
              <param name="Y" type="float"/>
              <param name="Z" type="float"/>
            </accessor>
          </technique_common>
        </source>
        <vertices id="ID48">
          <input semantic="POSITION" source="#ID44"/>
          <input semantic="NORMAL" source="#ID46"/>
        </vertices>
        <triangles count="12" material="ID42">
          <input offset="0" semantic="VERTEX" source="#ID48"/>
          <p>0 2 1 0 3 2 4 6 5 5 6 7 8 10 9 8 9 11 12 14 13 14 12 15 16 18 17 17 19 16 20 22 21 20 21 23</p>
        </triangles>
      </mesh>
    </geometry>
  </library_geometries>

  <library_visual_scenes>
    <visual_scene id="ID1">
      <node id="ID2" name="683c3157e829063e4b127123">
        <instance_geometry url="#ID3">
          <bind_material>
            <technique_common>
              <instance_material symbol="ID9" target="#ID9"/>
            </technique_common>
          </bind_material>
        </instance_geometry>
        <instance_geometry url="#ID10">
          <bind_material>
            <technique_common>
              <instance_material symbol="ID16" target="#ID16"/>
            </technique_common>
          </bind_material>
        </instance_geometry>
        <instance_geometry url="#ID17">
          <bind_material>
            <technique_common>
              <instance_material symbol="ID16" target="#ID16"/>
            </technique_common>
          </bind_material>
        </instance_geometry>
        <instance_geometry url="#ID23">
          <bind_material>
            <technique_common>
              <instance_material symbol="ID29" target="#ID29"/>
            </technique_common>
          </bind_material>
        </instance_geometry>
        <instance_geometry url="#ID30">
          <bind_material>
            <technique_common>
              <instance_material symbol="ID29" target="#ID29"/>
            </technique_common>
          </bind_material>
        </instance_geometry>
        <instance_geometry url="#ID36">
          <bind_material>
            <technique_common>
              <instance_material symbol="ID42" target="#ID42"/>
            </technique_common>
          </bind_material>
        </instance_geometry>
        <instance_geometry url="#ID43">
          <bind_material>
            <technique_common>
              <instance_material symbol="ID42" target="#ID42"/>
            </technique_common>
          </bind_material>
        </instance_geometry>
      </node>
    </visual_scene>
  </library_visual_scenes>

  <scene>
    <instance_visual_scene url="#ID1"/>
  </scene>

  <library_nodes/>

</COLLADA>
